%TF.GenerationSoftware,KiCad,Pcbnew,8.0.3*%
%TF.CreationDate,2024-08-26T14:09:17+03:00*%
%TF.ProjectId,pcb,7063622e-6b69-4636-9164-5f7063625858,rev?*%
%TF.SameCoordinates,Original*%
%TF.FileFunction,Legend,Top*%
%TF.FilePolarity,Positive*%
%FSLAX46Y46*%
G04 Gerber Fmt 4.6, Leading zero omitted, Abs format (unit mm)*
G04 Created by KiCad (PCBNEW 8.0.3) date 2024-08-26 14:09:17*
%MOMM*%
%LPD*%
G01*
G04 APERTURE LIST*
%ADD10C,0.100000*%
%ADD11C,0.600000*%
%ADD12C,0.300000*%
%ADD13C,0.250000*%
%ADD14C,0.150000*%
%ADD15C,0.200000*%
%ADD16C,0.120000*%
G04 APERTURE END LIST*
D10*
D11*
X20000000Y-292002200D02*
X414989000Y-292002200D01*
X414989000Y-5000000D01*
X20000000Y-5000000D01*
X20000000Y-292002200D01*
D10*
D11*
X8000000Y-232002200D02*
X20000000Y-232002200D01*
D10*
D11*
X8000000Y-207002200D02*
X20000000Y-207002200D01*
D10*
D11*
X8000000Y-182002200D02*
X20000000Y-182002200D01*
D10*
D11*
X400989000Y-89000000D02*
X414989000Y-89000000D01*
D10*
D11*
X400989000Y-142000000D02*
X414989000Y-142000000D01*
D10*
D11*
X400989000Y-75000000D02*
X414989000Y-75000000D01*
D10*
D11*
X400989000Y-89000000D02*
X400989000Y-142000000D01*
D10*
D11*
X407989000Y-89000000D02*
X407989000Y-142000000D01*
D10*
D11*
X400989000Y-75000000D02*
X400989000Y-89000000D01*
D10*
D11*
X400989000Y-5000000D02*
X400989000Y-75000000D01*
D10*
D11*
X8000000Y-147002200D02*
X20000000Y-147002200D01*
D10*
D11*
X8000000Y-292002200D02*
X20000000Y-292002200D01*
D10*
D11*
X8000000Y-267002200D02*
X20000000Y-267002200D01*
D10*
D11*
X294989000Y-237002200D02*
X294989000Y-292002200D01*
D10*
D11*
X284989000Y-237002200D02*
X284989000Y-292002200D01*
D10*
D11*
X269989000Y-237002200D02*
X269989000Y-292002200D01*
D10*
D11*
X246989000Y-237002200D02*
X246989000Y-292002200D01*
D10*
D11*
X236989000Y-237002200D02*
X236989000Y-262002200D01*
D10*
D12*
X229989000Y-252002200D02*
X294989000Y-252002200D01*
D10*
D12*
X229989000Y-247002200D02*
X294989000Y-247002200D01*
D10*
D12*
X229989000Y-242002200D02*
X294989000Y-242002200D01*
D10*
D11*
X229989000Y-262002200D02*
X294989000Y-262002200D01*
D10*
D11*
X229989000Y-257002200D02*
X294989000Y-257002200D01*
D10*
D12*
X229989000Y-287002200D02*
X294989000Y-287002200D01*
D10*
D12*
X229989000Y-282002200D02*
X294989000Y-282002200D01*
D10*
D12*
X229989000Y-277002200D02*
X294989000Y-277002200D01*
D10*
D12*
X229989000Y-272002200D02*
X294989000Y-272002200D01*
D10*
D12*
X229989000Y-267002200D02*
X294989000Y-267002200D01*
D10*
D11*
X294989000Y-229002200D02*
X414989000Y-229002200D01*
D10*
D11*
X294989000Y-237002200D02*
X294989000Y-229002200D01*
D10*
D11*
X229989000Y-237002200D02*
X414989000Y-237002200D01*
D10*
D11*
X8000000Y-147002200D02*
X8000000Y-292002200D01*
D10*
D11*
X13000000Y-147002200D02*
X13000000Y-292002200D01*
D10*
D12*
X369989000Y-257002200D02*
X369989000Y-272002200D01*
D10*
D12*
X374989000Y-257002200D02*
X374989000Y-272002200D01*
D10*
D11*
X379989000Y-252002200D02*
X379989000Y-272002200D01*
D10*
D11*
X396989000Y-252002200D02*
X396989000Y-272002200D01*
D10*
D11*
X364989000Y-272002200D02*
X414989000Y-272002200D01*
D10*
D11*
X364989000Y-257002200D02*
X414989000Y-257002200D01*
D10*
D11*
X364989000Y-252002200D02*
X364989000Y-292002200D01*
D10*
D11*
X294989000Y-277002200D02*
X414989000Y-277002200D01*
D10*
D11*
X294989000Y-252002200D02*
X414989000Y-252002200D01*
D10*
D11*
X229989000Y-292002200D02*
X229989000Y-237002200D01*
D10*
D11*
X384989000Y-272002200D02*
X384989000Y-277002200D01*
D10*
D11*
X8000000Y-5002200D02*
X20000000Y-5002200D01*
D10*
D11*
X8000000Y-65002200D02*
X20000000Y-65002200D01*
D10*
D11*
X8000000Y-125002200D02*
X20000000Y-125002200D01*
D10*
D11*
X8000000Y-5002200D02*
X8000000Y-125002200D01*
D10*
D11*
X13000000Y-5002200D02*
X13000000Y-125002200D01*
D10*
D13*
X250691380Y-260645747D02*
X250691380Y-258145747D01*
X250691380Y-258145747D02*
X252119951Y-260645747D01*
X252119951Y-260645747D02*
X252119951Y-258145747D01*
X253667570Y-258145747D02*
X253429475Y-258264795D01*
X253429475Y-258264795D02*
X253310428Y-258502890D01*
X253310428Y-258502890D02*
X253429475Y-258740985D01*
X253429475Y-258740985D02*
X253667570Y-258860033D01*
X253667570Y-258860033D02*
X253905666Y-258740985D01*
X253905666Y-258740985D02*
X254024713Y-258502890D01*
X254024713Y-258502890D02*
X253905666Y-258264795D01*
X253905666Y-258264795D02*
X253667570Y-258145747D01*
X256405666Y-259217176D02*
X256286618Y-259098128D01*
X256286618Y-259098128D02*
X256048523Y-258979080D01*
X256048523Y-258979080D02*
X255572332Y-258979080D01*
X255572332Y-258979080D02*
X255334237Y-259098128D01*
X255334237Y-259098128D02*
X255215190Y-259217176D01*
X255215190Y-259217176D02*
X255096142Y-259455271D01*
X255096142Y-259455271D02*
X255096142Y-260169557D01*
X255096142Y-260169557D02*
X255215190Y-260407652D01*
X255215190Y-260407652D02*
X255334237Y-260526700D01*
X255334237Y-260526700D02*
X255572332Y-260645747D01*
X255572332Y-260645747D02*
X255929475Y-260645747D01*
X255929475Y-260645747D02*
X256167571Y-260526700D01*
X256167571Y-260526700D02*
X256286618Y-260407652D01*
X256286618Y-260407652D02*
X256405666Y-260169557D01*
X256405666Y-260169557D02*
X256405666Y-258621938D01*
X256405666Y-258621938D02*
X256286618Y-258383842D01*
X256286618Y-258383842D02*
X256167571Y-258264795D01*
X256167571Y-258264795D02*
X255929475Y-258145747D01*
X255929475Y-258145747D02*
X255453285Y-258145747D01*
X255453285Y-258145747D02*
X255215190Y-258264795D01*
X257834237Y-260645747D02*
X257596142Y-260526700D01*
X257596142Y-260526700D02*
X257477095Y-260407652D01*
X257477095Y-260407652D02*
X257358047Y-260169557D01*
X257358047Y-260169557D02*
X257358047Y-259455271D01*
X257358047Y-259455271D02*
X257477095Y-259217176D01*
X257477095Y-259217176D02*
X257596142Y-259098128D01*
X257596142Y-259098128D02*
X257834237Y-258979080D01*
X257834237Y-258979080D02*
X258191380Y-258979080D01*
X258191380Y-258979080D02*
X258429476Y-259098128D01*
X258429476Y-259098128D02*
X258548523Y-259217176D01*
X258548523Y-259217176D02*
X258667571Y-259455271D01*
X258667571Y-259455271D02*
X258667571Y-260169557D01*
X258667571Y-260169557D02*
X258548523Y-260407652D01*
X258548523Y-260407652D02*
X258429476Y-260526700D01*
X258429476Y-260526700D02*
X258191380Y-260645747D01*
X258191380Y-260645747D02*
X257834237Y-260645747D01*
X259739000Y-258979080D02*
X259739000Y-260645747D01*
X259977095Y-259693366D02*
X260691381Y-260645747D01*
X260691381Y-258979080D02*
X259739000Y-259931461D01*
X261524714Y-258979080D02*
X262119952Y-260645747D01*
X262715191Y-258979080D02*
X262119952Y-260645747D01*
X262119952Y-260645747D02*
X261881857Y-261240985D01*
X261881857Y-261240985D02*
X261762810Y-261360033D01*
X261762810Y-261360033D02*
X261524714Y-261479080D01*
X263667572Y-260645747D02*
X263667572Y-258979080D01*
X263667572Y-258979080D02*
X264381857Y-260288604D01*
X264381857Y-260288604D02*
X265096143Y-258979080D01*
X265096143Y-258979080D02*
X265096143Y-260645747D01*
X266286620Y-260407652D02*
X266405667Y-260526700D01*
X266405667Y-260526700D02*
X266286620Y-260645747D01*
X266286620Y-260645747D02*
X266167572Y-260526700D01*
X266167572Y-260526700D02*
X266286620Y-260407652D01*
X266286620Y-260407652D02*
X266286620Y-260645747D01*
D10*
D13*
X10334023Y-229561723D02*
X10453071Y-229204580D01*
X10453071Y-229204580D02*
X10572119Y-229085533D01*
X10572119Y-229085533D02*
X10810214Y-228966485D01*
X10810214Y-228966485D02*
X11167357Y-228966485D01*
X11167357Y-228966485D02*
X11405452Y-229085533D01*
X11405452Y-229085533D02*
X11524500Y-229204580D01*
X11524500Y-229204580D02*
X11643547Y-229442675D01*
X11643547Y-229442675D02*
X11643547Y-230395056D01*
X11643547Y-230395056D02*
X9143547Y-230395056D01*
X9143547Y-230395056D02*
X9143547Y-229561723D01*
X9143547Y-229561723D02*
X9262595Y-229323628D01*
X9262595Y-229323628D02*
X9381642Y-229204580D01*
X9381642Y-229204580D02*
X9619738Y-229085533D01*
X9619738Y-229085533D02*
X9857833Y-229085533D01*
X9857833Y-229085533D02*
X10095928Y-229204580D01*
X10095928Y-229204580D02*
X10214976Y-229323628D01*
X10214976Y-229323628D02*
X10334023Y-229561723D01*
X10334023Y-229561723D02*
X10334023Y-230395056D01*
X10810214Y-227656961D02*
X10810214Y-227418866D01*
X10095928Y-228133152D02*
X9976880Y-227895056D01*
X9976880Y-227895056D02*
X9976880Y-227418866D01*
X9976880Y-227418866D02*
X10095928Y-227180771D01*
X10095928Y-227180771D02*
X10334023Y-227061723D01*
X10334023Y-227061723D02*
X10453071Y-227061723D01*
X10453071Y-227061723D02*
X10691166Y-227180771D01*
X10691166Y-227180771D02*
X10810214Y-227418866D01*
X10810214Y-227418866D02*
X10929261Y-227180771D01*
X10929261Y-227180771D02*
X11167357Y-227061723D01*
X11167357Y-227061723D02*
X11286404Y-227061723D01*
X11286404Y-227061723D02*
X11524500Y-227180771D01*
X11524500Y-227180771D02*
X11643547Y-227418866D01*
X11643547Y-227418866D02*
X11643547Y-227895056D01*
X11643547Y-227895056D02*
X11524500Y-228133152D01*
X11643547Y-224918866D02*
X10334023Y-224918866D01*
X10334023Y-224918866D02*
X10095928Y-225037913D01*
X10095928Y-225037913D02*
X9976880Y-225276009D01*
X9976880Y-225276009D02*
X9976880Y-225752199D01*
X9976880Y-225752199D02*
X10095928Y-225990294D01*
X11524500Y-224918866D02*
X11643547Y-225156961D01*
X11643547Y-225156961D02*
X11643547Y-225752199D01*
X11643547Y-225752199D02*
X11524500Y-225990294D01*
X11524500Y-225990294D02*
X11286404Y-226109342D01*
X11286404Y-226109342D02*
X11048309Y-226109342D01*
X11048309Y-226109342D02*
X10810214Y-225990294D01*
X10810214Y-225990294D02*
X10691166Y-225752199D01*
X10691166Y-225752199D02*
X10691166Y-225156961D01*
X10691166Y-225156961D02*
X10572119Y-224918866D01*
X11643547Y-223728389D02*
X9976880Y-223728389D01*
X9976880Y-223728389D02*
X11286404Y-223014104D01*
X11286404Y-223014104D02*
X9976880Y-222299818D01*
X9976880Y-222299818D02*
X11643547Y-222299818D01*
X11405452Y-221109341D02*
X11524500Y-220990294D01*
X11524500Y-220990294D02*
X11643547Y-221109341D01*
X11643547Y-221109341D02*
X11524500Y-221228389D01*
X11524500Y-221228389D02*
X11405452Y-221109341D01*
X11405452Y-221109341D02*
X11643547Y-221109341D01*
X9976880Y-219918865D02*
X11643547Y-219918865D01*
X11643547Y-219918865D02*
X9976880Y-218728389D01*
X9976880Y-218728389D02*
X11643547Y-218728389D01*
X10810214Y-217537913D02*
X10810214Y-216466485D01*
X9976880Y-217537913D02*
X11643547Y-217537913D01*
X9976880Y-216466485D02*
X11643547Y-216466485D01*
X10810214Y-214680770D02*
X10929261Y-214323627D01*
X10929261Y-214323627D02*
X11167357Y-214204580D01*
X11167357Y-214204580D02*
X11286404Y-214204580D01*
X11286404Y-214204580D02*
X11524500Y-214323627D01*
X11524500Y-214323627D02*
X11643547Y-214561723D01*
X11643547Y-214561723D02*
X11643547Y-215276008D01*
X11643547Y-215276008D02*
X9976880Y-215276008D01*
X9976880Y-215276008D02*
X9976880Y-214680770D01*
X9976880Y-214680770D02*
X10095928Y-214442675D01*
X10095928Y-214442675D02*
X10334023Y-214323627D01*
X10334023Y-214323627D02*
X10453071Y-214323627D01*
X10453071Y-214323627D02*
X10691166Y-214442675D01*
X10691166Y-214442675D02*
X10810214Y-214680770D01*
X10810214Y-214680770D02*
X10810214Y-215276008D01*
X11405452Y-213133151D02*
X11524500Y-213014104D01*
X11524500Y-213014104D02*
X11643547Y-213133151D01*
X11643547Y-213133151D02*
X11524500Y-213252199D01*
X11524500Y-213252199D02*
X11405452Y-213133151D01*
X11405452Y-213133151D02*
X11643547Y-213133151D01*
X11643547Y-211942675D02*
X9143547Y-211942675D01*
X9143547Y-211942675D02*
X11643547Y-210514104D01*
X11643547Y-210514104D02*
X9143547Y-210514104D01*
X9143547Y-208966485D02*
X9262595Y-209204580D01*
X9262595Y-209204580D02*
X9500690Y-209323627D01*
X9500690Y-209323627D02*
X9738785Y-209204580D01*
X9738785Y-209204580D02*
X9857833Y-208966485D01*
X9857833Y-208966485D02*
X9738785Y-208728389D01*
X9738785Y-208728389D02*
X9500690Y-208609342D01*
X9500690Y-208609342D02*
X9262595Y-208728389D01*
X9262595Y-208728389D02*
X9143547Y-208966485D01*
D10*
D13*
X287965190Y-261240985D02*
X287965190Y-260645747D01*
X287965190Y-260645747D02*
X285822332Y-260645747D01*
X285822332Y-260645747D02*
X285822332Y-261240985D01*
X287488999Y-260645747D02*
X287488999Y-258145747D01*
X287488999Y-258145747D02*
X286893761Y-258145747D01*
X286893761Y-258145747D02*
X286655666Y-258264795D01*
X286655666Y-258264795D02*
X286536618Y-258383842D01*
X286536618Y-258383842D02*
X286417570Y-258621938D01*
X286417570Y-258621938D02*
X286179475Y-260645747D01*
X289988999Y-260645747D02*
X289988999Y-259336223D01*
X289988999Y-259336223D02*
X289869952Y-259098128D01*
X289869952Y-259098128D02*
X289631856Y-258979080D01*
X289631856Y-258979080D02*
X289155666Y-258979080D01*
X289155666Y-258979080D02*
X288917571Y-259098128D01*
X289988999Y-260526700D02*
X289750904Y-260645747D01*
X289750904Y-260645747D02*
X289155666Y-260645747D01*
X289155666Y-260645747D02*
X288917571Y-260526700D01*
X288917571Y-260526700D02*
X288798523Y-260288604D01*
X288798523Y-260288604D02*
X288798523Y-260050509D01*
X288798523Y-260050509D02*
X288917571Y-259812414D01*
X288917571Y-259812414D02*
X289155666Y-259693366D01*
X289155666Y-259693366D02*
X289750904Y-259693366D01*
X289750904Y-259693366D02*
X289988999Y-259574319D01*
X290822333Y-258979080D02*
X292012809Y-258979080D01*
X291417571Y-258979080D02*
X291417571Y-260645747D01*
X293917571Y-260645747D02*
X293917571Y-259336223D01*
X293917571Y-259336223D02*
X293798524Y-259098128D01*
X293798524Y-259098128D02*
X293560428Y-258979080D01*
X293560428Y-258979080D02*
X293084238Y-258979080D01*
X293084238Y-258979080D02*
X292846143Y-259098128D01*
X293917571Y-260526700D02*
X293679476Y-260645747D01*
X293679476Y-260645747D02*
X293084238Y-260645747D01*
X293084238Y-260645747D02*
X292846143Y-260526700D01*
X292846143Y-260526700D02*
X292727095Y-260288604D01*
X292727095Y-260288604D02*
X292727095Y-260050509D01*
X292727095Y-260050509D02*
X292846143Y-259812414D01*
X292846143Y-259812414D02*
X293084238Y-259693366D01*
X293084238Y-259693366D02*
X293679476Y-259693366D01*
X293679476Y-259693366D02*
X293917571Y-259574319D01*
D10*
D13*
X230909634Y-258145747D02*
X230909634Y-260645747D01*
X230909634Y-260645747D02*
X231941380Y-258145747D01*
X231941380Y-258145747D02*
X231941380Y-260645747D01*
X232973127Y-259812414D02*
X233145084Y-259812414D01*
X232629211Y-259098128D02*
X232801169Y-258979080D01*
X232801169Y-258979080D02*
X233145084Y-258979080D01*
X233145084Y-258979080D02*
X233317042Y-259098128D01*
X233317042Y-259098128D02*
X233403021Y-259336223D01*
X233403021Y-259336223D02*
X233403021Y-259455271D01*
X233403021Y-259455271D02*
X233317042Y-259693366D01*
X233317042Y-259693366D02*
X233145084Y-259812414D01*
X233145084Y-259812414D02*
X233317042Y-259931461D01*
X233317042Y-259931461D02*
X233403021Y-260169557D01*
X233403021Y-260169557D02*
X233403021Y-260288604D01*
X233403021Y-260288604D02*
X233317042Y-260526700D01*
X233317042Y-260526700D02*
X233145084Y-260645747D01*
X233145084Y-260645747D02*
X232801169Y-260645747D01*
X232801169Y-260645747D02*
X232629211Y-260526700D01*
X234176831Y-260645747D02*
X234176831Y-258979080D01*
X234176831Y-258979080D02*
X234692704Y-260288604D01*
X234692704Y-260288604D02*
X235208577Y-258979080D01*
X235208577Y-258979080D02*
X235208577Y-260645747D01*
X236068366Y-260407652D02*
X236154345Y-260526700D01*
X236154345Y-260526700D02*
X236068366Y-260645747D01*
X236068366Y-260645747D02*
X235982387Y-260526700D01*
X235982387Y-260526700D02*
X236068366Y-260407652D01*
X236068366Y-260407652D02*
X236068366Y-260645747D01*
D10*
D13*
X9143547Y-205156961D02*
X11643547Y-205156961D01*
X11643547Y-205156961D02*
X9143547Y-203728390D01*
X9143547Y-203728390D02*
X11643547Y-203728390D01*
X10810214Y-202537913D02*
X10810214Y-201466485D01*
X9976880Y-202537913D02*
X11643547Y-202537913D01*
X9976880Y-201466485D02*
X11643547Y-201466485D01*
X10810214Y-199680770D02*
X10929261Y-199323627D01*
X10929261Y-199323627D02*
X11167357Y-199204580D01*
X11167357Y-199204580D02*
X11286404Y-199204580D01*
X11286404Y-199204580D02*
X11524500Y-199323627D01*
X11524500Y-199323627D02*
X11643547Y-199561723D01*
X11643547Y-199561723D02*
X11643547Y-200276008D01*
X11643547Y-200276008D02*
X9976880Y-200276008D01*
X9976880Y-200276008D02*
X9976880Y-199680770D01*
X9976880Y-199680770D02*
X10095928Y-199442675D01*
X10095928Y-199442675D02*
X10334023Y-199323627D01*
X10334023Y-199323627D02*
X10453071Y-199323627D01*
X10453071Y-199323627D02*
X10691166Y-199442675D01*
X10691166Y-199442675D02*
X10810214Y-199680770D01*
X10810214Y-199680770D02*
X10810214Y-200276008D01*
X11405452Y-198133151D02*
X11524500Y-198014104D01*
X11524500Y-198014104D02*
X11643547Y-198133151D01*
X11643547Y-198133151D02*
X11524500Y-198252199D01*
X11524500Y-198252199D02*
X11405452Y-198133151D01*
X11405452Y-198133151D02*
X11643547Y-198133151D01*
X11643547Y-196942675D02*
X9143547Y-196942675D01*
X9143547Y-196942675D02*
X11643547Y-195514104D01*
X11643547Y-195514104D02*
X9143547Y-195514104D01*
X9143547Y-193966485D02*
X9262595Y-194204580D01*
X9262595Y-194204580D02*
X9500690Y-194323627D01*
X9500690Y-194323627D02*
X9738785Y-194204580D01*
X9738785Y-194204580D02*
X9857833Y-193966485D01*
X9857833Y-193966485D02*
X9738785Y-193728389D01*
X9738785Y-193728389D02*
X9500690Y-193609342D01*
X9500690Y-193609342D02*
X9262595Y-193728389D01*
X9262595Y-193728389D02*
X9143547Y-193966485D01*
X10214976Y-191228389D02*
X10095928Y-191347437D01*
X10095928Y-191347437D02*
X9976880Y-191585532D01*
X9976880Y-191585532D02*
X9976880Y-192061723D01*
X9976880Y-192061723D02*
X10095928Y-192299818D01*
X10095928Y-192299818D02*
X10214976Y-192418865D01*
X10214976Y-192418865D02*
X10453071Y-192537913D01*
X10453071Y-192537913D02*
X11167357Y-192537913D01*
X11167357Y-192537913D02*
X11405452Y-192418865D01*
X11405452Y-192418865D02*
X11524500Y-192299818D01*
X11524500Y-192299818D02*
X11643547Y-192061723D01*
X11643547Y-192061723D02*
X11643547Y-191704580D01*
X11643547Y-191704580D02*
X11524500Y-191466484D01*
X11524500Y-191466484D02*
X11405452Y-191347437D01*
X11405452Y-191347437D02*
X11167357Y-191228389D01*
X11167357Y-191228389D02*
X9619738Y-191228389D01*
X9619738Y-191228389D02*
X9381642Y-191347437D01*
X9381642Y-191347437D02*
X9262595Y-191466484D01*
X9262595Y-191466484D02*
X9143547Y-191704580D01*
X9143547Y-191704580D02*
X9143547Y-192180770D01*
X9143547Y-192180770D02*
X9262595Y-192418865D01*
X9976880Y-190395056D02*
X11643547Y-189799818D01*
X9976880Y-189204579D02*
X11643547Y-189799818D01*
X11643547Y-189799818D02*
X12238785Y-190037913D01*
X12238785Y-190037913D02*
X12357833Y-190156960D01*
X12357833Y-190156960D02*
X12476880Y-190395056D01*
X9024500Y-187061722D02*
X9143547Y-187180770D01*
X9143547Y-187180770D02*
X9262595Y-187418865D01*
X9262595Y-187418865D02*
X9262595Y-187895056D01*
X9262595Y-187895056D02*
X9381642Y-188133151D01*
X9381642Y-188133151D02*
X9500690Y-188252198D01*
X9500690Y-188252198D02*
X9738785Y-188371246D01*
X9738785Y-188371246D02*
X11167357Y-188371246D01*
X11167357Y-188371246D02*
X11405452Y-188252198D01*
X11405452Y-188252198D02*
X11524500Y-188133151D01*
X11524500Y-188133151D02*
X11643547Y-187895056D01*
X11643547Y-187895056D02*
X11643547Y-187537913D01*
X11643547Y-187537913D02*
X11524500Y-187299817D01*
X11524500Y-187299817D02*
X11405452Y-187180770D01*
X11405452Y-187180770D02*
X11167357Y-187061722D01*
X11167357Y-187061722D02*
X10453071Y-187061722D01*
X10453071Y-187061722D02*
X10214976Y-187180770D01*
X10214976Y-187180770D02*
X10095928Y-187299817D01*
X10095928Y-187299817D02*
X9976880Y-187537913D01*
X9976880Y-187537913D02*
X9976880Y-188014103D01*
X9976880Y-188014103D02*
X10095928Y-188252198D01*
X10095928Y-188252198D02*
X10214976Y-188371246D01*
X11643547Y-185037912D02*
X9976880Y-185037912D01*
X9976880Y-185037912D02*
X9976880Y-185395055D01*
X9976880Y-185395055D02*
X10095928Y-185633151D01*
X10095928Y-185633151D02*
X10334023Y-185752198D01*
X10334023Y-185752198D02*
X11286404Y-185871246D01*
X11286404Y-185871246D02*
X11524500Y-185990293D01*
X11524500Y-185990293D02*
X11643547Y-186228389D01*
X11405452Y-183847436D02*
X11524500Y-183728389D01*
X11524500Y-183728389D02*
X11643547Y-183847436D01*
X11643547Y-183847436D02*
X11524500Y-183966484D01*
X11524500Y-183966484D02*
X11405452Y-183847436D01*
X11405452Y-183847436D02*
X11643547Y-183847436D01*
D10*
D13*
X9143547Y-290335533D02*
X11643547Y-290335533D01*
X11643547Y-290335533D02*
X9143547Y-288906962D01*
X9143547Y-288906962D02*
X11643547Y-288906962D01*
X10810214Y-287716485D02*
X10810214Y-286645057D01*
X9976880Y-287716485D02*
X11643547Y-287716485D01*
X9976880Y-286645057D02*
X11643547Y-286645057D01*
X10810214Y-284859342D02*
X10929261Y-284502199D01*
X10929261Y-284502199D02*
X11167357Y-284383152D01*
X11167357Y-284383152D02*
X11286404Y-284383152D01*
X11286404Y-284383152D02*
X11524500Y-284502199D01*
X11524500Y-284502199D02*
X11643547Y-284740295D01*
X11643547Y-284740295D02*
X11643547Y-285454580D01*
X11643547Y-285454580D02*
X9976880Y-285454580D01*
X9976880Y-285454580D02*
X9976880Y-284859342D01*
X9976880Y-284859342D02*
X10095928Y-284621247D01*
X10095928Y-284621247D02*
X10334023Y-284502199D01*
X10334023Y-284502199D02*
X10453071Y-284502199D01*
X10453071Y-284502199D02*
X10691166Y-284621247D01*
X10691166Y-284621247D02*
X10810214Y-284859342D01*
X10810214Y-284859342D02*
X10810214Y-285454580D01*
X11405452Y-283311723D02*
X11524500Y-283192676D01*
X11524500Y-283192676D02*
X11643547Y-283311723D01*
X11643547Y-283311723D02*
X11524500Y-283430771D01*
X11524500Y-283430771D02*
X11405452Y-283311723D01*
X11405452Y-283311723D02*
X11643547Y-283311723D01*
X11643547Y-282121247D02*
X9143547Y-282121247D01*
X9143547Y-282121247D02*
X11643547Y-280692676D01*
X11643547Y-280692676D02*
X9143547Y-280692676D01*
X9143547Y-279145057D02*
X9262595Y-279383152D01*
X9262595Y-279383152D02*
X9500690Y-279502199D01*
X9500690Y-279502199D02*
X9738785Y-279383152D01*
X9738785Y-279383152D02*
X9857833Y-279145057D01*
X9857833Y-279145057D02*
X9738785Y-278906961D01*
X9738785Y-278906961D02*
X9500690Y-278787914D01*
X9500690Y-278787914D02*
X9262595Y-278906961D01*
X9262595Y-278906961D02*
X9143547Y-279145057D01*
X11643547Y-277597437D02*
X9976880Y-277597437D01*
X9976880Y-277597437D02*
X9976880Y-276526009D01*
X9976880Y-276526009D02*
X11643547Y-276526009D01*
X11643547Y-274978390D02*
X11524500Y-275216485D01*
X11524500Y-275216485D02*
X11405452Y-275335532D01*
X11405452Y-275335532D02*
X11167357Y-275454580D01*
X11167357Y-275454580D02*
X10453071Y-275454580D01*
X10453071Y-275454580D02*
X10214976Y-275335532D01*
X10214976Y-275335532D02*
X10095928Y-275216485D01*
X10095928Y-275216485D02*
X9976880Y-274978390D01*
X9976880Y-274978390D02*
X9976880Y-274621247D01*
X9976880Y-274621247D02*
X10095928Y-274383151D01*
X10095928Y-274383151D02*
X10214976Y-274264104D01*
X10214976Y-274264104D02*
X10453071Y-274145056D01*
X10453071Y-274145056D02*
X11167357Y-274145056D01*
X11167357Y-274145056D02*
X11405452Y-274264104D01*
X11405452Y-274264104D02*
X11524500Y-274383151D01*
X11524500Y-274383151D02*
X11643547Y-274621247D01*
X11643547Y-274621247D02*
X11643547Y-274978390D01*
X10214976Y-271883151D02*
X10095928Y-272002199D01*
X10095928Y-272002199D02*
X9976880Y-272240294D01*
X9976880Y-272240294D02*
X9976880Y-272716485D01*
X9976880Y-272716485D02*
X10095928Y-272954580D01*
X10095928Y-272954580D02*
X10214976Y-273073627D01*
X10214976Y-273073627D02*
X10453071Y-273192675D01*
X10453071Y-273192675D02*
X11167357Y-273192675D01*
X11167357Y-273192675D02*
X11405452Y-273073627D01*
X11405452Y-273073627D02*
X11524500Y-272954580D01*
X11524500Y-272954580D02*
X11643547Y-272716485D01*
X11643547Y-272716485D02*
X11643547Y-272359342D01*
X11643547Y-272359342D02*
X11524500Y-272121246D01*
X11524500Y-272121246D02*
X11405452Y-272002199D01*
X11405452Y-272002199D02*
X11167357Y-271883151D01*
X11167357Y-271883151D02*
X9619738Y-271883151D01*
X9619738Y-271883151D02*
X9381642Y-272002199D01*
X9381642Y-272002199D02*
X9262595Y-272121246D01*
X9262595Y-272121246D02*
X9143547Y-272359342D01*
X9143547Y-272359342D02*
X9143547Y-272835532D01*
X9143547Y-272835532D02*
X9262595Y-273073627D01*
X11643547Y-269859341D02*
X9976880Y-269859341D01*
X9976880Y-269859341D02*
X9976880Y-270216484D01*
X9976880Y-270216484D02*
X10095928Y-270454580D01*
X10095928Y-270454580D02*
X10334023Y-270573627D01*
X10334023Y-270573627D02*
X11286404Y-270692675D01*
X11286404Y-270692675D02*
X11524500Y-270811722D01*
X11524500Y-270811722D02*
X11643547Y-271049818D01*
X11405452Y-268668865D02*
X11524500Y-268549818D01*
X11524500Y-268549818D02*
X11643547Y-268668865D01*
X11643547Y-268668865D02*
X11524500Y-268787913D01*
X11524500Y-268787913D02*
X11405452Y-268668865D01*
X11405452Y-268668865D02*
X11643547Y-268668865D01*
D10*
D13*
X305748711Y-295645747D02*
X305748711Y-293145747D01*
X307177282Y-295645747D02*
X306105853Y-294217176D01*
X307177282Y-293145747D02*
X305748711Y-294574319D01*
X308605853Y-295645747D02*
X308367758Y-295526700D01*
X308367758Y-295526700D02*
X308248711Y-295407652D01*
X308248711Y-295407652D02*
X308129663Y-295169557D01*
X308129663Y-295169557D02*
X308129663Y-294455271D01*
X308129663Y-294455271D02*
X308248711Y-294217176D01*
X308248711Y-294217176D02*
X308367758Y-294098128D01*
X308367758Y-294098128D02*
X308605853Y-293979080D01*
X308605853Y-293979080D02*
X308962996Y-293979080D01*
X308962996Y-293979080D02*
X309201092Y-294098128D01*
X309201092Y-294098128D02*
X309320139Y-294217176D01*
X309320139Y-294217176D02*
X309439187Y-294455271D01*
X309439187Y-294455271D02*
X309439187Y-295169557D01*
X309439187Y-295169557D02*
X309320139Y-295407652D01*
X309320139Y-295407652D02*
X309201092Y-295526700D01*
X309201092Y-295526700D02*
X308962996Y-295645747D01*
X308962996Y-295645747D02*
X308605853Y-295645747D01*
X310510616Y-295645747D02*
X310510616Y-293979080D01*
X310510616Y-293979080D02*
X311582044Y-293979080D01*
X311582044Y-293979080D02*
X311582044Y-295645747D01*
X312772521Y-293979080D02*
X312772521Y-295645747D01*
X312772521Y-295645747D02*
X313962997Y-293979080D01*
X313962997Y-293979080D02*
X313962997Y-295645747D01*
X315153473Y-293979080D02*
X315153473Y-296479080D01*
X315153473Y-294098128D02*
X315391568Y-293979080D01*
X315391568Y-293979080D02*
X315867758Y-293979080D01*
X315867758Y-293979080D02*
X316105854Y-294098128D01*
X316105854Y-294098128D02*
X316224901Y-294217176D01*
X316224901Y-294217176D02*
X316343949Y-294455271D01*
X316343949Y-294455271D02*
X316343949Y-295169557D01*
X316343949Y-295169557D02*
X316224901Y-295407652D01*
X316224901Y-295407652D02*
X316105854Y-295526700D01*
X316105854Y-295526700D02*
X315867758Y-295645747D01*
X315867758Y-295645747D02*
X315391568Y-295645747D01*
X315391568Y-295645747D02*
X315153473Y-295526700D01*
X317772520Y-295645747D02*
X317534425Y-295526700D01*
X317534425Y-295526700D02*
X317415378Y-295407652D01*
X317415378Y-295407652D02*
X317296330Y-295169557D01*
X317296330Y-295169557D02*
X317296330Y-294455271D01*
X317296330Y-294455271D02*
X317415378Y-294217176D01*
X317415378Y-294217176D02*
X317534425Y-294098128D01*
X317534425Y-294098128D02*
X317772520Y-293979080D01*
X317772520Y-293979080D02*
X318129663Y-293979080D01*
X318129663Y-293979080D02*
X318367759Y-294098128D01*
X318367759Y-294098128D02*
X318486806Y-294217176D01*
X318486806Y-294217176D02*
X318605854Y-294455271D01*
X318605854Y-294455271D02*
X318605854Y-295169557D01*
X318605854Y-295169557D02*
X318486806Y-295407652D01*
X318486806Y-295407652D02*
X318367759Y-295526700D01*
X318367759Y-295526700D02*
X318129663Y-295645747D01*
X318129663Y-295645747D02*
X317772520Y-295645747D01*
X320272521Y-294812414D02*
X320629664Y-294931461D01*
X320629664Y-294931461D02*
X320748711Y-295169557D01*
X320748711Y-295169557D02*
X320748711Y-295288604D01*
X320748711Y-295288604D02*
X320629664Y-295526700D01*
X320629664Y-295526700D02*
X320391568Y-295645747D01*
X320391568Y-295645747D02*
X319677283Y-295645747D01*
X319677283Y-295645747D02*
X319677283Y-293979080D01*
X319677283Y-293979080D02*
X320272521Y-293979080D01*
X320272521Y-293979080D02*
X320510616Y-294098128D01*
X320510616Y-294098128D02*
X320629664Y-294336223D01*
X320629664Y-294336223D02*
X320629664Y-294455271D01*
X320629664Y-294455271D02*
X320510616Y-294693366D01*
X320510616Y-294693366D02*
X320272521Y-294812414D01*
X320272521Y-294812414D02*
X319677283Y-294812414D01*
X322891568Y-295645747D02*
X322891568Y-294336223D01*
X322891568Y-294336223D02*
X322772521Y-294098128D01*
X322772521Y-294098128D02*
X322534425Y-293979080D01*
X322534425Y-293979080D02*
X322058235Y-293979080D01*
X322058235Y-293979080D02*
X321820140Y-294098128D01*
X322891568Y-295526700D02*
X322653473Y-295645747D01*
X322653473Y-295645747D02*
X322058235Y-295645747D01*
X322058235Y-295645747D02*
X321820140Y-295526700D01*
X321820140Y-295526700D02*
X321701092Y-295288604D01*
X321701092Y-295288604D02*
X321701092Y-295050509D01*
X321701092Y-295050509D02*
X321820140Y-294812414D01*
X321820140Y-294812414D02*
X322058235Y-294693366D01*
X322058235Y-294693366D02*
X322653473Y-294693366D01*
X322653473Y-294693366D02*
X322891568Y-294574319D01*
X325034426Y-295645747D02*
X325034426Y-293979080D01*
X325034426Y-293979080D02*
X324677283Y-293979080D01*
X324677283Y-293979080D02*
X324439187Y-294098128D01*
X324439187Y-294098128D02*
X324320140Y-294336223D01*
X324320140Y-294336223D02*
X324201092Y-295288604D01*
X324201092Y-295288604D02*
X324082045Y-295526700D01*
X324082045Y-295526700D02*
X323843949Y-295645747D01*
D10*
D13*
X368177282Y-275645747D02*
X368177282Y-273145747D01*
X368177282Y-273145747D02*
X367820139Y-273145747D01*
X367820139Y-273145747D02*
X367462996Y-273264795D01*
X367462996Y-273264795D02*
X367224901Y-273502890D01*
X367224901Y-273502890D02*
X367105853Y-273860033D01*
X367105853Y-273860033D02*
X366867758Y-275288604D01*
X366867758Y-275288604D02*
X366748711Y-275526700D01*
X366748711Y-275526700D02*
X366510615Y-275645747D01*
X366510615Y-275645747D02*
X366391568Y-275645747D01*
X369367759Y-273979080D02*
X369367759Y-275645747D01*
X369367759Y-275645747D02*
X370558235Y-273979080D01*
X370558235Y-273979080D02*
X370558235Y-275645747D01*
X372820139Y-275526700D02*
X372582044Y-275645747D01*
X372582044Y-275645747D02*
X372105853Y-275645747D01*
X372105853Y-275645747D02*
X371867758Y-275526700D01*
X371867758Y-275526700D02*
X371748711Y-275407652D01*
X371748711Y-275407652D02*
X371629663Y-275169557D01*
X371629663Y-275169557D02*
X371629663Y-274455271D01*
X371629663Y-274455271D02*
X371748711Y-274217176D01*
X371748711Y-274217176D02*
X371867758Y-274098128D01*
X371867758Y-274098128D02*
X372105853Y-273979080D01*
X372105853Y-273979080D02*
X372582044Y-273979080D01*
X372582044Y-273979080D02*
X372820139Y-274098128D01*
X373534425Y-273979080D02*
X374724901Y-273979080D01*
X374129663Y-273979080D02*
X374129663Y-275645747D01*
D10*
D13*
X239608047Y-260645747D02*
X239608047Y-258145747D01*
X239608047Y-258145747D02*
X239250904Y-258145747D01*
X239250904Y-258145747D02*
X238893761Y-258264795D01*
X238893761Y-258264795D02*
X238655666Y-258502890D01*
X238655666Y-258502890D02*
X238536618Y-258860033D01*
X238536618Y-258860033D02*
X238298523Y-260288604D01*
X238298523Y-260288604D02*
X238179476Y-260526700D01*
X238179476Y-260526700D02*
X237941380Y-260645747D01*
X237941380Y-260645747D02*
X237822333Y-260645747D01*
X240798524Y-258979080D02*
X240798524Y-260645747D01*
X240798524Y-260645747D02*
X241989000Y-258979080D01*
X241989000Y-258979080D02*
X241989000Y-260645747D01*
X244250904Y-260526700D02*
X244012809Y-260645747D01*
X244012809Y-260645747D02*
X243536618Y-260645747D01*
X243536618Y-260645747D02*
X243298523Y-260526700D01*
X243298523Y-260526700D02*
X243179476Y-260407652D01*
X243179476Y-260407652D02*
X243060428Y-260169557D01*
X243060428Y-260169557D02*
X243060428Y-259455271D01*
X243060428Y-259455271D02*
X243179476Y-259217176D01*
X243179476Y-259217176D02*
X243298523Y-259098128D01*
X243298523Y-259098128D02*
X243536618Y-258979080D01*
X243536618Y-258979080D02*
X244012809Y-258979080D01*
X244012809Y-258979080D02*
X244250904Y-259098128D01*
X244965190Y-258979080D02*
X246155666Y-258979080D01*
X245560428Y-258979080D02*
X245560428Y-260645747D01*
D10*
D13*
X388177282Y-275645747D02*
X388177282Y-273145747D01*
X388177282Y-273145747D02*
X387820139Y-273145747D01*
X387820139Y-273145747D02*
X387462996Y-273264795D01*
X387462996Y-273264795D02*
X387224901Y-273502890D01*
X387224901Y-273502890D02*
X387105853Y-273860033D01*
X387105853Y-273860033D02*
X386867758Y-275288604D01*
X386867758Y-275288604D02*
X386748711Y-275526700D01*
X386748711Y-275526700D02*
X386510615Y-275645747D01*
X386510615Y-275645747D02*
X386391568Y-275645747D01*
X389367759Y-273979080D02*
X389367759Y-275645747D01*
X389367759Y-275645747D02*
X390558235Y-273979080D01*
X390558235Y-273979080D02*
X390558235Y-275645747D01*
X392820139Y-275526700D02*
X392582044Y-275645747D01*
X392582044Y-275645747D02*
X392105853Y-275645747D01*
X392105853Y-275645747D02*
X391867758Y-275526700D01*
X391867758Y-275526700D02*
X391748711Y-275407652D01*
X391748711Y-275407652D02*
X391629663Y-275169557D01*
X391629663Y-275169557D02*
X391629663Y-274455271D01*
X391629663Y-274455271D02*
X391748711Y-274217176D01*
X391748711Y-274217176D02*
X391867758Y-274098128D01*
X391867758Y-274098128D02*
X392105853Y-273979080D01*
X392105853Y-273979080D02*
X392582044Y-273979080D01*
X392582044Y-273979080D02*
X392820139Y-274098128D01*
X393534425Y-273979080D02*
X394724901Y-273979080D01*
X394129663Y-273979080D02*
X394129663Y-275645747D01*
X395915377Y-275645747D02*
X395677282Y-275526700D01*
X395677282Y-275526700D02*
X395558235Y-275407652D01*
X395558235Y-275407652D02*
X395439187Y-275169557D01*
X395439187Y-275169557D02*
X395439187Y-274455271D01*
X395439187Y-274455271D02*
X395558235Y-274217176D01*
X395558235Y-274217176D02*
X395677282Y-274098128D01*
X395677282Y-274098128D02*
X395915377Y-273979080D01*
X395915377Y-273979080D02*
X396272520Y-273979080D01*
X396272520Y-273979080D02*
X396510616Y-274098128D01*
X396510616Y-274098128D02*
X396629663Y-274217176D01*
X396629663Y-274217176D02*
X396748711Y-274455271D01*
X396748711Y-274455271D02*
X396748711Y-275169557D01*
X396748711Y-275169557D02*
X396629663Y-275407652D01*
X396629663Y-275407652D02*
X396510616Y-275526700D01*
X396510616Y-275526700D02*
X396272520Y-275645747D01*
X396272520Y-275645747D02*
X395915377Y-275645747D01*
X398415378Y-274812414D02*
X398772521Y-274931461D01*
X398772521Y-274931461D02*
X398891568Y-275169557D01*
X398891568Y-275169557D02*
X398891568Y-275288604D01*
X398891568Y-275288604D02*
X398772521Y-275526700D01*
X398772521Y-275526700D02*
X398534425Y-275645747D01*
X398534425Y-275645747D02*
X397820140Y-275645747D01*
X397820140Y-275645747D02*
X397820140Y-273979080D01*
X397820140Y-273979080D02*
X398415378Y-273979080D01*
X398415378Y-273979080D02*
X398653473Y-274098128D01*
X398653473Y-274098128D02*
X398772521Y-274336223D01*
X398772521Y-274336223D02*
X398772521Y-274455271D01*
X398772521Y-274455271D02*
X398653473Y-274693366D01*
X398653473Y-274693366D02*
X398415378Y-274812414D01*
X398415378Y-274812414D02*
X397820140Y-274812414D01*
D10*
D13*
X371084238Y-255645747D02*
X371084238Y-253145747D01*
X371084238Y-253145747D02*
X370727095Y-253145747D01*
X370727095Y-253145747D02*
X370369952Y-253264795D01*
X370369952Y-253264795D02*
X370131857Y-253502890D01*
X370131857Y-253502890D02*
X370012809Y-253860033D01*
X370012809Y-253860033D02*
X369774714Y-255288604D01*
X369774714Y-255288604D02*
X369655667Y-255526700D01*
X369655667Y-255526700D02*
X369417571Y-255645747D01*
X369417571Y-255645747D02*
X369298524Y-255645747D01*
X372274715Y-253979080D02*
X372274715Y-255645747D01*
X372274715Y-255645747D02*
X373465191Y-253979080D01*
X373465191Y-253979080D02*
X373465191Y-255645747D01*
X374298524Y-253979080D02*
X375489000Y-253979080D01*
X374893762Y-253979080D02*
X374893762Y-255645747D01*
X376322334Y-255407652D02*
X376441381Y-255526700D01*
X376441381Y-255526700D02*
X376322334Y-255645747D01*
X376322334Y-255645747D02*
X376203286Y-255526700D01*
X376203286Y-255526700D02*
X376322334Y-255407652D01*
X376322334Y-255407652D02*
X376322334Y-255645747D01*
D10*
D13*
X383250905Y-255645747D02*
X383250905Y-253145747D01*
X383250905Y-253145747D02*
X384084238Y-254931461D01*
X384084238Y-254931461D02*
X384917571Y-253145747D01*
X384917571Y-253145747D02*
X384917571Y-255645747D01*
X387179476Y-255645747D02*
X387179476Y-254336223D01*
X387179476Y-254336223D02*
X387060429Y-254098128D01*
X387060429Y-254098128D02*
X386822333Y-253979080D01*
X386822333Y-253979080D02*
X386346143Y-253979080D01*
X386346143Y-253979080D02*
X386108048Y-254098128D01*
X387179476Y-255526700D02*
X386941381Y-255645747D01*
X386941381Y-255645747D02*
X386346143Y-255645747D01*
X386346143Y-255645747D02*
X386108048Y-255526700D01*
X386108048Y-255526700D02*
X385989000Y-255288604D01*
X385989000Y-255288604D02*
X385989000Y-255050509D01*
X385989000Y-255050509D02*
X386108048Y-254812414D01*
X386108048Y-254812414D02*
X386346143Y-254693366D01*
X386346143Y-254693366D02*
X386941381Y-254693366D01*
X386941381Y-254693366D02*
X387179476Y-254574319D01*
X389441381Y-255526700D02*
X389203286Y-255645747D01*
X389203286Y-255645747D02*
X388727095Y-255645747D01*
X388727095Y-255645747D02*
X388489000Y-255526700D01*
X388489000Y-255526700D02*
X388369953Y-255407652D01*
X388369953Y-255407652D02*
X388250905Y-255169557D01*
X388250905Y-255169557D02*
X388250905Y-254455271D01*
X388250905Y-254455271D02*
X388369953Y-254217176D01*
X388369953Y-254217176D02*
X388489000Y-254098128D01*
X388489000Y-254098128D02*
X388727095Y-253979080D01*
X388727095Y-253979080D02*
X389203286Y-253979080D01*
X389203286Y-253979080D02*
X389441381Y-254098128D01*
X391584238Y-255526700D02*
X391346143Y-255645747D01*
X391346143Y-255645747D02*
X390869952Y-255645747D01*
X390869952Y-255645747D02*
X390631857Y-255526700D01*
X390631857Y-255526700D02*
X390512810Y-255407652D01*
X390512810Y-255407652D02*
X390393762Y-255169557D01*
X390393762Y-255169557D02*
X390393762Y-254455271D01*
X390393762Y-254455271D02*
X390512810Y-254217176D01*
X390512810Y-254217176D02*
X390631857Y-254098128D01*
X390631857Y-254098128D02*
X390869952Y-253979080D01*
X390869952Y-253979080D02*
X391346143Y-253979080D01*
X391346143Y-253979080D02*
X391584238Y-254098128D01*
X393727095Y-255645747D02*
X393727095Y-254336223D01*
X393727095Y-254336223D02*
X393608048Y-254098128D01*
X393608048Y-254098128D02*
X393369952Y-253979080D01*
X393369952Y-253979080D02*
X392893762Y-253979080D01*
X392893762Y-253979080D02*
X392655667Y-254098128D01*
X393727095Y-255526700D02*
X393489000Y-255645747D01*
X393489000Y-255645747D02*
X392893762Y-255645747D01*
X392893762Y-255645747D02*
X392655667Y-255526700D01*
X392655667Y-255526700D02*
X392536619Y-255288604D01*
X392536619Y-255288604D02*
X392536619Y-255050509D01*
X392536619Y-255050509D02*
X392655667Y-254812414D01*
X392655667Y-254812414D02*
X392893762Y-254693366D01*
X392893762Y-254693366D02*
X393489000Y-254693366D01*
X393489000Y-254693366D02*
X393727095Y-254574319D01*
D10*
D13*
X398429476Y-255645747D02*
X398429476Y-253145747D01*
X398429476Y-253145747D02*
X399262809Y-254931461D01*
X399262809Y-254931461D02*
X400096142Y-253145747D01*
X400096142Y-253145747D02*
X400096142Y-255645747D01*
X402358047Y-255645747D02*
X402358047Y-254336223D01*
X402358047Y-254336223D02*
X402239000Y-254098128D01*
X402239000Y-254098128D02*
X402000904Y-253979080D01*
X402000904Y-253979080D02*
X401524714Y-253979080D01*
X401524714Y-253979080D02*
X401286619Y-254098128D01*
X402358047Y-255526700D02*
X402119952Y-255645747D01*
X402119952Y-255645747D02*
X401524714Y-255645747D01*
X401524714Y-255645747D02*
X401286619Y-255526700D01*
X401286619Y-255526700D02*
X401167571Y-255288604D01*
X401167571Y-255288604D02*
X401167571Y-255050509D01*
X401167571Y-255050509D02*
X401286619Y-254812414D01*
X401286619Y-254812414D02*
X401524714Y-254693366D01*
X401524714Y-254693366D02*
X402119952Y-254693366D01*
X402119952Y-254693366D02*
X402358047Y-254574319D01*
X404619952Y-255526700D02*
X404381857Y-255645747D01*
X404381857Y-255645747D02*
X403905666Y-255645747D01*
X403905666Y-255645747D02*
X403667571Y-255526700D01*
X403667571Y-255526700D02*
X403548524Y-255407652D01*
X403548524Y-255407652D02*
X403429476Y-255169557D01*
X403429476Y-255169557D02*
X403429476Y-254455271D01*
X403429476Y-254455271D02*
X403548524Y-254217176D01*
X403548524Y-254217176D02*
X403667571Y-254098128D01*
X403667571Y-254098128D02*
X403905666Y-253979080D01*
X403905666Y-253979080D02*
X404381857Y-253979080D01*
X404381857Y-253979080D02*
X404619952Y-254098128D01*
X406524714Y-253979080D02*
X406524714Y-255645747D01*
X405691381Y-253979080D02*
X405691381Y-255645747D01*
X405691381Y-255645747D02*
X407358047Y-255645747D01*
X407358047Y-255645747D02*
X407358047Y-253979080D01*
X408191381Y-253979080D02*
X409381857Y-253979080D01*
X408786619Y-253979080D02*
X408786619Y-255645747D01*
X411286619Y-255645747D02*
X411286619Y-254336223D01*
X411286619Y-254336223D02*
X411167572Y-254098128D01*
X411167572Y-254098128D02*
X410929476Y-253979080D01*
X410929476Y-253979080D02*
X410453286Y-253979080D01*
X410453286Y-253979080D02*
X410215191Y-254098128D01*
X411286619Y-255526700D02*
X411048524Y-255645747D01*
X411048524Y-255645747D02*
X410453286Y-255645747D01*
X410453286Y-255645747D02*
X410215191Y-255526700D01*
X410215191Y-255526700D02*
X410096143Y-255288604D01*
X410096143Y-255288604D02*
X410096143Y-255050509D01*
X410096143Y-255050509D02*
X410215191Y-254812414D01*
X410215191Y-254812414D02*
X410453286Y-254693366D01*
X410453286Y-254693366D02*
X411048524Y-254693366D01*
X411048524Y-254693366D02*
X411286619Y-254574319D01*
X413667572Y-253026700D02*
X413548524Y-253145747D01*
X413548524Y-253145747D02*
X413310429Y-253264795D01*
X413310429Y-253264795D02*
X412834238Y-253264795D01*
X412834238Y-253264795D02*
X412596143Y-253383842D01*
X412596143Y-253383842D02*
X412477096Y-253502890D01*
X412477096Y-253502890D02*
X412358048Y-253740985D01*
X412358048Y-253740985D02*
X412358048Y-255169557D01*
X412358048Y-255169557D02*
X412477096Y-255407652D01*
X412477096Y-255407652D02*
X412596143Y-255526700D01*
X412596143Y-255526700D02*
X412834238Y-255645747D01*
X412834238Y-255645747D02*
X413191381Y-255645747D01*
X413191381Y-255645747D02*
X413429477Y-255526700D01*
X413429477Y-255526700D02*
X413548524Y-255407652D01*
X413548524Y-255407652D02*
X413667572Y-255169557D01*
X413667572Y-255169557D02*
X413667572Y-254455271D01*
X413667572Y-254455271D02*
X413548524Y-254217176D01*
X413548524Y-254217176D02*
X413429477Y-254098128D01*
X413429477Y-254098128D02*
X413191381Y-253979080D01*
X413191381Y-253979080D02*
X412715191Y-253979080D01*
X412715191Y-253979080D02*
X412477096Y-254098128D01*
X412477096Y-254098128D02*
X412358048Y-254217176D01*
D10*
D13*
X231248711Y-285645747D02*
X231248711Y-283145747D01*
X231248711Y-284336223D02*
X232677282Y-284336223D01*
X232677282Y-285645747D02*
X232677282Y-283145747D01*
X233867759Y-285407652D02*
X233986806Y-285526700D01*
X233986806Y-285526700D02*
X233867759Y-285645747D01*
X233867759Y-285645747D02*
X233748711Y-285526700D01*
X233748711Y-285526700D02*
X233867759Y-285407652D01*
X233867759Y-285407652D02*
X233867759Y-285645747D01*
X235058235Y-283979080D02*
X235058235Y-285645747D01*
X235296330Y-284693366D02*
X236010616Y-285645747D01*
X236010616Y-283979080D02*
X235058235Y-284931461D01*
X237439187Y-285645747D02*
X237201092Y-285526700D01*
X237201092Y-285526700D02*
X237082045Y-285407652D01*
X237082045Y-285407652D02*
X236962997Y-285169557D01*
X236962997Y-285169557D02*
X236962997Y-284455271D01*
X236962997Y-284455271D02*
X237082045Y-284217176D01*
X237082045Y-284217176D02*
X237201092Y-284098128D01*
X237201092Y-284098128D02*
X237439187Y-283979080D01*
X237439187Y-283979080D02*
X237796330Y-283979080D01*
X237796330Y-283979080D02*
X238034426Y-284098128D01*
X238034426Y-284098128D02*
X238153473Y-284217176D01*
X238153473Y-284217176D02*
X238272521Y-284455271D01*
X238272521Y-284455271D02*
X238272521Y-285169557D01*
X238272521Y-285169557D02*
X238153473Y-285407652D01*
X238153473Y-285407652D02*
X238034426Y-285526700D01*
X238034426Y-285526700D02*
X237796330Y-285645747D01*
X237796330Y-285645747D02*
X237439187Y-285645747D01*
X239343950Y-284812414D02*
X240415378Y-284812414D01*
X239343950Y-283979080D02*
X239343950Y-285645747D01*
X240415378Y-283979080D02*
X240415378Y-285645747D01*
X241248712Y-283979080D02*
X242439188Y-283979080D01*
X241843950Y-283979080D02*
X241843950Y-285645747D01*
X243272522Y-283979080D02*
X243272522Y-286479080D01*
X243272522Y-284098128D02*
X243510617Y-283979080D01*
X243510617Y-283979080D02*
X243986807Y-283979080D01*
X243986807Y-283979080D02*
X244224903Y-284098128D01*
X244224903Y-284098128D02*
X244343950Y-284217176D01*
X244343950Y-284217176D02*
X244462998Y-284455271D01*
X244462998Y-284455271D02*
X244462998Y-285169557D01*
X244462998Y-285169557D02*
X244343950Y-285407652D01*
X244343950Y-285407652D02*
X244224903Y-285526700D01*
X244224903Y-285526700D02*
X243986807Y-285645747D01*
X243986807Y-285645747D02*
X243510617Y-285645747D01*
X243510617Y-285645747D02*
X243272522Y-285526700D01*
X245534427Y-285407652D02*
X245653474Y-285526700D01*
X245653474Y-285526700D02*
X245534427Y-285645747D01*
X245534427Y-285645747D02*
X245415379Y-285526700D01*
X245415379Y-285526700D02*
X245534427Y-285407652D01*
X245534427Y-285407652D02*
X245534427Y-285645747D01*
D10*
D13*
X11643547Y-48097437D02*
X9143547Y-48097437D01*
X9143547Y-48097437D02*
X9143547Y-46668866D01*
X9143547Y-46668866D02*
X11643547Y-46668866D01*
X11524500Y-44526008D02*
X11643547Y-44764104D01*
X11643547Y-44764104D02*
X11643547Y-45240294D01*
X11643547Y-45240294D02*
X11524500Y-45478389D01*
X11524500Y-45478389D02*
X11286404Y-45597437D01*
X11286404Y-45597437D02*
X10334023Y-45597437D01*
X10334023Y-45597437D02*
X10095928Y-45478389D01*
X10095928Y-45478389D02*
X9976880Y-45240294D01*
X9976880Y-45240294D02*
X9976880Y-44764104D01*
X9976880Y-44764104D02*
X10095928Y-44526008D01*
X10095928Y-44526008D02*
X10334023Y-44406961D01*
X10334023Y-44406961D02*
X10572119Y-44406961D01*
X10572119Y-44406961D02*
X10810214Y-45597437D01*
X9976880Y-43335532D02*
X12476880Y-43335532D01*
X10095928Y-43335532D02*
X9976880Y-43097437D01*
X9976880Y-43097437D02*
X9976880Y-42621247D01*
X9976880Y-42621247D02*
X10095928Y-42383151D01*
X10095928Y-42383151D02*
X10214976Y-42264104D01*
X10214976Y-42264104D02*
X10453071Y-42145056D01*
X10453071Y-42145056D02*
X11167357Y-42145056D01*
X11167357Y-42145056D02*
X11405452Y-42264104D01*
X11405452Y-42264104D02*
X11524500Y-42383151D01*
X11524500Y-42383151D02*
X11643547Y-42621247D01*
X11643547Y-42621247D02*
X11643547Y-43097437D01*
X11643547Y-43097437D02*
X11524500Y-43335532D01*
X10810214Y-40478389D02*
X10929261Y-40121246D01*
X10929261Y-40121246D02*
X11167357Y-40002199D01*
X11167357Y-40002199D02*
X11286404Y-40002199D01*
X11286404Y-40002199D02*
X11524500Y-40121246D01*
X11524500Y-40121246D02*
X11643547Y-40359342D01*
X11643547Y-40359342D02*
X11643547Y-41073627D01*
X11643547Y-41073627D02*
X9976880Y-41073627D01*
X9976880Y-41073627D02*
X9976880Y-40478389D01*
X9976880Y-40478389D02*
X10095928Y-40240294D01*
X10095928Y-40240294D02*
X10334023Y-40121246D01*
X10334023Y-40121246D02*
X10453071Y-40121246D01*
X10453071Y-40121246D02*
X10691166Y-40240294D01*
X10691166Y-40240294D02*
X10810214Y-40478389D01*
X10810214Y-40478389D02*
X10810214Y-41073627D01*
X11405452Y-38930770D02*
X11524500Y-38811723D01*
X11524500Y-38811723D02*
X11643547Y-38930770D01*
X11643547Y-38930770D02*
X11524500Y-39049818D01*
X11524500Y-39049818D02*
X11405452Y-38930770D01*
X11405452Y-38930770D02*
X11643547Y-38930770D01*
X11643547Y-35835532D02*
X9976880Y-35835532D01*
X9976880Y-35835532D02*
X9976880Y-34764104D01*
X9976880Y-34764104D02*
X11643547Y-34764104D01*
X9976880Y-33573627D02*
X12476880Y-33573627D01*
X10095928Y-33573627D02*
X9976880Y-33335532D01*
X9976880Y-33335532D02*
X9976880Y-32859342D01*
X9976880Y-32859342D02*
X10095928Y-32621246D01*
X10095928Y-32621246D02*
X10214976Y-32502199D01*
X10214976Y-32502199D02*
X10453071Y-32383151D01*
X10453071Y-32383151D02*
X11167357Y-32383151D01*
X11167357Y-32383151D02*
X11405452Y-32502199D01*
X11405452Y-32502199D02*
X11524500Y-32621246D01*
X11524500Y-32621246D02*
X11643547Y-32859342D01*
X11643547Y-32859342D02*
X11643547Y-33335532D01*
X11643547Y-33335532D02*
X11524500Y-33573627D01*
X9976880Y-31311722D02*
X11643547Y-31311722D01*
X11643547Y-31311722D02*
X9976880Y-30121246D01*
X9976880Y-30121246D02*
X11643547Y-30121246D01*
X11643547Y-28930770D02*
X9976880Y-28930770D01*
X9976880Y-28930770D02*
X11286404Y-28216485D01*
X11286404Y-28216485D02*
X9976880Y-27502199D01*
X9976880Y-27502199D02*
X11643547Y-27502199D01*
X11524500Y-25359341D02*
X11643547Y-25597437D01*
X11643547Y-25597437D02*
X11643547Y-26073627D01*
X11643547Y-26073627D02*
X11524500Y-26311722D01*
X11524500Y-26311722D02*
X11286404Y-26430770D01*
X11286404Y-26430770D02*
X10334023Y-26430770D01*
X10334023Y-26430770D02*
X10095928Y-26311722D01*
X10095928Y-26311722D02*
X9976880Y-26073627D01*
X9976880Y-26073627D02*
X9976880Y-25597437D01*
X9976880Y-25597437D02*
X10095928Y-25359341D01*
X10095928Y-25359341D02*
X10334023Y-25240294D01*
X10334023Y-25240294D02*
X10572119Y-25240294D01*
X10572119Y-25240294D02*
X10810214Y-26430770D01*
X10810214Y-24168865D02*
X10810214Y-23097437D01*
X9976880Y-24168865D02*
X11643547Y-24168865D01*
X9976880Y-23097437D02*
X11643547Y-23097437D01*
X11405452Y-21906960D02*
X11524500Y-21787913D01*
X11524500Y-21787913D02*
X11643547Y-21906960D01*
X11643547Y-21906960D02*
X11524500Y-22026008D01*
X11524500Y-22026008D02*
X11405452Y-21906960D01*
X11405452Y-21906960D02*
X11643547Y-21906960D01*
D10*
D13*
X11643547Y-261526009D02*
X9143547Y-261526009D01*
X9143547Y-261526009D02*
X9143547Y-260097438D01*
X9143547Y-260097438D02*
X11643547Y-260097438D01*
X11643547Y-258549819D02*
X11524500Y-258787914D01*
X11524500Y-258787914D02*
X11405452Y-258906961D01*
X11405452Y-258906961D02*
X11167357Y-259026009D01*
X11167357Y-259026009D02*
X10453071Y-259026009D01*
X10453071Y-259026009D02*
X10214976Y-258906961D01*
X10214976Y-258906961D02*
X10095928Y-258787914D01*
X10095928Y-258787914D02*
X9976880Y-258549819D01*
X9976880Y-258549819D02*
X9976880Y-258192676D01*
X9976880Y-258192676D02*
X10095928Y-257954580D01*
X10095928Y-257954580D02*
X10214976Y-257835533D01*
X10214976Y-257835533D02*
X10453071Y-257716485D01*
X10453071Y-257716485D02*
X11167357Y-257716485D01*
X11167357Y-257716485D02*
X11405452Y-257835533D01*
X11405452Y-257835533D02*
X11524500Y-257954580D01*
X11524500Y-257954580D02*
X11643547Y-258192676D01*
X11643547Y-258192676D02*
X11643547Y-258549819D01*
X10214976Y-255454580D02*
X10095928Y-255573628D01*
X10095928Y-255573628D02*
X9976880Y-255811723D01*
X9976880Y-255811723D02*
X9976880Y-256287914D01*
X9976880Y-256287914D02*
X10095928Y-256526009D01*
X10095928Y-256526009D02*
X10214976Y-256645056D01*
X10214976Y-256645056D02*
X10453071Y-256764104D01*
X10453071Y-256764104D02*
X11167357Y-256764104D01*
X11167357Y-256764104D02*
X11405452Y-256645056D01*
X11405452Y-256645056D02*
X11524500Y-256526009D01*
X11524500Y-256526009D02*
X11643547Y-256287914D01*
X11643547Y-256287914D02*
X11643547Y-255930771D01*
X11643547Y-255930771D02*
X11524500Y-255692675D01*
X11524500Y-255692675D02*
X11405452Y-255573628D01*
X11405452Y-255573628D02*
X11167357Y-255454580D01*
X11167357Y-255454580D02*
X9619738Y-255454580D01*
X9619738Y-255454580D02*
X9381642Y-255573628D01*
X9381642Y-255573628D02*
X9262595Y-255692675D01*
X9262595Y-255692675D02*
X9143547Y-255930771D01*
X9143547Y-255930771D02*
X9143547Y-256406961D01*
X9143547Y-256406961D02*
X9262595Y-256645056D01*
X11643547Y-254383151D02*
X9976880Y-254383151D01*
X9976880Y-254383151D02*
X9976880Y-253311723D01*
X9976880Y-253311723D02*
X11643547Y-253311723D01*
X11405452Y-252121246D02*
X11524500Y-252002199D01*
X11524500Y-252002199D02*
X11643547Y-252121246D01*
X11643547Y-252121246D02*
X11524500Y-252240294D01*
X11524500Y-252240294D02*
X11405452Y-252121246D01*
X11405452Y-252121246D02*
X11643547Y-252121246D01*
X9976880Y-249026008D02*
X11643547Y-249026008D01*
X11643547Y-249026008D02*
X9976880Y-247835532D01*
X9976880Y-247835532D02*
X11643547Y-247835532D01*
X10214976Y-243549818D02*
X10095928Y-243668866D01*
X10095928Y-243668866D02*
X9976880Y-243906961D01*
X9976880Y-243906961D02*
X9976880Y-244383152D01*
X9976880Y-244383152D02*
X10095928Y-244621247D01*
X10095928Y-244621247D02*
X10214976Y-244740294D01*
X10214976Y-244740294D02*
X10453071Y-244859342D01*
X10453071Y-244859342D02*
X11167357Y-244859342D01*
X11167357Y-244859342D02*
X11405452Y-244740294D01*
X11405452Y-244740294D02*
X11524500Y-244621247D01*
X11524500Y-244621247D02*
X11643547Y-244383152D01*
X11643547Y-244383152D02*
X11643547Y-244026009D01*
X11643547Y-244026009D02*
X11524500Y-243787913D01*
X11524500Y-243787913D02*
X11405452Y-243668866D01*
X11405452Y-243668866D02*
X11167357Y-243549818D01*
X11167357Y-243549818D02*
X9619738Y-243549818D01*
X9619738Y-243549818D02*
X9381642Y-243668866D01*
X9381642Y-243668866D02*
X9262595Y-243787913D01*
X9262595Y-243787913D02*
X9143547Y-244026009D01*
X9143547Y-244026009D02*
X9143547Y-244502199D01*
X9143547Y-244502199D02*
X9262595Y-244740294D01*
X11643547Y-241406961D02*
X10334023Y-241406961D01*
X10334023Y-241406961D02*
X10095928Y-241526008D01*
X10095928Y-241526008D02*
X9976880Y-241764104D01*
X9976880Y-241764104D02*
X9976880Y-242240294D01*
X9976880Y-242240294D02*
X10095928Y-242478389D01*
X11524500Y-241406961D02*
X11643547Y-241645056D01*
X11643547Y-241645056D02*
X11643547Y-242240294D01*
X11643547Y-242240294D02*
X11524500Y-242478389D01*
X11524500Y-242478389D02*
X11286404Y-242597437D01*
X11286404Y-242597437D02*
X11048309Y-242597437D01*
X11048309Y-242597437D02*
X10810214Y-242478389D01*
X10810214Y-242478389D02*
X10691166Y-242240294D01*
X10691166Y-242240294D02*
X10691166Y-241645056D01*
X10691166Y-241645056D02*
X10572119Y-241406961D01*
X9976880Y-240573627D02*
X9976880Y-239383151D01*
X9976880Y-239978389D02*
X11643547Y-239978389D01*
X11643547Y-237478389D02*
X10334023Y-237478389D01*
X10334023Y-237478389D02*
X10095928Y-237597436D01*
X10095928Y-237597436D02*
X9976880Y-237835532D01*
X9976880Y-237835532D02*
X9976880Y-238311722D01*
X9976880Y-238311722D02*
X10095928Y-238549817D01*
X11524500Y-237478389D02*
X11643547Y-237716484D01*
X11643547Y-237716484D02*
X11643547Y-238311722D01*
X11643547Y-238311722D02*
X11524500Y-238549817D01*
X11524500Y-238549817D02*
X11286404Y-238668865D01*
X11286404Y-238668865D02*
X11048309Y-238668865D01*
X11048309Y-238668865D02*
X10810214Y-238549817D01*
X10810214Y-238549817D02*
X10691166Y-238311722D01*
X10691166Y-238311722D02*
X10691166Y-237716484D01*
X10691166Y-237716484D02*
X10572119Y-237478389D01*
D10*
D13*
X11643547Y-176526009D02*
X9143547Y-176526009D01*
X9143547Y-176526009D02*
X9143547Y-175097438D01*
X9143547Y-175097438D02*
X11643547Y-175097438D01*
X11643547Y-173549819D02*
X11524500Y-173787914D01*
X11524500Y-173787914D02*
X11405452Y-173906961D01*
X11405452Y-173906961D02*
X11167357Y-174026009D01*
X11167357Y-174026009D02*
X10453071Y-174026009D01*
X10453071Y-174026009D02*
X10214976Y-173906961D01*
X10214976Y-173906961D02*
X10095928Y-173787914D01*
X10095928Y-173787914D02*
X9976880Y-173549819D01*
X9976880Y-173549819D02*
X9976880Y-173192676D01*
X9976880Y-173192676D02*
X10095928Y-172954580D01*
X10095928Y-172954580D02*
X10214976Y-172835533D01*
X10214976Y-172835533D02*
X10453071Y-172716485D01*
X10453071Y-172716485D02*
X11167357Y-172716485D01*
X11167357Y-172716485D02*
X11405452Y-172835533D01*
X11405452Y-172835533D02*
X11524500Y-172954580D01*
X11524500Y-172954580D02*
X11643547Y-173192676D01*
X11643547Y-173192676D02*
X11643547Y-173549819D01*
X10214976Y-170454580D02*
X10095928Y-170573628D01*
X10095928Y-170573628D02*
X9976880Y-170811723D01*
X9976880Y-170811723D02*
X9976880Y-171287914D01*
X9976880Y-171287914D02*
X10095928Y-171526009D01*
X10095928Y-171526009D02*
X10214976Y-171645056D01*
X10214976Y-171645056D02*
X10453071Y-171764104D01*
X10453071Y-171764104D02*
X11167357Y-171764104D01*
X11167357Y-171764104D02*
X11405452Y-171645056D01*
X11405452Y-171645056D02*
X11524500Y-171526009D01*
X11524500Y-171526009D02*
X11643547Y-171287914D01*
X11643547Y-171287914D02*
X11643547Y-170930771D01*
X11643547Y-170930771D02*
X11524500Y-170692675D01*
X11524500Y-170692675D02*
X11405452Y-170573628D01*
X11405452Y-170573628D02*
X11167357Y-170454580D01*
X11167357Y-170454580D02*
X9619738Y-170454580D01*
X9619738Y-170454580D02*
X9381642Y-170573628D01*
X9381642Y-170573628D02*
X9262595Y-170692675D01*
X9262595Y-170692675D02*
X9143547Y-170930771D01*
X9143547Y-170930771D02*
X9143547Y-171406961D01*
X9143547Y-171406961D02*
X9262595Y-171645056D01*
X11643547Y-169383151D02*
X9976880Y-169383151D01*
X9976880Y-169383151D02*
X9976880Y-168311723D01*
X9976880Y-168311723D02*
X11643547Y-168311723D01*
X11405452Y-167121246D02*
X11524500Y-167002199D01*
X11524500Y-167002199D02*
X11643547Y-167121246D01*
X11643547Y-167121246D02*
X11524500Y-167240294D01*
X11524500Y-167240294D02*
X11405452Y-167121246D01*
X11405452Y-167121246D02*
X11643547Y-167121246D01*
X9976880Y-164026008D02*
X11643547Y-164026008D01*
X11643547Y-164026008D02*
X9976880Y-162835532D01*
X9976880Y-162835532D02*
X11643547Y-162835532D01*
X10214976Y-158549818D02*
X10095928Y-158668866D01*
X10095928Y-158668866D02*
X9976880Y-158906961D01*
X9976880Y-158906961D02*
X9976880Y-159383152D01*
X9976880Y-159383152D02*
X10095928Y-159621247D01*
X10095928Y-159621247D02*
X10214976Y-159740294D01*
X10214976Y-159740294D02*
X10453071Y-159859342D01*
X10453071Y-159859342D02*
X11167357Y-159859342D01*
X11167357Y-159859342D02*
X11405452Y-159740294D01*
X11405452Y-159740294D02*
X11524500Y-159621247D01*
X11524500Y-159621247D02*
X11643547Y-159383152D01*
X11643547Y-159383152D02*
X11643547Y-159026009D01*
X11643547Y-159026009D02*
X11524500Y-158787913D01*
X11524500Y-158787913D02*
X11405452Y-158668866D01*
X11405452Y-158668866D02*
X11167357Y-158549818D01*
X11167357Y-158549818D02*
X9619738Y-158549818D01*
X9619738Y-158549818D02*
X9381642Y-158668866D01*
X9381642Y-158668866D02*
X9262595Y-158787913D01*
X9262595Y-158787913D02*
X9143547Y-159026009D01*
X9143547Y-159026009D02*
X9143547Y-159502199D01*
X9143547Y-159502199D02*
X9262595Y-159740294D01*
X11643547Y-156406961D02*
X10334023Y-156406961D01*
X10334023Y-156406961D02*
X10095928Y-156526008D01*
X10095928Y-156526008D02*
X9976880Y-156764104D01*
X9976880Y-156764104D02*
X9976880Y-157240294D01*
X9976880Y-157240294D02*
X10095928Y-157478389D01*
X11524500Y-156406961D02*
X11643547Y-156645056D01*
X11643547Y-156645056D02*
X11643547Y-157240294D01*
X11643547Y-157240294D02*
X11524500Y-157478389D01*
X11524500Y-157478389D02*
X11286404Y-157597437D01*
X11286404Y-157597437D02*
X11048309Y-157597437D01*
X11048309Y-157597437D02*
X10810214Y-157478389D01*
X10810214Y-157478389D02*
X10691166Y-157240294D01*
X10691166Y-157240294D02*
X10691166Y-156645056D01*
X10691166Y-156645056D02*
X10572119Y-156406961D01*
X9976880Y-155573627D02*
X9976880Y-154383151D01*
X9976880Y-154978389D02*
X11643547Y-154978389D01*
X11643547Y-152478389D02*
X10334023Y-152478389D01*
X10334023Y-152478389D02*
X10095928Y-152597436D01*
X10095928Y-152597436D02*
X9976880Y-152835532D01*
X9976880Y-152835532D02*
X9976880Y-153311722D01*
X9976880Y-153311722D02*
X10095928Y-153549817D01*
X11524500Y-152478389D02*
X11643547Y-152716484D01*
X11643547Y-152716484D02*
X11643547Y-153311722D01*
X11643547Y-153311722D02*
X11524500Y-153549817D01*
X11524500Y-153549817D02*
X11286404Y-153668865D01*
X11286404Y-153668865D02*
X11048309Y-153668865D01*
X11048309Y-153668865D02*
X10810214Y-153549817D01*
X10810214Y-153549817D02*
X10691166Y-153311722D01*
X10691166Y-153311722D02*
X10691166Y-152716484D01*
X10691166Y-152716484D02*
X10572119Y-152478389D01*
D10*
D13*
X273286619Y-260645747D02*
X273286619Y-258145747D01*
X273286619Y-258145747D02*
X274715190Y-258145747D01*
X274715190Y-258145747D02*
X274715190Y-260645747D01*
X276262809Y-260645747D02*
X276024714Y-260526700D01*
X276024714Y-260526700D02*
X275905667Y-260407652D01*
X275905667Y-260407652D02*
X275786619Y-260169557D01*
X275786619Y-260169557D02*
X275786619Y-259455271D01*
X275786619Y-259455271D02*
X275905667Y-259217176D01*
X275905667Y-259217176D02*
X276024714Y-259098128D01*
X276024714Y-259098128D02*
X276262809Y-258979080D01*
X276262809Y-258979080D02*
X276619952Y-258979080D01*
X276619952Y-258979080D02*
X276858048Y-259098128D01*
X276858048Y-259098128D02*
X276977095Y-259217176D01*
X276977095Y-259217176D02*
X277096143Y-259455271D01*
X277096143Y-259455271D02*
X277096143Y-260169557D01*
X277096143Y-260169557D02*
X276977095Y-260407652D01*
X276977095Y-260407652D02*
X276858048Y-260526700D01*
X276858048Y-260526700D02*
X276619952Y-260645747D01*
X276619952Y-260645747D02*
X276262809Y-260645747D01*
X279358048Y-259217176D02*
X279239000Y-259098128D01*
X279239000Y-259098128D02*
X279000905Y-258979080D01*
X279000905Y-258979080D02*
X278524714Y-258979080D01*
X278524714Y-258979080D02*
X278286619Y-259098128D01*
X278286619Y-259098128D02*
X278167572Y-259217176D01*
X278167572Y-259217176D02*
X278048524Y-259455271D01*
X278048524Y-259455271D02*
X278048524Y-260169557D01*
X278048524Y-260169557D02*
X278167572Y-260407652D01*
X278167572Y-260407652D02*
X278286619Y-260526700D01*
X278286619Y-260526700D02*
X278524714Y-260645747D01*
X278524714Y-260645747D02*
X278881857Y-260645747D01*
X278881857Y-260645747D02*
X279119953Y-260526700D01*
X279119953Y-260526700D02*
X279239000Y-260407652D01*
X279239000Y-260407652D02*
X279358048Y-260169557D01*
X279358048Y-260169557D02*
X279358048Y-258621938D01*
X279358048Y-258621938D02*
X279239000Y-258383842D01*
X279239000Y-258383842D02*
X279119953Y-258264795D01*
X279119953Y-258264795D02*
X278881857Y-258145747D01*
X278881857Y-258145747D02*
X278405667Y-258145747D01*
X278405667Y-258145747D02*
X278167572Y-258264795D01*
X280429477Y-260645747D02*
X280429477Y-258979080D01*
X280429477Y-258979080D02*
X281500905Y-258979080D01*
X281500905Y-258979080D02*
X281500905Y-260645747D01*
X282691382Y-260407652D02*
X282810429Y-260526700D01*
X282810429Y-260526700D02*
X282691382Y-260645747D01*
X282691382Y-260645747D02*
X282572334Y-260526700D01*
X282572334Y-260526700D02*
X282691382Y-260407652D01*
X282691382Y-260407652D02*
X282691382Y-260645747D01*
D10*
D13*
X231248711Y-270645747D02*
X231248711Y-268145747D01*
X231248711Y-268145747D02*
X232677282Y-268145747D01*
X232677282Y-268145747D02*
X232677282Y-270645747D01*
X233867759Y-268979080D02*
X233867759Y-271479080D01*
X233867759Y-269098128D02*
X234105854Y-268979080D01*
X234105854Y-268979080D02*
X234582044Y-268979080D01*
X234582044Y-268979080D02*
X234820140Y-269098128D01*
X234820140Y-269098128D02*
X234939187Y-269217176D01*
X234939187Y-269217176D02*
X235058235Y-269455271D01*
X235058235Y-269455271D02*
X235058235Y-270169557D01*
X235058235Y-270169557D02*
X234939187Y-270407652D01*
X234939187Y-270407652D02*
X234820140Y-270526700D01*
X234820140Y-270526700D02*
X234582044Y-270645747D01*
X234582044Y-270645747D02*
X234105854Y-270645747D01*
X234105854Y-270645747D02*
X233867759Y-270526700D01*
X236486806Y-270645747D02*
X236248711Y-270526700D01*
X236248711Y-270526700D02*
X236129664Y-270407652D01*
X236129664Y-270407652D02*
X236010616Y-270169557D01*
X236010616Y-270169557D02*
X236010616Y-269455271D01*
X236010616Y-269455271D02*
X236129664Y-269217176D01*
X236129664Y-269217176D02*
X236248711Y-269098128D01*
X236248711Y-269098128D02*
X236486806Y-268979080D01*
X236486806Y-268979080D02*
X236843949Y-268979080D01*
X236843949Y-268979080D02*
X237082045Y-269098128D01*
X237082045Y-269098128D02*
X237201092Y-269217176D01*
X237201092Y-269217176D02*
X237320140Y-269455271D01*
X237320140Y-269455271D02*
X237320140Y-270169557D01*
X237320140Y-270169557D02*
X237201092Y-270407652D01*
X237201092Y-270407652D02*
X237082045Y-270526700D01*
X237082045Y-270526700D02*
X236843949Y-270645747D01*
X236843949Y-270645747D02*
X236486806Y-270645747D01*
X238986807Y-269812414D02*
X239343950Y-269931461D01*
X239343950Y-269931461D02*
X239462997Y-270169557D01*
X239462997Y-270169557D02*
X239462997Y-270288604D01*
X239462997Y-270288604D02*
X239343950Y-270526700D01*
X239343950Y-270526700D02*
X239105854Y-270645747D01*
X239105854Y-270645747D02*
X238391569Y-270645747D01*
X238391569Y-270645747D02*
X238391569Y-268979080D01*
X238391569Y-268979080D02*
X238986807Y-268979080D01*
X238986807Y-268979080D02*
X239224902Y-269098128D01*
X239224902Y-269098128D02*
X239343950Y-269336223D01*
X239343950Y-269336223D02*
X239343950Y-269455271D01*
X239343950Y-269455271D02*
X239224902Y-269693366D01*
X239224902Y-269693366D02*
X238986807Y-269812414D01*
X238986807Y-269812414D02*
X238391569Y-269812414D01*
X240534426Y-270407652D02*
X240653473Y-270526700D01*
X240653473Y-270526700D02*
X240534426Y-270645747D01*
X240534426Y-270645747D02*
X240415378Y-270526700D01*
X240415378Y-270526700D02*
X240534426Y-270407652D01*
X240534426Y-270407652D02*
X240534426Y-270645747D01*
D10*
D13*
X231248711Y-265645747D02*
X231248711Y-263145747D01*
X231248711Y-263145747D02*
X232201092Y-263145747D01*
X232201092Y-263145747D02*
X232439187Y-263264795D01*
X232439187Y-263264795D02*
X232558234Y-263383842D01*
X232558234Y-263383842D02*
X232677282Y-263621938D01*
X232677282Y-263621938D02*
X232677282Y-263979080D01*
X232677282Y-263979080D02*
X232558234Y-264217176D01*
X232558234Y-264217176D02*
X232439187Y-264336223D01*
X232439187Y-264336223D02*
X232201092Y-264455271D01*
X232201092Y-264455271D02*
X231248711Y-264455271D01*
X234820139Y-265645747D02*
X234820139Y-264336223D01*
X234820139Y-264336223D02*
X234701092Y-264098128D01*
X234701092Y-264098128D02*
X234462996Y-263979080D01*
X234462996Y-263979080D02*
X233986806Y-263979080D01*
X233986806Y-263979080D02*
X233748711Y-264098128D01*
X234820139Y-265526700D02*
X234582044Y-265645747D01*
X234582044Y-265645747D02*
X233986806Y-265645747D01*
X233986806Y-265645747D02*
X233748711Y-265526700D01*
X233748711Y-265526700D02*
X233629663Y-265288604D01*
X233629663Y-265288604D02*
X233629663Y-265050509D01*
X233629663Y-265050509D02*
X233748711Y-264812414D01*
X233748711Y-264812414D02*
X233986806Y-264693366D01*
X233986806Y-264693366D02*
X234582044Y-264693366D01*
X234582044Y-264693366D02*
X234820139Y-264574319D01*
X236248711Y-264812414D02*
X236486806Y-264812414D01*
X235772520Y-264098128D02*
X236010616Y-263979080D01*
X236010616Y-263979080D02*
X236486806Y-263979080D01*
X236486806Y-263979080D02*
X236724901Y-264098128D01*
X236724901Y-264098128D02*
X236843949Y-264336223D01*
X236843949Y-264336223D02*
X236843949Y-264455271D01*
X236843949Y-264455271D02*
X236724901Y-264693366D01*
X236724901Y-264693366D02*
X236486806Y-264812414D01*
X236486806Y-264812414D02*
X236724901Y-264931461D01*
X236724901Y-264931461D02*
X236843949Y-265169557D01*
X236843949Y-265169557D02*
X236843949Y-265288604D01*
X236843949Y-265288604D02*
X236724901Y-265526700D01*
X236724901Y-265526700D02*
X236486806Y-265645747D01*
X236486806Y-265645747D02*
X236010616Y-265645747D01*
X236010616Y-265645747D02*
X235772520Y-265526700D01*
X237915378Y-263979080D02*
X237915378Y-266479080D01*
X237915378Y-264098128D02*
X238153473Y-263979080D01*
X238153473Y-263979080D02*
X238629663Y-263979080D01*
X238629663Y-263979080D02*
X238867759Y-264098128D01*
X238867759Y-264098128D02*
X238986806Y-264217176D01*
X238986806Y-264217176D02*
X239105854Y-264455271D01*
X239105854Y-264455271D02*
X239105854Y-265169557D01*
X239105854Y-265169557D02*
X238986806Y-265407652D01*
X238986806Y-265407652D02*
X238867759Y-265526700D01*
X238867759Y-265526700D02*
X238629663Y-265645747D01*
X238629663Y-265645747D02*
X238153473Y-265645747D01*
X238153473Y-265645747D02*
X237915378Y-265526700D01*
X241248711Y-265645747D02*
X241248711Y-264336223D01*
X241248711Y-264336223D02*
X241129664Y-264098128D01*
X241129664Y-264098128D02*
X240891568Y-263979080D01*
X240891568Y-263979080D02*
X240415378Y-263979080D01*
X240415378Y-263979080D02*
X240177283Y-264098128D01*
X241248711Y-265526700D02*
X241010616Y-265645747D01*
X241010616Y-265645747D02*
X240415378Y-265645747D01*
X240415378Y-265645747D02*
X240177283Y-265526700D01*
X240177283Y-265526700D02*
X240058235Y-265288604D01*
X240058235Y-265288604D02*
X240058235Y-265050509D01*
X240058235Y-265050509D02*
X240177283Y-264812414D01*
X240177283Y-264812414D02*
X240415378Y-264693366D01*
X240415378Y-264693366D02*
X241010616Y-264693366D01*
X241010616Y-264693366D02*
X241248711Y-264574319D01*
X243629664Y-263026700D02*
X243510616Y-263145747D01*
X243510616Y-263145747D02*
X243272521Y-263264795D01*
X243272521Y-263264795D02*
X242796330Y-263264795D01*
X242796330Y-263264795D02*
X242558235Y-263383842D01*
X242558235Y-263383842D02*
X242439188Y-263502890D01*
X242439188Y-263502890D02*
X242320140Y-263740985D01*
X242320140Y-263740985D02*
X242320140Y-265169557D01*
X242320140Y-265169557D02*
X242439188Y-265407652D01*
X242439188Y-265407652D02*
X242558235Y-265526700D01*
X242558235Y-265526700D02*
X242796330Y-265645747D01*
X242796330Y-265645747D02*
X243153473Y-265645747D01*
X243153473Y-265645747D02*
X243391569Y-265526700D01*
X243391569Y-265526700D02*
X243510616Y-265407652D01*
X243510616Y-265407652D02*
X243629664Y-265169557D01*
X243629664Y-265169557D02*
X243629664Y-264455271D01*
X243629664Y-264455271D02*
X243510616Y-264217176D01*
X243510616Y-264217176D02*
X243391569Y-264098128D01*
X243391569Y-264098128D02*
X243153473Y-263979080D01*
X243153473Y-263979080D02*
X242677283Y-263979080D01*
X242677283Y-263979080D02*
X242439188Y-264098128D01*
X242439188Y-264098128D02*
X242320140Y-264217176D01*
X244701093Y-265407652D02*
X244820140Y-265526700D01*
X244820140Y-265526700D02*
X244701093Y-265645747D01*
X244701093Y-265645747D02*
X244582045Y-265526700D01*
X244582045Y-265526700D02*
X244701093Y-265407652D01*
X244701093Y-265407652D02*
X244701093Y-265645747D01*
D10*
D13*
X11405452Y-102502200D02*
X11524500Y-102621248D01*
X11524500Y-102621248D02*
X11643547Y-102978390D01*
X11643547Y-102978390D02*
X11643547Y-103216486D01*
X11643547Y-103216486D02*
X11524500Y-103573629D01*
X11524500Y-103573629D02*
X11286404Y-103811724D01*
X11286404Y-103811724D02*
X11048309Y-103930771D01*
X11048309Y-103930771D02*
X10572119Y-104049819D01*
X10572119Y-104049819D02*
X10214976Y-104049819D01*
X10214976Y-104049819D02*
X9738785Y-103930771D01*
X9738785Y-103930771D02*
X9500690Y-103811724D01*
X9500690Y-103811724D02*
X9262595Y-103573629D01*
X9262595Y-103573629D02*
X9143547Y-103216486D01*
X9143547Y-103216486D02*
X9143547Y-102978390D01*
X9143547Y-102978390D02*
X9262595Y-102621248D01*
X9262595Y-102621248D02*
X9381642Y-102502200D01*
X11643547Y-101430771D02*
X9976880Y-101430771D01*
X9976880Y-101430771D02*
X9976880Y-100359343D01*
X9976880Y-100359343D02*
X11643547Y-100359343D01*
X9976880Y-99168866D02*
X12476880Y-99168866D01*
X10095928Y-99168866D02*
X9976880Y-98930771D01*
X9976880Y-98930771D02*
X9976880Y-98454581D01*
X9976880Y-98454581D02*
X10095928Y-98216485D01*
X10095928Y-98216485D02*
X10214976Y-98097438D01*
X10214976Y-98097438D02*
X10453071Y-97978390D01*
X10453071Y-97978390D02*
X11167357Y-97978390D01*
X11167357Y-97978390D02*
X11405452Y-98097438D01*
X11405452Y-98097438D02*
X11524500Y-98216485D01*
X11524500Y-98216485D02*
X11643547Y-98454581D01*
X11643547Y-98454581D02*
X11643547Y-98930771D01*
X11643547Y-98930771D02*
X11524500Y-99168866D01*
X11643547Y-95835533D02*
X10334023Y-95835533D01*
X10334023Y-95835533D02*
X10095928Y-95954580D01*
X10095928Y-95954580D02*
X9976880Y-96192676D01*
X9976880Y-96192676D02*
X9976880Y-96668866D01*
X9976880Y-96668866D02*
X10095928Y-96906961D01*
X11524500Y-95835533D02*
X11643547Y-96073628D01*
X11643547Y-96073628D02*
X11643547Y-96668866D01*
X11643547Y-96668866D02*
X11524500Y-96906961D01*
X11524500Y-96906961D02*
X11286404Y-97026009D01*
X11286404Y-97026009D02*
X11048309Y-97026009D01*
X11048309Y-97026009D02*
X10810214Y-96906961D01*
X10810214Y-96906961D02*
X10691166Y-96668866D01*
X10691166Y-96668866D02*
X10691166Y-96073628D01*
X10691166Y-96073628D02*
X10572119Y-95835533D01*
X10810214Y-94049818D02*
X10929261Y-93692675D01*
X10929261Y-93692675D02*
X11167357Y-93573628D01*
X11167357Y-93573628D02*
X11286404Y-93573628D01*
X11286404Y-93573628D02*
X11524500Y-93692675D01*
X11524500Y-93692675D02*
X11643547Y-93930771D01*
X11643547Y-93930771D02*
X11643547Y-94645056D01*
X11643547Y-94645056D02*
X9976880Y-94645056D01*
X9976880Y-94645056D02*
X9976880Y-94049818D01*
X9976880Y-94049818D02*
X10095928Y-93811723D01*
X10095928Y-93811723D02*
X10334023Y-93692675D01*
X10334023Y-93692675D02*
X10453071Y-93692675D01*
X10453071Y-93692675D02*
X10691166Y-93811723D01*
X10691166Y-93811723D02*
X10810214Y-94049818D01*
X10810214Y-94049818D02*
X10810214Y-94645056D01*
X11405452Y-92502199D02*
X11524500Y-92383152D01*
X11524500Y-92383152D02*
X11643547Y-92502199D01*
X11643547Y-92502199D02*
X11524500Y-92621247D01*
X11524500Y-92621247D02*
X11405452Y-92502199D01*
X11405452Y-92502199D02*
X11643547Y-92502199D01*
X11643547Y-89406961D02*
X9143547Y-89406961D01*
X9143547Y-89406961D02*
X11643547Y-87978390D01*
X11643547Y-87978390D02*
X9143547Y-87978390D01*
X9143547Y-86430771D02*
X9262595Y-86668866D01*
X9262595Y-86668866D02*
X9500690Y-86787913D01*
X9500690Y-86787913D02*
X9738785Y-86668866D01*
X9738785Y-86668866D02*
X9857833Y-86430771D01*
X9857833Y-86430771D02*
X9738785Y-86192675D01*
X9738785Y-86192675D02*
X9500690Y-86073628D01*
X9500690Y-86073628D02*
X9262595Y-86192675D01*
X9262595Y-86192675D02*
X9143547Y-86430771D01*
D10*
D13*
X230891568Y-273145747D02*
X232320139Y-273145747D01*
X231605853Y-275645747D02*
X231605853Y-273145747D01*
X233153473Y-275407652D02*
X233272520Y-275526700D01*
X233272520Y-275526700D02*
X233153473Y-275645747D01*
X233153473Y-275645747D02*
X233034425Y-275526700D01*
X233034425Y-275526700D02*
X233153473Y-275407652D01*
X233153473Y-275407652D02*
X233153473Y-275645747D01*
X234343949Y-273979080D02*
X234343949Y-275645747D01*
X234582044Y-274693366D02*
X235296330Y-275645747D01*
X235296330Y-273979080D02*
X234343949Y-274931461D01*
X236724901Y-275645747D02*
X236486806Y-275526700D01*
X236486806Y-275526700D02*
X236367759Y-275407652D01*
X236367759Y-275407652D02*
X236248711Y-275169557D01*
X236248711Y-275169557D02*
X236248711Y-274455271D01*
X236248711Y-274455271D02*
X236367759Y-274217176D01*
X236367759Y-274217176D02*
X236486806Y-274098128D01*
X236486806Y-274098128D02*
X236724901Y-273979080D01*
X236724901Y-273979080D02*
X237082044Y-273979080D01*
X237082044Y-273979080D02*
X237320140Y-274098128D01*
X237320140Y-274098128D02*
X237439187Y-274217176D01*
X237439187Y-274217176D02*
X237558235Y-274455271D01*
X237558235Y-274455271D02*
X237558235Y-275169557D01*
X237558235Y-275169557D02*
X237439187Y-275407652D01*
X237439187Y-275407652D02*
X237320140Y-275526700D01*
X237320140Y-275526700D02*
X237082044Y-275645747D01*
X237082044Y-275645747D02*
X236724901Y-275645747D01*
X238629664Y-274812414D02*
X239701092Y-274812414D01*
X238629664Y-273979080D02*
X238629664Y-275645747D01*
X239701092Y-273979080D02*
X239701092Y-275645747D01*
X240534426Y-273979080D02*
X241724902Y-273979080D01*
X241129664Y-273979080D02*
X241129664Y-275645747D01*
X242558236Y-273979080D02*
X242558236Y-276479080D01*
X242558236Y-274098128D02*
X242796331Y-273979080D01*
X242796331Y-273979080D02*
X243272521Y-273979080D01*
X243272521Y-273979080D02*
X243510617Y-274098128D01*
X243510617Y-274098128D02*
X243629664Y-274217176D01*
X243629664Y-274217176D02*
X243748712Y-274455271D01*
X243748712Y-274455271D02*
X243748712Y-275169557D01*
X243748712Y-275169557D02*
X243629664Y-275407652D01*
X243629664Y-275407652D02*
X243510617Y-275526700D01*
X243510617Y-275526700D02*
X243272521Y-275645747D01*
X243272521Y-275645747D02*
X242796331Y-275645747D01*
X242796331Y-275645747D02*
X242558236Y-275526700D01*
X244820141Y-275407652D02*
X244939188Y-275526700D01*
X244939188Y-275526700D02*
X244820141Y-275645747D01*
X244820141Y-275645747D02*
X244701093Y-275526700D01*
X244701093Y-275526700D02*
X244820141Y-275407652D01*
X244820141Y-275407652D02*
X244820141Y-275645747D01*
D10*
D13*
X231129663Y-288145747D02*
X231962996Y-289812414D01*
X232796330Y-288145747D02*
X231724901Y-290288604D01*
X231724901Y-290288604D02*
X231486806Y-290526700D01*
X231486806Y-290526700D02*
X231248711Y-290645747D01*
X231248711Y-290645747D02*
X231129663Y-290645747D01*
X233272520Y-288979080D02*
X234462996Y-288979080D01*
X233867758Y-288979080D02*
X233867758Y-290645747D01*
X235891568Y-289812414D02*
X236248711Y-289931461D01*
X236248711Y-289931461D02*
X236367758Y-290169557D01*
X236367758Y-290169557D02*
X236367758Y-290288604D01*
X236367758Y-290288604D02*
X236248711Y-290526700D01*
X236248711Y-290526700D02*
X236010615Y-290645747D01*
X236010615Y-290645747D02*
X235296330Y-290645747D01*
X235296330Y-290645747D02*
X235296330Y-288979080D01*
X235296330Y-288979080D02*
X235891568Y-288979080D01*
X235891568Y-288979080D02*
X236129663Y-289098128D01*
X236129663Y-289098128D02*
X236248711Y-289336223D01*
X236248711Y-289336223D02*
X236248711Y-289455271D01*
X236248711Y-289455271D02*
X236129663Y-289693366D01*
X236129663Y-289693366D02*
X235891568Y-289812414D01*
X235891568Y-289812414D02*
X235296330Y-289812414D01*
X237439187Y-290407652D02*
X237558234Y-290526700D01*
X237558234Y-290526700D02*
X237439187Y-290645747D01*
X237439187Y-290645747D02*
X237320139Y-290526700D01*
X237320139Y-290526700D02*
X237439187Y-290407652D01*
X237439187Y-290407652D02*
X237439187Y-290645747D01*
D10*
D13*
X376462996Y-295645747D02*
X376462996Y-293145747D01*
X376224901Y-293502890D02*
X376701092Y-293502890D01*
X376701092Y-293502890D02*
X377058234Y-293621938D01*
X377058234Y-293621938D02*
X377296330Y-293860033D01*
X377296330Y-293860033D02*
X377415377Y-294098128D01*
X377415377Y-294098128D02*
X377415377Y-294574319D01*
X377415377Y-294574319D02*
X377296330Y-294812414D01*
X377296330Y-294812414D02*
X377058234Y-295050509D01*
X377058234Y-295050509D02*
X376701092Y-295169557D01*
X376701092Y-295169557D02*
X376224901Y-295169557D01*
X376224901Y-295169557D02*
X375867758Y-295050509D01*
X375867758Y-295050509D02*
X375629663Y-294812414D01*
X375629663Y-294812414D02*
X375510615Y-294574319D01*
X375510615Y-294574319D02*
X375510615Y-294098128D01*
X375510615Y-294098128D02*
X375629663Y-293860033D01*
X375629663Y-293860033D02*
X375867758Y-293621938D01*
X375867758Y-293621938D02*
X376224901Y-293502890D01*
X378724901Y-295645747D02*
X378486806Y-295526700D01*
X378486806Y-295526700D02*
X378367759Y-295407652D01*
X378367759Y-295407652D02*
X378248711Y-295169557D01*
X378248711Y-295169557D02*
X378248711Y-294455271D01*
X378248711Y-294455271D02*
X378367759Y-294217176D01*
X378367759Y-294217176D02*
X378486806Y-294098128D01*
X378486806Y-294098128D02*
X378724901Y-293979080D01*
X378724901Y-293979080D02*
X379082044Y-293979080D01*
X379082044Y-293979080D02*
X379320140Y-294098128D01*
X379320140Y-294098128D02*
X379439187Y-294217176D01*
X379439187Y-294217176D02*
X379558235Y-294455271D01*
X379558235Y-294455271D02*
X379558235Y-295169557D01*
X379558235Y-295169557D02*
X379439187Y-295407652D01*
X379439187Y-295407652D02*
X379320140Y-295526700D01*
X379320140Y-295526700D02*
X379082044Y-295645747D01*
X379082044Y-295645747D02*
X378724901Y-295645747D01*
X380629664Y-293979080D02*
X380629664Y-296479080D01*
X380629664Y-294098128D02*
X380867759Y-293979080D01*
X380867759Y-293979080D02*
X381343949Y-293979080D01*
X381343949Y-293979080D02*
X381582045Y-294098128D01*
X381582045Y-294098128D02*
X381701092Y-294217176D01*
X381701092Y-294217176D02*
X381820140Y-294455271D01*
X381820140Y-294455271D02*
X381820140Y-295169557D01*
X381820140Y-295169557D02*
X381701092Y-295407652D01*
X381701092Y-295407652D02*
X381582045Y-295526700D01*
X381582045Y-295526700D02*
X381343949Y-295645747D01*
X381343949Y-295645747D02*
X380867759Y-295645747D01*
X380867759Y-295645747D02*
X380629664Y-295526700D01*
X382891569Y-295645747D02*
X382891569Y-293979080D01*
X382891569Y-293979080D02*
X383605854Y-295288604D01*
X383605854Y-295288604D02*
X384320140Y-293979080D01*
X384320140Y-293979080D02*
X384320140Y-295645747D01*
X386582045Y-295645747D02*
X386582045Y-294336223D01*
X386582045Y-294336223D02*
X386462998Y-294098128D01*
X386462998Y-294098128D02*
X386224902Y-293979080D01*
X386224902Y-293979080D02*
X385748712Y-293979080D01*
X385748712Y-293979080D02*
X385510617Y-294098128D01*
X386582045Y-295526700D02*
X386343950Y-295645747D01*
X386343950Y-295645747D02*
X385748712Y-295645747D01*
X385748712Y-295645747D02*
X385510617Y-295526700D01*
X385510617Y-295526700D02*
X385391569Y-295288604D01*
X385391569Y-295288604D02*
X385391569Y-295050509D01*
X385391569Y-295050509D02*
X385510617Y-294812414D01*
X385510617Y-294812414D02*
X385748712Y-294693366D01*
X385748712Y-294693366D02*
X386343950Y-294693366D01*
X386343950Y-294693366D02*
X386582045Y-294574319D01*
X387415379Y-293979080D02*
X388605855Y-293979080D01*
X388010617Y-293979080D02*
X388010617Y-295645747D01*
X391224903Y-294931461D02*
X392415379Y-294931461D01*
X390986808Y-295645747D02*
X391820141Y-293145747D01*
X391820141Y-293145747D02*
X392653474Y-295645747D01*
X393248712Y-293145747D02*
X394796331Y-293145747D01*
X394796331Y-293145747D02*
X393962998Y-294098128D01*
X393962998Y-294098128D02*
X394320141Y-294098128D01*
X394320141Y-294098128D02*
X394558236Y-294217176D01*
X394558236Y-294217176D02*
X394677284Y-294336223D01*
X394677284Y-294336223D02*
X394796331Y-294574319D01*
X394796331Y-294574319D02*
X394796331Y-295169557D01*
X394796331Y-295169557D02*
X394677284Y-295407652D01*
X394677284Y-295407652D02*
X394558236Y-295526700D01*
X394558236Y-295526700D02*
X394320141Y-295645747D01*
X394320141Y-295645747D02*
X393605855Y-295645747D01*
X393605855Y-295645747D02*
X393367760Y-295526700D01*
X393367760Y-295526700D02*
X393248712Y-295407652D01*
D10*
D13*
X407703285Y-275645747D02*
X406274714Y-275645747D01*
X406989000Y-275645747D02*
X406989000Y-273145747D01*
X406989000Y-273145747D02*
X406750904Y-273502890D01*
X406750904Y-273502890D02*
X406512809Y-273740985D01*
X406512809Y-273740985D02*
X406274714Y-273860033D01*
D10*
D13*
X380703285Y-275645747D02*
X379274714Y-275645747D01*
X379989000Y-275645747D02*
X379989000Y-273145747D01*
X379989000Y-273145747D02*
X379750904Y-273502890D01*
X379750904Y-273502890D02*
X379512809Y-273740985D01*
X379512809Y-273740985D02*
X379274714Y-273860033D01*
D10*
D14*
X118785714Y-124559104D02*
X119261904Y-124559104D01*
X118690476Y-124844819D02*
X119023809Y-123844819D01*
X119023809Y-123844819D02*
X119357142Y-124844819D01*
X120214285Y-124844819D02*
X119642857Y-124844819D01*
X119928571Y-124844819D02*
X119928571Y-123844819D01*
X119928571Y-123844819D02*
X119833333Y-123987676D01*
X119833333Y-123987676D02*
X119738095Y-124082914D01*
X119738095Y-124082914D02*
X119642857Y-124130533D01*
X137409580Y-167061666D02*
X137457200Y-167109285D01*
X137457200Y-167109285D02*
X137504819Y-167252142D01*
X137504819Y-167252142D02*
X137504819Y-167347380D01*
X137504819Y-167347380D02*
X137457200Y-167490237D01*
X137457200Y-167490237D02*
X137361961Y-167585475D01*
X137361961Y-167585475D02*
X137266723Y-167633094D01*
X137266723Y-167633094D02*
X137076247Y-167680713D01*
X137076247Y-167680713D02*
X136933390Y-167680713D01*
X136933390Y-167680713D02*
X136742914Y-167633094D01*
X136742914Y-167633094D02*
X136647676Y-167585475D01*
X136647676Y-167585475D02*
X136552438Y-167490237D01*
X136552438Y-167490237D02*
X136504819Y-167347380D01*
X136504819Y-167347380D02*
X136504819Y-167252142D01*
X136504819Y-167252142D02*
X136552438Y-167109285D01*
X136552438Y-167109285D02*
X136600057Y-167061666D01*
X136838152Y-166204523D02*
X137504819Y-166204523D01*
X136457200Y-166442618D02*
X137171485Y-166680713D01*
X137171485Y-166680713D02*
X137171485Y-166061666D01*
X186761905Y-125484819D02*
X186761905Y-124484819D01*
X186761905Y-124484819D02*
X187000000Y-124484819D01*
X187000000Y-124484819D02*
X187142857Y-124532438D01*
X187142857Y-124532438D02*
X187238095Y-124627676D01*
X187238095Y-124627676D02*
X187285714Y-124722914D01*
X187285714Y-124722914D02*
X187333333Y-124913390D01*
X187333333Y-124913390D02*
X187333333Y-125056247D01*
X187333333Y-125056247D02*
X187285714Y-125246723D01*
X187285714Y-125246723D02*
X187238095Y-125341961D01*
X187238095Y-125341961D02*
X187142857Y-125437200D01*
X187142857Y-125437200D02*
X187000000Y-125484819D01*
X187000000Y-125484819D02*
X186761905Y-125484819D01*
X187904762Y-124913390D02*
X187809524Y-124865771D01*
X187809524Y-124865771D02*
X187761905Y-124818152D01*
X187761905Y-124818152D02*
X187714286Y-124722914D01*
X187714286Y-124722914D02*
X187714286Y-124675295D01*
X187714286Y-124675295D02*
X187761905Y-124580057D01*
X187761905Y-124580057D02*
X187809524Y-124532438D01*
X187809524Y-124532438D02*
X187904762Y-124484819D01*
X187904762Y-124484819D02*
X188095238Y-124484819D01*
X188095238Y-124484819D02*
X188190476Y-124532438D01*
X188190476Y-124532438D02*
X188238095Y-124580057D01*
X188238095Y-124580057D02*
X188285714Y-124675295D01*
X188285714Y-124675295D02*
X188285714Y-124722914D01*
X188285714Y-124722914D02*
X188238095Y-124818152D01*
X188238095Y-124818152D02*
X188190476Y-124865771D01*
X188190476Y-124865771D02*
X188095238Y-124913390D01*
X188095238Y-124913390D02*
X187904762Y-124913390D01*
X187904762Y-124913390D02*
X187809524Y-124961009D01*
X187809524Y-124961009D02*
X187761905Y-125008628D01*
X187761905Y-125008628D02*
X187714286Y-125103866D01*
X187714286Y-125103866D02*
X187714286Y-125294342D01*
X187714286Y-125294342D02*
X187761905Y-125389580D01*
X187761905Y-125389580D02*
X187809524Y-125437200D01*
X187809524Y-125437200D02*
X187904762Y-125484819D01*
X187904762Y-125484819D02*
X188095238Y-125484819D01*
X188095238Y-125484819D02*
X188190476Y-125437200D01*
X188190476Y-125437200D02*
X188238095Y-125389580D01*
X188238095Y-125389580D02*
X188285714Y-125294342D01*
X188285714Y-125294342D02*
X188285714Y-125103866D01*
X188285714Y-125103866D02*
X188238095Y-125008628D01*
X188238095Y-125008628D02*
X188190476Y-124961009D01*
X188190476Y-124961009D02*
X188095238Y-124913390D01*
X182158095Y-125854819D02*
X182158095Y-124854819D01*
X182729523Y-125854819D02*
X182300952Y-125283390D01*
X182729523Y-124854819D02*
X182158095Y-125426247D01*
X170389580Y-110986666D02*
X170437200Y-111034285D01*
X170437200Y-111034285D02*
X170484819Y-111177142D01*
X170484819Y-111177142D02*
X170484819Y-111272380D01*
X170484819Y-111272380D02*
X170437200Y-111415237D01*
X170437200Y-111415237D02*
X170341961Y-111510475D01*
X170341961Y-111510475D02*
X170246723Y-111558094D01*
X170246723Y-111558094D02*
X170056247Y-111605713D01*
X170056247Y-111605713D02*
X169913390Y-111605713D01*
X169913390Y-111605713D02*
X169722914Y-111558094D01*
X169722914Y-111558094D02*
X169627676Y-111510475D01*
X169627676Y-111510475D02*
X169532438Y-111415237D01*
X169532438Y-111415237D02*
X169484819Y-111272380D01*
X169484819Y-111272380D02*
X169484819Y-111177142D01*
X169484819Y-111177142D02*
X169532438Y-111034285D01*
X169532438Y-111034285D02*
X169580057Y-110986666D01*
X169484819Y-110653332D02*
X169484819Y-109986666D01*
X169484819Y-109986666D02*
X170484819Y-110415237D01*
X186761905Y-106199107D02*
X186761905Y-105199107D01*
X186761905Y-105199107D02*
X187000000Y-105199107D01*
X187000000Y-105199107D02*
X187142857Y-105246726D01*
X187142857Y-105246726D02*
X187238095Y-105341964D01*
X187238095Y-105341964D02*
X187285714Y-105437202D01*
X187285714Y-105437202D02*
X187333333Y-105627678D01*
X187333333Y-105627678D02*
X187333333Y-105770535D01*
X187333333Y-105770535D02*
X187285714Y-105961011D01*
X187285714Y-105961011D02*
X187238095Y-106056249D01*
X187238095Y-106056249D02*
X187142857Y-106151488D01*
X187142857Y-106151488D02*
X187000000Y-106199107D01*
X187000000Y-106199107D02*
X186761905Y-106199107D01*
X188190476Y-105532440D02*
X188190476Y-106199107D01*
X187952381Y-105151488D02*
X187714286Y-105865773D01*
X187714286Y-105865773D02*
X188333333Y-105865773D01*
X182158095Y-106569107D02*
X182158095Y-105569107D01*
X182729523Y-106569107D02*
X182300952Y-105997678D01*
X182729523Y-105569107D02*
X182158095Y-106140535D01*
X142854819Y-142979523D02*
X143854819Y-142312857D01*
X142854819Y-142312857D02*
X143854819Y-142979523D01*
X142854819Y-141503333D02*
X142854819Y-141693809D01*
X142854819Y-141693809D02*
X142902438Y-141789047D01*
X142902438Y-141789047D02*
X142950057Y-141836666D01*
X142950057Y-141836666D02*
X143092914Y-141931904D01*
X143092914Y-141931904D02*
X143283390Y-141979523D01*
X143283390Y-141979523D02*
X143664342Y-141979523D01*
X143664342Y-141979523D02*
X143759580Y-141931904D01*
X143759580Y-141931904D02*
X143807200Y-141884285D01*
X143807200Y-141884285D02*
X143854819Y-141789047D01*
X143854819Y-141789047D02*
X143854819Y-141598571D01*
X143854819Y-141598571D02*
X143807200Y-141503333D01*
X143807200Y-141503333D02*
X143759580Y-141455714D01*
X143759580Y-141455714D02*
X143664342Y-141408095D01*
X143664342Y-141408095D02*
X143426247Y-141408095D01*
X143426247Y-141408095D02*
X143331009Y-141455714D01*
X143331009Y-141455714D02*
X143283390Y-141503333D01*
X143283390Y-141503333D02*
X143235771Y-141598571D01*
X143235771Y-141598571D02*
X143235771Y-141789047D01*
X143235771Y-141789047D02*
X143283390Y-141884285D01*
X143283390Y-141884285D02*
X143331009Y-141931904D01*
X143331009Y-141931904D02*
X143426247Y-141979523D01*
X227158118Y-99219580D02*
X227110499Y-99267200D01*
X227110499Y-99267200D02*
X226967642Y-99314819D01*
X226967642Y-99314819D02*
X226872404Y-99314819D01*
X226872404Y-99314819D02*
X226729547Y-99267200D01*
X226729547Y-99267200D02*
X226634309Y-99171961D01*
X226634309Y-99171961D02*
X226586690Y-99076723D01*
X226586690Y-99076723D02*
X226539071Y-98886247D01*
X226539071Y-98886247D02*
X226539071Y-98743390D01*
X226539071Y-98743390D02*
X226586690Y-98552914D01*
X226586690Y-98552914D02*
X226634309Y-98457676D01*
X226634309Y-98457676D02*
X226729547Y-98362438D01*
X226729547Y-98362438D02*
X226872404Y-98314819D01*
X226872404Y-98314819D02*
X226967642Y-98314819D01*
X226967642Y-98314819D02*
X227110499Y-98362438D01*
X227110499Y-98362438D02*
X227158118Y-98410057D01*
X228110499Y-99314819D02*
X227539071Y-99314819D01*
X227824785Y-99314819D02*
X227824785Y-98314819D01*
X227824785Y-98314819D02*
X227729547Y-98457676D01*
X227729547Y-98457676D02*
X227634309Y-98552914D01*
X227634309Y-98552914D02*
X227539071Y-98600533D01*
X105659580Y-153766666D02*
X105707200Y-153814285D01*
X105707200Y-153814285D02*
X105754819Y-153957142D01*
X105754819Y-153957142D02*
X105754819Y-154052380D01*
X105754819Y-154052380D02*
X105707200Y-154195237D01*
X105707200Y-154195237D02*
X105611961Y-154290475D01*
X105611961Y-154290475D02*
X105516723Y-154338094D01*
X105516723Y-154338094D02*
X105326247Y-154385713D01*
X105326247Y-154385713D02*
X105183390Y-154385713D01*
X105183390Y-154385713D02*
X104992914Y-154338094D01*
X104992914Y-154338094D02*
X104897676Y-154290475D01*
X104897676Y-154290475D02*
X104802438Y-154195237D01*
X104802438Y-154195237D02*
X104754819Y-154052380D01*
X104754819Y-154052380D02*
X104754819Y-153957142D01*
X104754819Y-153957142D02*
X104802438Y-153814285D01*
X104802438Y-153814285D02*
X104850057Y-153766666D01*
X105754819Y-153290475D02*
X105754819Y-153099999D01*
X105754819Y-153099999D02*
X105707200Y-153004761D01*
X105707200Y-153004761D02*
X105659580Y-152957142D01*
X105659580Y-152957142D02*
X105516723Y-152861904D01*
X105516723Y-152861904D02*
X105326247Y-152814285D01*
X105326247Y-152814285D02*
X104945295Y-152814285D01*
X104945295Y-152814285D02*
X104850057Y-152861904D01*
X104850057Y-152861904D02*
X104802438Y-152909523D01*
X104802438Y-152909523D02*
X104754819Y-153004761D01*
X104754819Y-153004761D02*
X104754819Y-153195237D01*
X104754819Y-153195237D02*
X104802438Y-153290475D01*
X104802438Y-153290475D02*
X104850057Y-153338094D01*
X104850057Y-153338094D02*
X104945295Y-153385713D01*
X104945295Y-153385713D02*
X105183390Y-153385713D01*
X105183390Y-153385713D02*
X105278628Y-153338094D01*
X105278628Y-153338094D02*
X105326247Y-153290475D01*
X105326247Y-153290475D02*
X105373866Y-153195237D01*
X105373866Y-153195237D02*
X105373866Y-153004761D01*
X105373866Y-153004761D02*
X105326247Y-152909523D01*
X105326247Y-152909523D02*
X105278628Y-152861904D01*
X105278628Y-152861904D02*
X105183390Y-152814285D01*
X178150476Y-164879819D02*
X178817142Y-165879819D01*
X178817142Y-164879819D02*
X178150476Y-165879819D01*
X179721904Y-165879819D02*
X179150476Y-165879819D01*
X179436190Y-165879819D02*
X179436190Y-164879819D01*
X179436190Y-164879819D02*
X179340952Y-165022676D01*
X179340952Y-165022676D02*
X179245714Y-165117914D01*
X179245714Y-165117914D02*
X179150476Y-165165533D01*
X186285714Y-135127679D02*
X186285714Y-134127679D01*
X186285714Y-134127679D02*
X186523809Y-134127679D01*
X186523809Y-134127679D02*
X186666666Y-134175298D01*
X186666666Y-134175298D02*
X186761904Y-134270536D01*
X186761904Y-134270536D02*
X186809523Y-134365774D01*
X186809523Y-134365774D02*
X186857142Y-134556250D01*
X186857142Y-134556250D02*
X186857142Y-134699107D01*
X186857142Y-134699107D02*
X186809523Y-134889583D01*
X186809523Y-134889583D02*
X186761904Y-134984821D01*
X186761904Y-134984821D02*
X186666666Y-135080060D01*
X186666666Y-135080060D02*
X186523809Y-135127679D01*
X186523809Y-135127679D02*
X186285714Y-135127679D01*
X187809523Y-135127679D02*
X187238095Y-135127679D01*
X187523809Y-135127679D02*
X187523809Y-134127679D01*
X187523809Y-134127679D02*
X187428571Y-134270536D01*
X187428571Y-134270536D02*
X187333333Y-134365774D01*
X187333333Y-134365774D02*
X187238095Y-134413393D01*
X188428571Y-134127679D02*
X188523809Y-134127679D01*
X188523809Y-134127679D02*
X188619047Y-134175298D01*
X188619047Y-134175298D02*
X188666666Y-134222917D01*
X188666666Y-134222917D02*
X188714285Y-134318155D01*
X188714285Y-134318155D02*
X188761904Y-134508631D01*
X188761904Y-134508631D02*
X188761904Y-134746726D01*
X188761904Y-134746726D02*
X188714285Y-134937202D01*
X188714285Y-134937202D02*
X188666666Y-135032440D01*
X188666666Y-135032440D02*
X188619047Y-135080060D01*
X188619047Y-135080060D02*
X188523809Y-135127679D01*
X188523809Y-135127679D02*
X188428571Y-135127679D01*
X188428571Y-135127679D02*
X188333333Y-135080060D01*
X188333333Y-135080060D02*
X188285714Y-135032440D01*
X188285714Y-135032440D02*
X188238095Y-134937202D01*
X188238095Y-134937202D02*
X188190476Y-134746726D01*
X188190476Y-134746726D02*
X188190476Y-134508631D01*
X188190476Y-134508631D02*
X188238095Y-134318155D01*
X188238095Y-134318155D02*
X188285714Y-134222917D01*
X188285714Y-134222917D02*
X188333333Y-134175298D01*
X188333333Y-134175298D02*
X188428571Y-134127679D01*
X182158095Y-135497679D02*
X182158095Y-134497679D01*
X182729523Y-135497679D02*
X182300952Y-134926250D01*
X182729523Y-134497679D02*
X182158095Y-135069107D01*
X115914819Y-156306666D02*
X115438628Y-156639999D01*
X115914819Y-156878094D02*
X114914819Y-156878094D01*
X114914819Y-156878094D02*
X114914819Y-156497142D01*
X114914819Y-156497142D02*
X114962438Y-156401904D01*
X114962438Y-156401904D02*
X115010057Y-156354285D01*
X115010057Y-156354285D02*
X115105295Y-156306666D01*
X115105295Y-156306666D02*
X115248152Y-156306666D01*
X115248152Y-156306666D02*
X115343390Y-156354285D01*
X115343390Y-156354285D02*
X115391009Y-156401904D01*
X115391009Y-156401904D02*
X115438628Y-156497142D01*
X115438628Y-156497142D02*
X115438628Y-156878094D01*
X115010057Y-155925713D02*
X114962438Y-155878094D01*
X114962438Y-155878094D02*
X114914819Y-155782856D01*
X114914819Y-155782856D02*
X114914819Y-155544761D01*
X114914819Y-155544761D02*
X114962438Y-155449523D01*
X114962438Y-155449523D02*
X115010057Y-155401904D01*
X115010057Y-155401904D02*
X115105295Y-155354285D01*
X115105295Y-155354285D02*
X115200533Y-155354285D01*
X115200533Y-155354285D02*
X115343390Y-155401904D01*
X115343390Y-155401904D02*
X115914819Y-155973332D01*
X115914819Y-155973332D02*
X115914819Y-155354285D01*
X145709580Y-160096666D02*
X145757200Y-160144285D01*
X145757200Y-160144285D02*
X145804819Y-160287142D01*
X145804819Y-160287142D02*
X145804819Y-160382380D01*
X145804819Y-160382380D02*
X145757200Y-160525237D01*
X145757200Y-160525237D02*
X145661961Y-160620475D01*
X145661961Y-160620475D02*
X145566723Y-160668094D01*
X145566723Y-160668094D02*
X145376247Y-160715713D01*
X145376247Y-160715713D02*
X145233390Y-160715713D01*
X145233390Y-160715713D02*
X145042914Y-160668094D01*
X145042914Y-160668094D02*
X144947676Y-160620475D01*
X144947676Y-160620475D02*
X144852438Y-160525237D01*
X144852438Y-160525237D02*
X144804819Y-160382380D01*
X144804819Y-160382380D02*
X144804819Y-160287142D01*
X144804819Y-160287142D02*
X144852438Y-160144285D01*
X144852438Y-160144285D02*
X144900057Y-160096666D01*
X144804819Y-159191904D02*
X144804819Y-159668094D01*
X144804819Y-159668094D02*
X145281009Y-159715713D01*
X145281009Y-159715713D02*
X145233390Y-159668094D01*
X145233390Y-159668094D02*
X145185771Y-159572856D01*
X145185771Y-159572856D02*
X145185771Y-159334761D01*
X145185771Y-159334761D02*
X145233390Y-159239523D01*
X145233390Y-159239523D02*
X145281009Y-159191904D01*
X145281009Y-159191904D02*
X145376247Y-159144285D01*
X145376247Y-159144285D02*
X145614342Y-159144285D01*
X145614342Y-159144285D02*
X145709580Y-159191904D01*
X145709580Y-159191904D02*
X145757200Y-159239523D01*
X145757200Y-159239523D02*
X145804819Y-159334761D01*
X145804819Y-159334761D02*
X145804819Y-159572856D01*
X145804819Y-159572856D02*
X145757200Y-159668094D01*
X145757200Y-159668094D02*
X145709580Y-159715713D01*
X131154819Y-162386666D02*
X130154819Y-162386666D01*
X130154819Y-162386666D02*
X130154819Y-162148571D01*
X130154819Y-162148571D02*
X130202438Y-162005714D01*
X130202438Y-162005714D02*
X130297676Y-161910476D01*
X130297676Y-161910476D02*
X130392914Y-161862857D01*
X130392914Y-161862857D02*
X130583390Y-161815238D01*
X130583390Y-161815238D02*
X130726247Y-161815238D01*
X130726247Y-161815238D02*
X130916723Y-161862857D01*
X130916723Y-161862857D02*
X131011961Y-161910476D01*
X131011961Y-161910476D02*
X131107200Y-162005714D01*
X131107200Y-162005714D02*
X131154819Y-162148571D01*
X131154819Y-162148571D02*
X131154819Y-162386666D01*
X130869104Y-161434285D02*
X130869104Y-160958095D01*
X131154819Y-161529523D02*
X130154819Y-161196190D01*
X130154819Y-161196190D02*
X131154819Y-160862857D01*
X130250057Y-160577142D02*
X130202438Y-160529523D01*
X130202438Y-160529523D02*
X130154819Y-160434285D01*
X130154819Y-160434285D02*
X130154819Y-160196190D01*
X130154819Y-160196190D02*
X130202438Y-160100952D01*
X130202438Y-160100952D02*
X130250057Y-160053333D01*
X130250057Y-160053333D02*
X130345295Y-160005714D01*
X130345295Y-160005714D02*
X130440533Y-160005714D01*
X130440533Y-160005714D02*
X130583390Y-160053333D01*
X130583390Y-160053333D02*
X131154819Y-160624761D01*
X131154819Y-160624761D02*
X131154819Y-160005714D01*
X186761905Y-115841963D02*
X186761905Y-114841963D01*
X186761905Y-114841963D02*
X187000000Y-114841963D01*
X187000000Y-114841963D02*
X187142857Y-114889582D01*
X187142857Y-114889582D02*
X187238095Y-114984820D01*
X187238095Y-114984820D02*
X187285714Y-115080058D01*
X187285714Y-115080058D02*
X187333333Y-115270534D01*
X187333333Y-115270534D02*
X187333333Y-115413391D01*
X187333333Y-115413391D02*
X187285714Y-115603867D01*
X187285714Y-115603867D02*
X187238095Y-115699105D01*
X187238095Y-115699105D02*
X187142857Y-115794344D01*
X187142857Y-115794344D02*
X187000000Y-115841963D01*
X187000000Y-115841963D02*
X186761905Y-115841963D01*
X188190476Y-114841963D02*
X188000000Y-114841963D01*
X188000000Y-114841963D02*
X187904762Y-114889582D01*
X187904762Y-114889582D02*
X187857143Y-114937201D01*
X187857143Y-114937201D02*
X187761905Y-115080058D01*
X187761905Y-115080058D02*
X187714286Y-115270534D01*
X187714286Y-115270534D02*
X187714286Y-115651486D01*
X187714286Y-115651486D02*
X187761905Y-115746724D01*
X187761905Y-115746724D02*
X187809524Y-115794344D01*
X187809524Y-115794344D02*
X187904762Y-115841963D01*
X187904762Y-115841963D02*
X188095238Y-115841963D01*
X188095238Y-115841963D02*
X188190476Y-115794344D01*
X188190476Y-115794344D02*
X188238095Y-115746724D01*
X188238095Y-115746724D02*
X188285714Y-115651486D01*
X188285714Y-115651486D02*
X188285714Y-115413391D01*
X188285714Y-115413391D02*
X188238095Y-115318153D01*
X188238095Y-115318153D02*
X188190476Y-115270534D01*
X188190476Y-115270534D02*
X188095238Y-115222915D01*
X188095238Y-115222915D02*
X187904762Y-115222915D01*
X187904762Y-115222915D02*
X187809524Y-115270534D01*
X187809524Y-115270534D02*
X187761905Y-115318153D01*
X187761905Y-115318153D02*
X187714286Y-115413391D01*
X182158095Y-116211963D02*
X182158095Y-115211963D01*
X182729523Y-116211963D02*
X182300952Y-115640534D01*
X182729523Y-115211963D02*
X182158095Y-115783391D01*
X203594819Y-98986666D02*
X202594819Y-98986666D01*
X202594819Y-98986666D02*
X202594819Y-98748571D01*
X202594819Y-98748571D02*
X202642438Y-98605714D01*
X202642438Y-98605714D02*
X202737676Y-98510476D01*
X202737676Y-98510476D02*
X202832914Y-98462857D01*
X202832914Y-98462857D02*
X203023390Y-98415238D01*
X203023390Y-98415238D02*
X203166247Y-98415238D01*
X203166247Y-98415238D02*
X203356723Y-98462857D01*
X203356723Y-98462857D02*
X203451961Y-98510476D01*
X203451961Y-98510476D02*
X203547200Y-98605714D01*
X203547200Y-98605714D02*
X203594819Y-98748571D01*
X203594819Y-98748571D02*
X203594819Y-98986666D01*
X203309104Y-98034285D02*
X203309104Y-97558095D01*
X203594819Y-98129523D02*
X202594819Y-97796190D01*
X202594819Y-97796190D02*
X203594819Y-97462857D01*
X203594819Y-96605714D02*
X203594819Y-97177142D01*
X203594819Y-96891428D02*
X202594819Y-96891428D01*
X202594819Y-96891428D02*
X202737676Y-96986666D01*
X202737676Y-96986666D02*
X202832914Y-97081904D01*
X202832914Y-97081904D02*
X202880533Y-97177142D01*
X120899580Y-153806666D02*
X120947200Y-153854285D01*
X120947200Y-153854285D02*
X120994819Y-153997142D01*
X120994819Y-153997142D02*
X120994819Y-154092380D01*
X120994819Y-154092380D02*
X120947200Y-154235237D01*
X120947200Y-154235237D02*
X120851961Y-154330475D01*
X120851961Y-154330475D02*
X120756723Y-154378094D01*
X120756723Y-154378094D02*
X120566247Y-154425713D01*
X120566247Y-154425713D02*
X120423390Y-154425713D01*
X120423390Y-154425713D02*
X120232914Y-154378094D01*
X120232914Y-154378094D02*
X120137676Y-154330475D01*
X120137676Y-154330475D02*
X120042438Y-154235237D01*
X120042438Y-154235237D02*
X119994819Y-154092380D01*
X119994819Y-154092380D02*
X119994819Y-153997142D01*
X119994819Y-153997142D02*
X120042438Y-153854285D01*
X120042438Y-153854285D02*
X120090057Y-153806666D01*
X120423390Y-153235237D02*
X120375771Y-153330475D01*
X120375771Y-153330475D02*
X120328152Y-153378094D01*
X120328152Y-153378094D02*
X120232914Y-153425713D01*
X120232914Y-153425713D02*
X120185295Y-153425713D01*
X120185295Y-153425713D02*
X120090057Y-153378094D01*
X120090057Y-153378094D02*
X120042438Y-153330475D01*
X120042438Y-153330475D02*
X119994819Y-153235237D01*
X119994819Y-153235237D02*
X119994819Y-153044761D01*
X119994819Y-153044761D02*
X120042438Y-152949523D01*
X120042438Y-152949523D02*
X120090057Y-152901904D01*
X120090057Y-152901904D02*
X120185295Y-152854285D01*
X120185295Y-152854285D02*
X120232914Y-152854285D01*
X120232914Y-152854285D02*
X120328152Y-152901904D01*
X120328152Y-152901904D02*
X120375771Y-152949523D01*
X120375771Y-152949523D02*
X120423390Y-153044761D01*
X120423390Y-153044761D02*
X120423390Y-153235237D01*
X120423390Y-153235237D02*
X120471009Y-153330475D01*
X120471009Y-153330475D02*
X120518628Y-153378094D01*
X120518628Y-153378094D02*
X120613866Y-153425713D01*
X120613866Y-153425713D02*
X120804342Y-153425713D01*
X120804342Y-153425713D02*
X120899580Y-153378094D01*
X120899580Y-153378094D02*
X120947200Y-153330475D01*
X120947200Y-153330475D02*
X120994819Y-153235237D01*
X120994819Y-153235237D02*
X120994819Y-153044761D01*
X120994819Y-153044761D02*
X120947200Y-152949523D01*
X120947200Y-152949523D02*
X120899580Y-152901904D01*
X120899580Y-152901904D02*
X120804342Y-152854285D01*
X120804342Y-152854285D02*
X120613866Y-152854285D01*
X120613866Y-152854285D02*
X120518628Y-152901904D01*
X120518628Y-152901904D02*
X120471009Y-152949523D01*
X120471009Y-152949523D02*
X120423390Y-153044761D01*
X100674819Y-156306666D02*
X100198628Y-156639999D01*
X100674819Y-156878094D02*
X99674819Y-156878094D01*
X99674819Y-156878094D02*
X99674819Y-156497142D01*
X99674819Y-156497142D02*
X99722438Y-156401904D01*
X99722438Y-156401904D02*
X99770057Y-156354285D01*
X99770057Y-156354285D02*
X99865295Y-156306666D01*
X99865295Y-156306666D02*
X100008152Y-156306666D01*
X100008152Y-156306666D02*
X100103390Y-156354285D01*
X100103390Y-156354285D02*
X100151009Y-156401904D01*
X100151009Y-156401904D02*
X100198628Y-156497142D01*
X100198628Y-156497142D02*
X100198628Y-156878094D01*
X100008152Y-155449523D02*
X100674819Y-155449523D01*
X99627200Y-155687618D02*
X100341485Y-155925713D01*
X100341485Y-155925713D02*
X100341485Y-155306666D01*
X142854819Y-107419523D02*
X143854819Y-106752857D01*
X142854819Y-106752857D02*
X143854819Y-107419523D01*
X142854819Y-106467142D02*
X142854819Y-105800476D01*
X142854819Y-105800476D02*
X143854819Y-106229047D01*
X102424819Y-175999523D02*
X103424819Y-175332857D01*
X102424819Y-175332857D02*
X103424819Y-175999523D01*
X102424819Y-175047142D02*
X102424819Y-174428095D01*
X102424819Y-174428095D02*
X102805771Y-174761428D01*
X102805771Y-174761428D02*
X102805771Y-174618571D01*
X102805771Y-174618571D02*
X102853390Y-174523333D01*
X102853390Y-174523333D02*
X102901009Y-174475714D01*
X102901009Y-174475714D02*
X102996247Y-174428095D01*
X102996247Y-174428095D02*
X103234342Y-174428095D01*
X103234342Y-174428095D02*
X103329580Y-174475714D01*
X103329580Y-174475714D02*
X103377200Y-174523333D01*
X103377200Y-174523333D02*
X103424819Y-174618571D01*
X103424819Y-174618571D02*
X103424819Y-174904285D01*
X103424819Y-174904285D02*
X103377200Y-174999523D01*
X103377200Y-174999523D02*
X103329580Y-175047142D01*
X178594819Y-99986666D02*
X177594819Y-99986666D01*
X177594819Y-99986666D02*
X177594819Y-99748571D01*
X177594819Y-99748571D02*
X177642438Y-99605714D01*
X177642438Y-99605714D02*
X177737676Y-99510476D01*
X177737676Y-99510476D02*
X177832914Y-99462857D01*
X177832914Y-99462857D02*
X178023390Y-99415238D01*
X178023390Y-99415238D02*
X178166247Y-99415238D01*
X178166247Y-99415238D02*
X178356723Y-99462857D01*
X178356723Y-99462857D02*
X178451961Y-99510476D01*
X178451961Y-99510476D02*
X178547200Y-99605714D01*
X178547200Y-99605714D02*
X178594819Y-99748571D01*
X178594819Y-99748571D02*
X178594819Y-99986666D01*
X178309104Y-99034285D02*
X178309104Y-98558095D01*
X178594819Y-99129523D02*
X177594819Y-98796190D01*
X177594819Y-98796190D02*
X178594819Y-98462857D01*
X177594819Y-98224761D02*
X177594819Y-97605714D01*
X177594819Y-97605714D02*
X177975771Y-97939047D01*
X177975771Y-97939047D02*
X177975771Y-97796190D01*
X177975771Y-97796190D02*
X178023390Y-97700952D01*
X178023390Y-97700952D02*
X178071009Y-97653333D01*
X178071009Y-97653333D02*
X178166247Y-97605714D01*
X178166247Y-97605714D02*
X178404342Y-97605714D01*
X178404342Y-97605714D02*
X178499580Y-97653333D01*
X178499580Y-97653333D02*
X178547200Y-97700952D01*
X178547200Y-97700952D02*
X178594819Y-97796190D01*
X178594819Y-97796190D02*
X178594819Y-98081904D01*
X178594819Y-98081904D02*
X178547200Y-98177142D01*
X178547200Y-98177142D02*
X178499580Y-98224761D01*
X95764819Y-156306666D02*
X95288628Y-156639999D01*
X95764819Y-156878094D02*
X94764819Y-156878094D01*
X94764819Y-156878094D02*
X94764819Y-156497142D01*
X94764819Y-156497142D02*
X94812438Y-156401904D01*
X94812438Y-156401904D02*
X94860057Y-156354285D01*
X94860057Y-156354285D02*
X94955295Y-156306666D01*
X94955295Y-156306666D02*
X95098152Y-156306666D01*
X95098152Y-156306666D02*
X95193390Y-156354285D01*
X95193390Y-156354285D02*
X95241009Y-156401904D01*
X95241009Y-156401904D02*
X95288628Y-156497142D01*
X95288628Y-156497142D02*
X95288628Y-156878094D01*
X94764819Y-155973332D02*
X94764819Y-155354285D01*
X94764819Y-155354285D02*
X95145771Y-155687618D01*
X95145771Y-155687618D02*
X95145771Y-155544761D01*
X95145771Y-155544761D02*
X95193390Y-155449523D01*
X95193390Y-155449523D02*
X95241009Y-155401904D01*
X95241009Y-155401904D02*
X95336247Y-155354285D01*
X95336247Y-155354285D02*
X95574342Y-155354285D01*
X95574342Y-155354285D02*
X95669580Y-155401904D01*
X95669580Y-155401904D02*
X95717200Y-155449523D01*
X95717200Y-155449523D02*
X95764819Y-155544761D01*
X95764819Y-155544761D02*
X95764819Y-155830475D01*
X95764819Y-155830475D02*
X95717200Y-155925713D01*
X95717200Y-155925713D02*
X95669580Y-155973332D01*
X209273333Y-109084819D02*
X208797143Y-109084819D01*
X208797143Y-109084819D02*
X208797143Y-108084819D01*
X210130476Y-109084819D02*
X209559048Y-109084819D01*
X209844762Y-109084819D02*
X209844762Y-108084819D01*
X209844762Y-108084819D02*
X209749524Y-108227676D01*
X209749524Y-108227676D02*
X209654286Y-108322914D01*
X209654286Y-108322914D02*
X209559048Y-108370533D01*
X132329580Y-167061666D02*
X132377200Y-167109285D01*
X132377200Y-167109285D02*
X132424819Y-167252142D01*
X132424819Y-167252142D02*
X132424819Y-167347380D01*
X132424819Y-167347380D02*
X132377200Y-167490237D01*
X132377200Y-167490237D02*
X132281961Y-167585475D01*
X132281961Y-167585475D02*
X132186723Y-167633094D01*
X132186723Y-167633094D02*
X131996247Y-167680713D01*
X131996247Y-167680713D02*
X131853390Y-167680713D01*
X131853390Y-167680713D02*
X131662914Y-167633094D01*
X131662914Y-167633094D02*
X131567676Y-167585475D01*
X131567676Y-167585475D02*
X131472438Y-167490237D01*
X131472438Y-167490237D02*
X131424819Y-167347380D01*
X131424819Y-167347380D02*
X131424819Y-167252142D01*
X131424819Y-167252142D02*
X131472438Y-167109285D01*
X131472438Y-167109285D02*
X131520057Y-167061666D01*
X131424819Y-166728332D02*
X131424819Y-166109285D01*
X131424819Y-166109285D02*
X131805771Y-166442618D01*
X131805771Y-166442618D02*
X131805771Y-166299761D01*
X131805771Y-166299761D02*
X131853390Y-166204523D01*
X131853390Y-166204523D02*
X131901009Y-166156904D01*
X131901009Y-166156904D02*
X131996247Y-166109285D01*
X131996247Y-166109285D02*
X132234342Y-166109285D01*
X132234342Y-166109285D02*
X132329580Y-166156904D01*
X132329580Y-166156904D02*
X132377200Y-166204523D01*
X132377200Y-166204523D02*
X132424819Y-166299761D01*
X132424819Y-166299761D02*
X132424819Y-166585475D01*
X132424819Y-166585475D02*
X132377200Y-166680713D01*
X132377200Y-166680713D02*
X132329580Y-166728332D01*
X228105656Y-114929580D02*
X228058037Y-114977200D01*
X228058037Y-114977200D02*
X227915180Y-115024819D01*
X227915180Y-115024819D02*
X227819942Y-115024819D01*
X227819942Y-115024819D02*
X227677085Y-114977200D01*
X227677085Y-114977200D02*
X227581847Y-114881961D01*
X227581847Y-114881961D02*
X227534228Y-114786723D01*
X227534228Y-114786723D02*
X227486609Y-114596247D01*
X227486609Y-114596247D02*
X227486609Y-114453390D01*
X227486609Y-114453390D02*
X227534228Y-114262914D01*
X227534228Y-114262914D02*
X227581847Y-114167676D01*
X227581847Y-114167676D02*
X227677085Y-114072438D01*
X227677085Y-114072438D02*
X227819942Y-114024819D01*
X227819942Y-114024819D02*
X227915180Y-114024819D01*
X227915180Y-114024819D02*
X228058037Y-114072438D01*
X228058037Y-114072438D02*
X228105656Y-114120057D01*
X228486609Y-114120057D02*
X228534228Y-114072438D01*
X228534228Y-114072438D02*
X228629466Y-114024819D01*
X228629466Y-114024819D02*
X228867561Y-114024819D01*
X228867561Y-114024819D02*
X228962799Y-114072438D01*
X228962799Y-114072438D02*
X229010418Y-114120057D01*
X229010418Y-114120057D02*
X229058037Y-114215295D01*
X229058037Y-114215295D02*
X229058037Y-114310533D01*
X229058037Y-114310533D02*
X229010418Y-114453390D01*
X229010418Y-114453390D02*
X228438990Y-115024819D01*
X228438990Y-115024819D02*
X229058037Y-115024819D01*
X150499580Y-102986666D02*
X150547200Y-103034285D01*
X150547200Y-103034285D02*
X150594819Y-103177142D01*
X150594819Y-103177142D02*
X150594819Y-103272380D01*
X150594819Y-103272380D02*
X150547200Y-103415237D01*
X150547200Y-103415237D02*
X150451961Y-103510475D01*
X150451961Y-103510475D02*
X150356723Y-103558094D01*
X150356723Y-103558094D02*
X150166247Y-103605713D01*
X150166247Y-103605713D02*
X150023390Y-103605713D01*
X150023390Y-103605713D02*
X149832914Y-103558094D01*
X149832914Y-103558094D02*
X149737676Y-103510475D01*
X149737676Y-103510475D02*
X149642438Y-103415237D01*
X149642438Y-103415237D02*
X149594819Y-103272380D01*
X149594819Y-103272380D02*
X149594819Y-103177142D01*
X149594819Y-103177142D02*
X149642438Y-103034285D01*
X149642438Y-103034285D02*
X149690057Y-102986666D01*
X149594819Y-102129523D02*
X149594819Y-102319999D01*
X149594819Y-102319999D02*
X149642438Y-102415237D01*
X149642438Y-102415237D02*
X149690057Y-102462856D01*
X149690057Y-102462856D02*
X149832914Y-102558094D01*
X149832914Y-102558094D02*
X150023390Y-102605713D01*
X150023390Y-102605713D02*
X150404342Y-102605713D01*
X150404342Y-102605713D02*
X150499580Y-102558094D01*
X150499580Y-102558094D02*
X150547200Y-102510475D01*
X150547200Y-102510475D02*
X150594819Y-102415237D01*
X150594819Y-102415237D02*
X150594819Y-102224761D01*
X150594819Y-102224761D02*
X150547200Y-102129523D01*
X150547200Y-102129523D02*
X150499580Y-102081904D01*
X150499580Y-102081904D02*
X150404342Y-102034285D01*
X150404342Y-102034285D02*
X150166247Y-102034285D01*
X150166247Y-102034285D02*
X150071009Y-102081904D01*
X150071009Y-102081904D02*
X150023390Y-102129523D01*
X150023390Y-102129523D02*
X149975771Y-102224761D01*
X149975771Y-102224761D02*
X149975771Y-102415237D01*
X149975771Y-102415237D02*
X150023390Y-102510475D01*
X150023390Y-102510475D02*
X150071009Y-102558094D01*
X150071009Y-102558094D02*
X150166247Y-102605713D01*
X126554819Y-175999523D02*
X127554819Y-175332857D01*
X126554819Y-175332857D02*
X127554819Y-175999523D01*
X126650057Y-174999523D02*
X126602438Y-174951904D01*
X126602438Y-174951904D02*
X126554819Y-174856666D01*
X126554819Y-174856666D02*
X126554819Y-174618571D01*
X126554819Y-174618571D02*
X126602438Y-174523333D01*
X126602438Y-174523333D02*
X126650057Y-174475714D01*
X126650057Y-174475714D02*
X126745295Y-174428095D01*
X126745295Y-174428095D02*
X126840533Y-174428095D01*
X126840533Y-174428095D02*
X126983390Y-174475714D01*
X126983390Y-174475714D02*
X127554819Y-175047142D01*
X127554819Y-175047142D02*
X127554819Y-174428095D01*
X186761905Y-111020535D02*
X186761905Y-110020535D01*
X186761905Y-110020535D02*
X187000000Y-110020535D01*
X187000000Y-110020535D02*
X187142857Y-110068154D01*
X187142857Y-110068154D02*
X187238095Y-110163392D01*
X187238095Y-110163392D02*
X187285714Y-110258630D01*
X187285714Y-110258630D02*
X187333333Y-110449106D01*
X187333333Y-110449106D02*
X187333333Y-110591963D01*
X187333333Y-110591963D02*
X187285714Y-110782439D01*
X187285714Y-110782439D02*
X187238095Y-110877677D01*
X187238095Y-110877677D02*
X187142857Y-110972916D01*
X187142857Y-110972916D02*
X187000000Y-111020535D01*
X187000000Y-111020535D02*
X186761905Y-111020535D01*
X188238095Y-110020535D02*
X187761905Y-110020535D01*
X187761905Y-110020535D02*
X187714286Y-110496725D01*
X187714286Y-110496725D02*
X187761905Y-110449106D01*
X187761905Y-110449106D02*
X187857143Y-110401487D01*
X187857143Y-110401487D02*
X188095238Y-110401487D01*
X188095238Y-110401487D02*
X188190476Y-110449106D01*
X188190476Y-110449106D02*
X188238095Y-110496725D01*
X188238095Y-110496725D02*
X188285714Y-110591963D01*
X188285714Y-110591963D02*
X188285714Y-110830058D01*
X188285714Y-110830058D02*
X188238095Y-110925296D01*
X188238095Y-110925296D02*
X188190476Y-110972916D01*
X188190476Y-110972916D02*
X188095238Y-111020535D01*
X188095238Y-111020535D02*
X187857143Y-111020535D01*
X187857143Y-111020535D02*
X187761905Y-110972916D01*
X187761905Y-110972916D02*
X187714286Y-110925296D01*
X182158095Y-111390535D02*
X182158095Y-110390535D01*
X182729523Y-111390535D02*
X182300952Y-110819106D01*
X182729523Y-110390535D02*
X182158095Y-110961963D01*
X172570476Y-159404819D02*
X172903809Y-160404819D01*
X172903809Y-160404819D02*
X173237142Y-159404819D01*
X173570476Y-160404819D02*
X173570476Y-159404819D01*
X173570476Y-159404819D02*
X173808571Y-159404819D01*
X173808571Y-159404819D02*
X173951428Y-159452438D01*
X173951428Y-159452438D02*
X174046666Y-159547676D01*
X174046666Y-159547676D02*
X174094285Y-159642914D01*
X174094285Y-159642914D02*
X174141904Y-159833390D01*
X174141904Y-159833390D02*
X174141904Y-159976247D01*
X174141904Y-159976247D02*
X174094285Y-160166723D01*
X174094285Y-160166723D02*
X174046666Y-160261961D01*
X174046666Y-160261961D02*
X173951428Y-160357200D01*
X173951428Y-160357200D02*
X173808571Y-160404819D01*
X173808571Y-160404819D02*
X173570476Y-160404819D01*
X175094285Y-160404819D02*
X174522857Y-160404819D01*
X174808571Y-160404819D02*
X174808571Y-159404819D01*
X174808571Y-159404819D02*
X174713333Y-159547676D01*
X174713333Y-159547676D02*
X174618095Y-159642914D01*
X174618095Y-159642914D02*
X174522857Y-159690533D01*
X211830476Y-121394819D02*
X212163809Y-122394819D01*
X212163809Y-122394819D02*
X212497142Y-121394819D01*
X212830476Y-122394819D02*
X212830476Y-121394819D01*
X212830476Y-121394819D02*
X213068571Y-121394819D01*
X213068571Y-121394819D02*
X213211428Y-121442438D01*
X213211428Y-121442438D02*
X213306666Y-121537676D01*
X213306666Y-121537676D02*
X213354285Y-121632914D01*
X213354285Y-121632914D02*
X213401904Y-121823390D01*
X213401904Y-121823390D02*
X213401904Y-121966247D01*
X213401904Y-121966247D02*
X213354285Y-122156723D01*
X213354285Y-122156723D02*
X213306666Y-122251961D01*
X213306666Y-122251961D02*
X213211428Y-122347200D01*
X213211428Y-122347200D02*
X213068571Y-122394819D01*
X213068571Y-122394819D02*
X212830476Y-122394819D01*
X213782857Y-121490057D02*
X213830476Y-121442438D01*
X213830476Y-121442438D02*
X213925714Y-121394819D01*
X213925714Y-121394819D02*
X214163809Y-121394819D01*
X214163809Y-121394819D02*
X214259047Y-121442438D01*
X214259047Y-121442438D02*
X214306666Y-121490057D01*
X214306666Y-121490057D02*
X214354285Y-121585295D01*
X214354285Y-121585295D02*
X214354285Y-121680533D01*
X214354285Y-121680533D02*
X214306666Y-121823390D01*
X214306666Y-121823390D02*
X213735238Y-122394819D01*
X213735238Y-122394819D02*
X214354285Y-122394819D01*
X206528095Y-123514819D02*
X206528095Y-122514819D01*
X207099523Y-123514819D02*
X206670952Y-122943390D01*
X207099523Y-122514819D02*
X206528095Y-123086247D01*
X117270476Y-80304819D02*
X117937142Y-81304819D01*
X117937142Y-80304819D02*
X117270476Y-81304819D01*
X118794285Y-80304819D02*
X118318095Y-80304819D01*
X118318095Y-80304819D02*
X118270476Y-80781009D01*
X118270476Y-80781009D02*
X118318095Y-80733390D01*
X118318095Y-80733390D02*
X118413333Y-80685771D01*
X118413333Y-80685771D02*
X118651428Y-80685771D01*
X118651428Y-80685771D02*
X118746666Y-80733390D01*
X118746666Y-80733390D02*
X118794285Y-80781009D01*
X118794285Y-80781009D02*
X118841904Y-80876247D01*
X118841904Y-80876247D02*
X118841904Y-81114342D01*
X118841904Y-81114342D02*
X118794285Y-81209580D01*
X118794285Y-81209580D02*
X118746666Y-81257200D01*
X118746666Y-81257200D02*
X118651428Y-81304819D01*
X118651428Y-81304819D02*
X118413333Y-81304819D01*
X118413333Y-81304819D02*
X118318095Y-81257200D01*
X118318095Y-81257200D02*
X118270476Y-81209580D01*
X186761905Y-101377679D02*
X186761905Y-100377679D01*
X186761905Y-100377679D02*
X187000000Y-100377679D01*
X187000000Y-100377679D02*
X187142857Y-100425298D01*
X187142857Y-100425298D02*
X187238095Y-100520536D01*
X187238095Y-100520536D02*
X187285714Y-100615774D01*
X187285714Y-100615774D02*
X187333333Y-100806250D01*
X187333333Y-100806250D02*
X187333333Y-100949107D01*
X187333333Y-100949107D02*
X187285714Y-101139583D01*
X187285714Y-101139583D02*
X187238095Y-101234821D01*
X187238095Y-101234821D02*
X187142857Y-101330060D01*
X187142857Y-101330060D02*
X187000000Y-101377679D01*
X187000000Y-101377679D02*
X186761905Y-101377679D01*
X187666667Y-100377679D02*
X188285714Y-100377679D01*
X188285714Y-100377679D02*
X187952381Y-100758631D01*
X187952381Y-100758631D02*
X188095238Y-100758631D01*
X188095238Y-100758631D02*
X188190476Y-100806250D01*
X188190476Y-100806250D02*
X188238095Y-100853869D01*
X188238095Y-100853869D02*
X188285714Y-100949107D01*
X188285714Y-100949107D02*
X188285714Y-101187202D01*
X188285714Y-101187202D02*
X188238095Y-101282440D01*
X188238095Y-101282440D02*
X188190476Y-101330060D01*
X188190476Y-101330060D02*
X188095238Y-101377679D01*
X188095238Y-101377679D02*
X187809524Y-101377679D01*
X187809524Y-101377679D02*
X187714286Y-101330060D01*
X187714286Y-101330060D02*
X187666667Y-101282440D01*
X182158095Y-101747679D02*
X182158095Y-100747679D01*
X182729523Y-101747679D02*
X182300952Y-101176250D01*
X182729523Y-100747679D02*
X182158095Y-101319107D01*
X186761905Y-130306247D02*
X186761905Y-129306247D01*
X186761905Y-129306247D02*
X187000000Y-129306247D01*
X187000000Y-129306247D02*
X187142857Y-129353866D01*
X187142857Y-129353866D02*
X187238095Y-129449104D01*
X187238095Y-129449104D02*
X187285714Y-129544342D01*
X187285714Y-129544342D02*
X187333333Y-129734818D01*
X187333333Y-129734818D02*
X187333333Y-129877675D01*
X187333333Y-129877675D02*
X187285714Y-130068151D01*
X187285714Y-130068151D02*
X187238095Y-130163389D01*
X187238095Y-130163389D02*
X187142857Y-130258628D01*
X187142857Y-130258628D02*
X187000000Y-130306247D01*
X187000000Y-130306247D02*
X186761905Y-130306247D01*
X187809524Y-130306247D02*
X188000000Y-130306247D01*
X188000000Y-130306247D02*
X188095238Y-130258628D01*
X188095238Y-130258628D02*
X188142857Y-130211008D01*
X188142857Y-130211008D02*
X188238095Y-130068151D01*
X188238095Y-130068151D02*
X188285714Y-129877675D01*
X188285714Y-129877675D02*
X188285714Y-129496723D01*
X188285714Y-129496723D02*
X188238095Y-129401485D01*
X188238095Y-129401485D02*
X188190476Y-129353866D01*
X188190476Y-129353866D02*
X188095238Y-129306247D01*
X188095238Y-129306247D02*
X187904762Y-129306247D01*
X187904762Y-129306247D02*
X187809524Y-129353866D01*
X187809524Y-129353866D02*
X187761905Y-129401485D01*
X187761905Y-129401485D02*
X187714286Y-129496723D01*
X187714286Y-129496723D02*
X187714286Y-129734818D01*
X187714286Y-129734818D02*
X187761905Y-129830056D01*
X187761905Y-129830056D02*
X187809524Y-129877675D01*
X187809524Y-129877675D02*
X187904762Y-129925294D01*
X187904762Y-129925294D02*
X188095238Y-129925294D01*
X188095238Y-129925294D02*
X188190476Y-129877675D01*
X188190476Y-129877675D02*
X188238095Y-129830056D01*
X188238095Y-129830056D02*
X188285714Y-129734818D01*
X182158095Y-130676247D02*
X182158095Y-129676247D01*
X182729523Y-130676247D02*
X182300952Y-130104818D01*
X182729523Y-129676247D02*
X182158095Y-130247675D01*
X186761905Y-120663391D02*
X186761905Y-119663391D01*
X186761905Y-119663391D02*
X187000000Y-119663391D01*
X187000000Y-119663391D02*
X187142857Y-119711010D01*
X187142857Y-119711010D02*
X187238095Y-119806248D01*
X187238095Y-119806248D02*
X187285714Y-119901486D01*
X187285714Y-119901486D02*
X187333333Y-120091962D01*
X187333333Y-120091962D02*
X187333333Y-120234819D01*
X187333333Y-120234819D02*
X187285714Y-120425295D01*
X187285714Y-120425295D02*
X187238095Y-120520533D01*
X187238095Y-120520533D02*
X187142857Y-120615772D01*
X187142857Y-120615772D02*
X187000000Y-120663391D01*
X187000000Y-120663391D02*
X186761905Y-120663391D01*
X187666667Y-119663391D02*
X188333333Y-119663391D01*
X188333333Y-119663391D02*
X187904762Y-120663391D01*
X182158095Y-121033391D02*
X182158095Y-120033391D01*
X182729523Y-121033391D02*
X182300952Y-120461962D01*
X182729523Y-120033391D02*
X182158095Y-120604819D01*
X111004819Y-156306666D02*
X110528628Y-156639999D01*
X111004819Y-156878094D02*
X110004819Y-156878094D01*
X110004819Y-156878094D02*
X110004819Y-156497142D01*
X110004819Y-156497142D02*
X110052438Y-156401904D01*
X110052438Y-156401904D02*
X110100057Y-156354285D01*
X110100057Y-156354285D02*
X110195295Y-156306666D01*
X110195295Y-156306666D02*
X110338152Y-156306666D01*
X110338152Y-156306666D02*
X110433390Y-156354285D01*
X110433390Y-156354285D02*
X110481009Y-156401904D01*
X110481009Y-156401904D02*
X110528628Y-156497142D01*
X110528628Y-156497142D02*
X110528628Y-156878094D01*
X111004819Y-155354285D02*
X111004819Y-155925713D01*
X111004819Y-155639999D02*
X110004819Y-155639999D01*
X110004819Y-155639999D02*
X110147676Y-155735237D01*
X110147676Y-155735237D02*
X110242914Y-155830475D01*
X110242914Y-155830475D02*
X110290533Y-155925713D01*
X137050476Y-80304819D02*
X137717142Y-81304819D01*
X137717142Y-80304819D02*
X137050476Y-81304819D01*
X138526666Y-80638152D02*
X138526666Y-81304819D01*
X138288571Y-80257200D02*
X138050476Y-80971485D01*
X138050476Y-80971485D02*
X138669523Y-80971485D01*
D15*
%TO.C,A1*%
X142384000Y-111690000D02*
X142384000Y-137090000D01*
X141749000Y-111690000D02*
X142384000Y-111690000D01*
X94124000Y-111690000D02*
X93362000Y-111690000D01*
X93362000Y-111690000D02*
X93362000Y-137090000D01*
X91965000Y-121215000D02*
X91965000Y-127565000D01*
X142384000Y-137090000D02*
X141749000Y-137090000D01*
X93362000Y-137090000D02*
X94124000Y-137090000D01*
X93235000Y-121215000D02*
X91965000Y-121215000D01*
X93235000Y-121215000D01*
X93235000Y-127565000D02*
X91965000Y-127565000D01*
X93235000Y-127565000D01*
D16*
%TO.C,C4*%
X138220000Y-164425000D02*
X138220000Y-169365000D01*
X138535000Y-164425000D02*
X138220000Y-164425000D01*
X138535000Y-169365000D02*
X138220000Y-169365000D01*
X140960000Y-164425000D02*
X140645000Y-164425000D01*
X140960000Y-164425000D02*
X140960000Y-169365000D01*
X140960000Y-169365000D02*
X140645000Y-169365000D01*
%TO.C,D8*%
X183760000Y-127500000D02*
X184780000Y-127500000D01*
X184780000Y-126030000D02*
X184780000Y-128970000D01*
X184780000Y-128970000D02*
X190220000Y-128970000D01*
X185560000Y-126030000D02*
X185560000Y-128970000D01*
X185680000Y-126030000D02*
X185680000Y-128970000D01*
X185800000Y-126030000D02*
X185800000Y-128970000D01*
X190220000Y-126030000D02*
X184780000Y-126030000D01*
X190220000Y-128970000D02*
X190220000Y-126030000D01*
X191240000Y-127500000D02*
X190220000Y-127500000D01*
%TO.C,C7*%
X166160000Y-108350000D02*
X166160000Y-113290000D01*
X166475000Y-108350000D02*
X166160000Y-108350000D01*
X166475000Y-113290000D02*
X166160000Y-113290000D01*
X168900000Y-108350000D02*
X168585000Y-108350000D01*
X168900000Y-108350000D02*
X168900000Y-113290000D01*
X168900000Y-113290000D02*
X168585000Y-113290000D01*
%TO.C,D4*%
X183760000Y-108214288D02*
X184780000Y-108214288D01*
X184780000Y-106744288D02*
X184780000Y-109684288D01*
X184780000Y-109684288D02*
X190220000Y-109684288D01*
X185560000Y-106744288D02*
X185560000Y-109684288D01*
X185680000Y-106744288D02*
X185680000Y-109684288D01*
X185800000Y-106744288D02*
X185800000Y-109684288D01*
X190220000Y-106744288D02*
X184780000Y-106744288D01*
X190220000Y-109684288D02*
X190220000Y-106744288D01*
X191240000Y-108214288D02*
X190220000Y-108214288D01*
%TO.C,X6*%
X93890000Y-143500000D02*
X93890000Y-142170000D01*
X95220000Y-143500000D02*
X93890000Y-143500000D01*
X96490000Y-140840000D02*
X142270000Y-140840000D01*
X96490000Y-143500000D02*
X96490000Y-140840000D01*
X96490000Y-143500000D02*
X142270000Y-143500000D01*
X142270000Y-143500000D02*
X142270000Y-140840000D01*
%TO.C,C1*%
X220240216Y-102895000D02*
X221540216Y-102895000D01*
X220890216Y-102245000D02*
X220890216Y-103545000D01*
X227324785Y-100030000D02*
X227324785Y-113190000D01*
X227364785Y-100030000D02*
X227364785Y-113190000D01*
X227404785Y-100030000D02*
X227404785Y-113190000D01*
X227444785Y-100031000D02*
X227444785Y-113189000D01*
X227484785Y-100031000D02*
X227484785Y-113189000D01*
X227524785Y-100033000D02*
X227524785Y-113187000D01*
X227564785Y-100034000D02*
X227564785Y-113186000D01*
X227604785Y-100035000D02*
X227604785Y-113185000D01*
X227644785Y-100037000D02*
X227644785Y-113183000D01*
X227684785Y-100039000D02*
X227684785Y-113181000D01*
X227724785Y-100042000D02*
X227724785Y-113178000D01*
X227764785Y-100044000D02*
X227764785Y-113176000D01*
X227804785Y-100047000D02*
X227804785Y-113173000D01*
X227844785Y-100050000D02*
X227844785Y-113170000D01*
X227884785Y-100053000D02*
X227884785Y-113167000D01*
X227924785Y-100057000D02*
X227924785Y-113163000D01*
X227964785Y-100061000D02*
X227964785Y-113159000D01*
X228004785Y-100065000D02*
X228004785Y-113155000D01*
X228045785Y-100069000D02*
X228045785Y-113151000D01*
X228085785Y-100073000D02*
X228085785Y-113147000D01*
X228125785Y-100078000D02*
X228125785Y-113142000D01*
X228165785Y-100083000D02*
X228165785Y-113137000D01*
X228205785Y-100088000D02*
X228205785Y-113132000D01*
X228245785Y-100094000D02*
X228245785Y-113126000D01*
X228285785Y-100099000D02*
X228285785Y-113121000D01*
X228325785Y-100105000D02*
X228325785Y-113115000D01*
X228365785Y-100112000D02*
X228365785Y-113108000D01*
X228405785Y-100118000D02*
X228405785Y-105170000D01*
X228405785Y-108050000D02*
X228405785Y-113102000D01*
X228445785Y-100125000D02*
X228445785Y-105170000D01*
X228445785Y-108050000D02*
X228445785Y-113095000D01*
X228485785Y-100132000D02*
X228485785Y-105170000D01*
X228485785Y-108050000D02*
X228485785Y-113088000D01*
X228525785Y-100139000D02*
X228525785Y-105170000D01*
X228525785Y-108050000D02*
X228525785Y-113081000D01*
X228565785Y-100147000D02*
X228565785Y-105170000D01*
X228565785Y-108050000D02*
X228565785Y-113073000D01*
X228605785Y-100154000D02*
X228605785Y-105170000D01*
X228605785Y-108050000D02*
X228605785Y-113066000D01*
X228645785Y-100162000D02*
X228645785Y-105170000D01*
X228645785Y-108050000D02*
X228645785Y-113058000D01*
X228685785Y-100171000D02*
X228685785Y-105170000D01*
X228685785Y-108050000D02*
X228685785Y-113049000D01*
X228725785Y-100179000D02*
X228725785Y-105170000D01*
X228725785Y-108050000D02*
X228725785Y-113041000D01*
X228765785Y-100188000D02*
X228765785Y-105170000D01*
X228765785Y-108050000D02*
X228765785Y-113032000D01*
X228805785Y-100197000D02*
X228805785Y-105170000D01*
X228805785Y-108050000D02*
X228805785Y-113023000D01*
X228845785Y-100206000D02*
X228845785Y-105170000D01*
X228845785Y-108050000D02*
X228845785Y-113014000D01*
X228885785Y-100216000D02*
X228885785Y-105170000D01*
X228885785Y-108050000D02*
X228885785Y-113004000D01*
X228925785Y-100226000D02*
X228925785Y-105170000D01*
X228925785Y-108050000D02*
X228925785Y-112994000D01*
X228965785Y-100236000D02*
X228965785Y-105170000D01*
X228965785Y-108050000D02*
X228965785Y-112984000D01*
X229005785Y-100246000D02*
X229005785Y-105170000D01*
X229005785Y-108050000D02*
X229005785Y-112974000D01*
X229045785Y-100257000D02*
X229045785Y-105170000D01*
X229045785Y-108050000D02*
X229045785Y-112963000D01*
X229085785Y-100268000D02*
X229085785Y-105170000D01*
X229085785Y-108050000D02*
X229085785Y-112952000D01*
X229125785Y-100279000D02*
X229125785Y-105170000D01*
X229125785Y-108050000D02*
X229125785Y-112941000D01*
X229165785Y-100290000D02*
X229165785Y-105170000D01*
X229165785Y-108050000D02*
X229165785Y-112930000D01*
X229205785Y-100302000D02*
X229205785Y-105170000D01*
X229205785Y-108050000D02*
X229205785Y-112918000D01*
X229245785Y-100314000D02*
X229245785Y-105170000D01*
X229245785Y-108050000D02*
X229245785Y-112906000D01*
X229285785Y-100326000D02*
X229285785Y-105170000D01*
X229285785Y-108050000D02*
X229285785Y-112894000D01*
X229325785Y-100339000D02*
X229325785Y-105170000D01*
X229325785Y-108050000D02*
X229325785Y-112881000D01*
X229365785Y-100352000D02*
X229365785Y-105170000D01*
X229365785Y-108050000D02*
X229365785Y-112868000D01*
X229405785Y-100365000D02*
X229405785Y-105170000D01*
X229405785Y-108050000D02*
X229405785Y-112855000D01*
X229445785Y-100378000D02*
X229445785Y-105170000D01*
X229445785Y-108050000D02*
X229445785Y-112842000D01*
X229485785Y-100392000D02*
X229485785Y-105170000D01*
X229485785Y-108050000D02*
X229485785Y-112828000D01*
X229525785Y-100406000D02*
X229525785Y-105170000D01*
X229525785Y-108050000D02*
X229525785Y-112814000D01*
X229565785Y-100420000D02*
X229565785Y-105170000D01*
X229565785Y-108050000D02*
X229565785Y-112800000D01*
X229605785Y-100435000D02*
X229605785Y-105170000D01*
X229605785Y-108050000D02*
X229605785Y-112785000D01*
X229645785Y-100449000D02*
X229645785Y-105170000D01*
X229645785Y-108050000D02*
X229645785Y-112771000D01*
X229685785Y-100464000D02*
X229685785Y-105170000D01*
X229685785Y-108050000D02*
X229685785Y-112756000D01*
X229725785Y-100480000D02*
X229725785Y-105170000D01*
X229725785Y-108050000D02*
X229725785Y-112740000D01*
X229765785Y-100496000D02*
X229765785Y-105170000D01*
X229765785Y-108050000D02*
X229765785Y-112724000D01*
X229805785Y-100512000D02*
X229805785Y-105170000D01*
X229805785Y-108050000D02*
X229805785Y-112708000D01*
X229845785Y-100528000D02*
X229845785Y-105170000D01*
X229845785Y-108050000D02*
X229845785Y-112692000D01*
X229885785Y-100545000D02*
X229885785Y-105170000D01*
X229885785Y-108050000D02*
X229885785Y-112675000D01*
X229925785Y-100561000D02*
X229925785Y-105170000D01*
X229925785Y-108050000D02*
X229925785Y-112659000D01*
X229965785Y-100579000D02*
X229965785Y-105170000D01*
X229965785Y-108050000D02*
X229965785Y-112641000D01*
X230005785Y-100596000D02*
X230005785Y-105170000D01*
X230005785Y-108050000D02*
X230005785Y-112624000D01*
X230045785Y-100614000D02*
X230045785Y-105170000D01*
X230045785Y-108050000D02*
X230045785Y-112606000D01*
X230085785Y-100632000D02*
X230085785Y-105170000D01*
X230085785Y-108050000D02*
X230085785Y-112588000D01*
X230125785Y-100651000D02*
X230125785Y-105170000D01*
X230125785Y-108050000D02*
X230125785Y-112569000D01*
X230165785Y-100670000D02*
X230165785Y-105170000D01*
X230165785Y-108050000D02*
X230165785Y-112550000D01*
X230205785Y-100689000D02*
X230205785Y-105170000D01*
X230205785Y-108050000D02*
X230205785Y-112531000D01*
X230245785Y-100708000D02*
X230245785Y-105170000D01*
X230245785Y-108050000D02*
X230245785Y-112512000D01*
X230285785Y-100728000D02*
X230285785Y-105170000D01*
X230285785Y-108050000D02*
X230285785Y-112492000D01*
X230325785Y-100748000D02*
X230325785Y-105170000D01*
X230325785Y-108050000D02*
X230325785Y-112472000D01*
X230365785Y-100769000D02*
X230365785Y-105170000D01*
X230365785Y-108050000D02*
X230365785Y-112451000D01*
X230405785Y-100790000D02*
X230405785Y-105170000D01*
X230405785Y-108050000D02*
X230405785Y-112430000D01*
X230445785Y-100811000D02*
X230445785Y-105170000D01*
X230445785Y-108050000D02*
X230445785Y-112409000D01*
X230485785Y-100832000D02*
X230485785Y-105170000D01*
X230485785Y-108050000D02*
X230485785Y-112388000D01*
X230525785Y-100854000D02*
X230525785Y-105170000D01*
X230525785Y-108050000D02*
X230525785Y-112366000D01*
X230565785Y-100877000D02*
X230565785Y-105170000D01*
X230565785Y-108050000D02*
X230565785Y-112343000D01*
X230605785Y-100899000D02*
X230605785Y-105170000D01*
X230605785Y-108050000D02*
X230605785Y-112321000D01*
X230645785Y-100922000D02*
X230645785Y-105170000D01*
X230645785Y-108050000D02*
X230645785Y-112298000D01*
X230685785Y-100946000D02*
X230685785Y-105170000D01*
X230685785Y-108050000D02*
X230685785Y-112274000D01*
X230725785Y-100969000D02*
X230725785Y-105170000D01*
X230725785Y-108050000D02*
X230725785Y-112251000D01*
X230765785Y-100993000D02*
X230765785Y-105170000D01*
X230765785Y-108050000D02*
X230765785Y-112227000D01*
X230805785Y-101018000D02*
X230805785Y-105170000D01*
X230805785Y-108050000D02*
X230805785Y-112202000D01*
X230845785Y-101043000D02*
X230845785Y-105170000D01*
X230845785Y-108050000D02*
X230845785Y-112177000D01*
X230885785Y-101068000D02*
X230885785Y-105170000D01*
X230885785Y-108050000D02*
X230885785Y-112152000D01*
X230925785Y-101094000D02*
X230925785Y-105170000D01*
X230925785Y-108050000D02*
X230925785Y-112126000D01*
X230965785Y-101120000D02*
X230965785Y-105170000D01*
X230965785Y-108050000D02*
X230965785Y-112100000D01*
X231005785Y-101147000D02*
X231005785Y-105170000D01*
X231005785Y-108050000D02*
X231005785Y-112073000D01*
X231045785Y-101174000D02*
X231045785Y-105170000D01*
X231045785Y-108050000D02*
X231045785Y-112046000D01*
X231085785Y-101201000D02*
X231085785Y-105170000D01*
X231085785Y-108050000D02*
X231085785Y-112019000D01*
X231125785Y-101229000D02*
X231125785Y-105170000D01*
X231125785Y-108050000D02*
X231125785Y-111991000D01*
X231165785Y-101257000D02*
X231165785Y-105170000D01*
X231165785Y-108050000D02*
X231165785Y-111963000D01*
X231205785Y-101286000D02*
X231205785Y-105170000D01*
X231205785Y-108050000D02*
X231205785Y-111934000D01*
X231245785Y-101315000D02*
X231245785Y-105170000D01*
X231245785Y-108050000D02*
X231245785Y-111905000D01*
X231285785Y-101345000D02*
X231285785Y-111875000D01*
X231325785Y-101375000D02*
X231325785Y-111845000D01*
X231365785Y-101405000D02*
X231365785Y-111815000D01*
X231405785Y-101436000D02*
X231405785Y-111784000D01*
X231445785Y-101468000D02*
X231445785Y-111752000D01*
X231485785Y-101500000D02*
X231485785Y-111720000D01*
X231525785Y-101532000D02*
X231525785Y-111688000D01*
X231565785Y-101566000D02*
X231565785Y-111654000D01*
X231605785Y-101599000D02*
X231605785Y-111621000D01*
X231645785Y-101633000D02*
X231645785Y-111587000D01*
X231685785Y-101668000D02*
X231685785Y-111552000D01*
X231725785Y-101703000D02*
X231725785Y-111517000D01*
X231765785Y-101739000D02*
X231765785Y-111481000D01*
X231805785Y-101776000D02*
X231805785Y-111444000D01*
X231845785Y-101813000D02*
X231845785Y-111407000D01*
X231885785Y-101850000D02*
X231885785Y-111370000D01*
X231925785Y-101889000D02*
X231925785Y-111331000D01*
X231965785Y-101928000D02*
X231965785Y-111292000D01*
X232005785Y-101967000D02*
X232005785Y-111253000D01*
X232045785Y-102008000D02*
X232045785Y-111212000D01*
X232085785Y-102049000D02*
X232085785Y-111171000D01*
X232125785Y-102091000D02*
X232125785Y-111129000D01*
X232165785Y-102133000D02*
X232165785Y-111087000D01*
X232205785Y-102176000D02*
X232205785Y-111044000D01*
X232245785Y-102220000D02*
X232245785Y-111000000D01*
X232285785Y-102265000D02*
X232285785Y-110955000D01*
X232325785Y-102311000D02*
X232325785Y-110909000D01*
X232365785Y-102357000D02*
X232365785Y-110863000D01*
X232405785Y-102405000D02*
X232405785Y-110815000D01*
X232445785Y-102453000D02*
X232445785Y-110767000D01*
X232485785Y-102502000D02*
X232485785Y-110718000D01*
X232525785Y-102553000D02*
X232525785Y-110667000D01*
X232565785Y-102604000D02*
X232565785Y-110616000D01*
X232605785Y-102656000D02*
X232605785Y-110564000D01*
X232645785Y-102710000D02*
X232645785Y-110510000D01*
X232685785Y-102764000D02*
X232685785Y-110456000D01*
X232725785Y-102820000D02*
X232725785Y-110400000D01*
X232765785Y-102877000D02*
X232765785Y-110343000D01*
X232805785Y-102935000D02*
X232805785Y-110285000D01*
X232845785Y-102995000D02*
X232845785Y-110225000D01*
X232885785Y-103056000D02*
X232885785Y-110164000D01*
X232925785Y-103119000D02*
X232925785Y-110101000D01*
X232965785Y-103183000D02*
X232965785Y-110037000D01*
X233005785Y-103249000D02*
X233005785Y-109971000D01*
X233045785Y-103317000D02*
X233045785Y-109903000D01*
X233085785Y-103387000D02*
X233085785Y-109833000D01*
X233125785Y-103458000D02*
X233125785Y-109762000D01*
X233165785Y-103532000D02*
X233165785Y-109688000D01*
X233205785Y-103608000D02*
X233205785Y-109612000D01*
X233245785Y-103687000D02*
X233245785Y-109533000D01*
X233285785Y-103768000D02*
X233285785Y-109452000D01*
X233325785Y-103852000D02*
X233325785Y-109368000D01*
X233365785Y-103940000D02*
X233365785Y-109280000D01*
X233405785Y-104031000D02*
X233405785Y-109189000D01*
X233445785Y-104126000D02*
X233445785Y-109094000D01*
X233485785Y-104225000D02*
X233485785Y-108995000D01*
X233525785Y-104329000D02*
X233525785Y-108891000D01*
X233565785Y-104439000D02*
X233565785Y-108781000D01*
X233605785Y-104555000D02*
X233605785Y-108665000D01*
X233645785Y-104679000D02*
X233645785Y-108541000D01*
X233685785Y-104812000D02*
X233685785Y-108408000D01*
X233725785Y-104957000D02*
X233725785Y-108263000D01*
X233765785Y-105116000D02*
X233765785Y-108104000D01*
X233805785Y-105295000D02*
X233805785Y-107925000D01*
X233845785Y-105503000D02*
X233845785Y-107717000D01*
X233885785Y-105760000D02*
X233885785Y-107460000D01*
X233925785Y-106135000D02*
X233925785Y-107085000D01*
X233944785Y-106610000D02*
G75*
G02*
X220704785Y-106610000I-6620000J0D01*
G01*
X220704785Y-106610000D02*
G75*
G02*
X233944785Y-106610000I6620000J0D01*
G01*
%TO.C,C9*%
X106470000Y-151130000D02*
X106470000Y-156070000D01*
X106785000Y-151130000D02*
X106470000Y-151130000D01*
X106785000Y-156070000D02*
X106470000Y-156070000D01*
X109210000Y-151130000D02*
X108895000Y-151130000D01*
X109210000Y-151130000D02*
X109210000Y-156070000D01*
X109210000Y-156070000D02*
X108895000Y-156070000D01*
%TO.C,X1*%
X168660000Y-175845000D02*
X168660000Y-176585000D01*
X168660000Y-176585000D02*
X169160000Y-176585000D01*
X168900000Y-166424000D02*
X168900000Y-176345000D01*
X168900000Y-166424000D02*
X189021000Y-166424000D01*
X168900000Y-169384000D02*
X189021000Y-169384000D01*
X168900000Y-174285000D02*
X189021000Y-174285000D01*
X168900000Y-175785000D02*
X189021000Y-175785000D01*
X168900000Y-176345000D02*
X189021000Y-176345000D01*
X175233000Y-172708000D02*
X175186000Y-172754000D01*
X175426000Y-172924000D02*
X175391000Y-172959000D01*
X177530000Y-170410000D02*
X177495000Y-170446000D01*
X177735000Y-170616000D02*
X177688000Y-170662000D01*
X180233000Y-172708000D02*
X180186000Y-172754000D01*
X180426000Y-172924000D02*
X180391000Y-172959000D01*
X182530000Y-170410000D02*
X182495000Y-170446000D01*
X182735000Y-170616000D02*
X182688000Y-170662000D01*
X185233000Y-172708000D02*
X185186000Y-172754000D01*
X185426000Y-172924000D02*
X185391000Y-172959000D01*
X187530000Y-170410000D02*
X187495000Y-170446000D01*
X187735000Y-170616000D02*
X187688000Y-170662000D01*
X189021000Y-166424000D02*
X189021000Y-176345000D01*
X169924573Y-172368042D02*
G75*
G02*
X169925000Y-171001000I1535420J683041D01*
G01*
X170776958Y-170149573D02*
G75*
G02*
X172144000Y-170150000I683041J-1535420D01*
G01*
X171488805Y-173365253D02*
G75*
G02*
X170776000Y-173220000I-28806J1680254D01*
G01*
X172143318Y-173219756D02*
G75*
G02*
X171460000Y-173365000I-683318J1534756D01*
G01*
X172995427Y-171001958D02*
G75*
G02*
X172995000Y-172369000I-1535427J-683042D01*
G01*
X178140000Y-171685000D02*
G75*
G02*
X174780000Y-171685000I-1680000J0D01*
G01*
X174780000Y-171685000D02*
G75*
G02*
X178140000Y-171685000I1680000J0D01*
G01*
X183140000Y-171685000D02*
G75*
G02*
X179780000Y-171685000I-1680000J0D01*
G01*
X179780000Y-171685000D02*
G75*
G02*
X183140000Y-171685000I1680000J0D01*
G01*
X188140000Y-171685000D02*
G75*
G02*
X184780000Y-171685000I-1680000J0D01*
G01*
X184780000Y-171685000D02*
G75*
G02*
X188140000Y-171685000I1680000J0D01*
G01*
%TO.C,D10*%
X183760000Y-137142860D02*
X184780000Y-137142860D01*
X184780000Y-135672860D02*
X184780000Y-138612860D01*
X184780000Y-138612860D02*
X190220000Y-138612860D01*
X185560000Y-135672860D02*
X185560000Y-138612860D01*
X185680000Y-135672860D02*
X185680000Y-138612860D01*
X185800000Y-135672860D02*
X185800000Y-138612860D01*
X190220000Y-135672860D02*
X184780000Y-135672860D01*
X190220000Y-138612860D02*
X190220000Y-135672860D01*
X191240000Y-137142860D02*
X190220000Y-137142860D01*
%TO.C,R2*%
X116630000Y-152870000D02*
X116630000Y-159410000D01*
X116630000Y-159410000D02*
X119370000Y-159410000D01*
X118000000Y-152100000D02*
X118000000Y-152870000D01*
X118000000Y-160180000D02*
X118000000Y-159410000D01*
X119370000Y-152870000D02*
X116630000Y-152870000D01*
X119370000Y-159410000D02*
X119370000Y-152870000D01*
%TO.C,C5*%
X146520000Y-159850000D02*
X152980000Y-159850000D01*
X146520000Y-159890000D02*
X152980000Y-159890000D01*
X146520000Y-159930000D02*
X152980000Y-159930000D01*
X146522000Y-159810000D02*
X152978000Y-159810000D01*
X146523000Y-159770000D02*
X152977000Y-159770000D01*
X146526000Y-159730000D02*
X152974000Y-159730000D01*
X146528000Y-159690000D02*
X148710000Y-159690000D01*
X146532000Y-159650000D02*
X148710000Y-159650000D01*
X146535000Y-159610000D02*
X148710000Y-159610000D01*
X146539000Y-159570000D02*
X148710000Y-159570000D01*
X146544000Y-159530000D02*
X148710000Y-159530000D01*
X146549000Y-159490000D02*
X148710000Y-159490000D01*
X146555000Y-159450000D02*
X148710000Y-159450000D01*
X146561000Y-159410000D02*
X148710000Y-159410000D01*
X146568000Y-159370000D02*
X148710000Y-159370000D01*
X146575000Y-159330000D02*
X148710000Y-159330000D01*
X146583000Y-159290000D02*
X148710000Y-159290000D01*
X146591000Y-159250000D02*
X148710000Y-159250000D01*
X146600000Y-159209000D02*
X148710000Y-159209000D01*
X146609000Y-159169000D02*
X148710000Y-159169000D01*
X146619000Y-159129000D02*
X148710000Y-159129000D01*
X146629000Y-159089000D02*
X148710000Y-159089000D01*
X146640000Y-159049000D02*
X148710000Y-159049000D01*
X146652000Y-159009000D02*
X148710000Y-159009000D01*
X146664000Y-158969000D02*
X148710000Y-158969000D01*
X146676000Y-158929000D02*
X148710000Y-158929000D01*
X146689000Y-158889000D02*
X148710000Y-158889000D01*
X146703000Y-158849000D02*
X148710000Y-158849000D01*
X146717000Y-158809000D02*
X148710000Y-158809000D01*
X146732000Y-158769000D02*
X148710000Y-158769000D01*
X146748000Y-158729000D02*
X148710000Y-158729000D01*
X146764000Y-158689000D02*
X148710000Y-158689000D01*
X146780000Y-158649000D02*
X148710000Y-158649000D01*
X146798000Y-158609000D02*
X148710000Y-158609000D01*
X146816000Y-158569000D02*
X148710000Y-158569000D01*
X146834000Y-158529000D02*
X148710000Y-158529000D01*
X146854000Y-158489000D02*
X148710000Y-158489000D01*
X146874000Y-158449000D02*
X148710000Y-158449000D01*
X146894000Y-158409000D02*
X148710000Y-158409000D01*
X146916000Y-158369000D02*
X148710000Y-158369000D01*
X146938000Y-158329000D02*
X148710000Y-158329000D01*
X146960000Y-158289000D02*
X148710000Y-158289000D01*
X146984000Y-158249000D02*
X148710000Y-158249000D01*
X147008000Y-158209000D02*
X148710000Y-158209000D01*
X147034000Y-158169000D02*
X148710000Y-158169000D01*
X147060000Y-158129000D02*
X148710000Y-158129000D01*
X147086000Y-158089000D02*
X148710000Y-158089000D01*
X147114000Y-158049000D02*
X148710000Y-158049000D01*
X147143000Y-158009000D02*
X148710000Y-158009000D01*
X147172000Y-157969000D02*
X148710000Y-157969000D01*
X147202000Y-157929000D02*
X148710000Y-157929000D01*
X147234000Y-157889000D02*
X148710000Y-157889000D01*
X147266000Y-157849000D02*
X148710000Y-157849000D01*
X147300000Y-157809000D02*
X148710000Y-157809000D01*
X147334000Y-157769000D02*
X148710000Y-157769000D01*
X147370000Y-157729000D02*
X148710000Y-157729000D01*
X147407000Y-157689000D02*
X148710000Y-157689000D01*
X147445000Y-157649000D02*
X148710000Y-157649000D01*
X147485000Y-157609000D02*
X152015000Y-157609000D01*
X147526000Y-157569000D02*
X151974000Y-157569000D01*
X147568000Y-157529000D02*
X151932000Y-157529000D01*
X147596000Y-163115241D02*
X148226000Y-163115241D01*
X147613000Y-157489000D02*
X151887000Y-157489000D01*
X147658000Y-157449000D02*
X151842000Y-157449000D01*
X147706000Y-157409000D02*
X151794000Y-157409000D01*
X147755000Y-157369000D02*
X151745000Y-157369000D01*
X147806000Y-157329000D02*
X151694000Y-157329000D01*
X147860000Y-157289000D02*
X151640000Y-157289000D01*
X147911000Y-163430241D02*
X147911000Y-162800241D01*
X147916000Y-157249000D02*
X151584000Y-157249000D01*
X147974000Y-157209000D02*
X151526000Y-157209000D01*
X148036000Y-157169000D02*
X151464000Y-157169000D01*
X148100000Y-157129000D02*
X151400000Y-157129000D01*
X148169000Y-157089000D02*
X151331000Y-157089000D01*
X148241000Y-157049000D02*
X151259000Y-157049000D01*
X148318000Y-157009000D02*
X151182000Y-157009000D01*
X148400000Y-156969000D02*
X151100000Y-156969000D01*
X148488000Y-156929000D02*
X151012000Y-156929000D01*
X148585000Y-156889000D02*
X150915000Y-156889000D01*
X148691000Y-156849000D02*
X150809000Y-156849000D01*
X148810000Y-156809000D02*
X150690000Y-156809000D01*
X148948000Y-156769000D02*
X150552000Y-156769000D01*
X149117000Y-156729000D02*
X150383000Y-156729000D01*
X149348000Y-156689000D02*
X150152000Y-156689000D01*
X150790000Y-157649000D02*
X152055000Y-157649000D01*
X150790000Y-157689000D02*
X152093000Y-157689000D01*
X150790000Y-157729000D02*
X152130000Y-157729000D01*
X150790000Y-157769000D02*
X152166000Y-157769000D01*
X150790000Y-157809000D02*
X152200000Y-157809000D01*
X150790000Y-157849000D02*
X152234000Y-157849000D01*
X150790000Y-157889000D02*
X152266000Y-157889000D01*
X150790000Y-157929000D02*
X152298000Y-157929000D01*
X150790000Y-157969000D02*
X152328000Y-157969000D01*
X150790000Y-158009000D02*
X152357000Y-158009000D01*
X150790000Y-158049000D02*
X152386000Y-158049000D01*
X150790000Y-158089000D02*
X152414000Y-158089000D01*
X150790000Y-158129000D02*
X152440000Y-158129000D01*
X150790000Y-158169000D02*
X152466000Y-158169000D01*
X150790000Y-158209000D02*
X152492000Y-158209000D01*
X150790000Y-158249000D02*
X152516000Y-158249000D01*
X150790000Y-158289000D02*
X152540000Y-158289000D01*
X150790000Y-158329000D02*
X152562000Y-158329000D01*
X150790000Y-158369000D02*
X152584000Y-158369000D01*
X150790000Y-158409000D02*
X152606000Y-158409000D01*
X150790000Y-158449000D02*
X152626000Y-158449000D01*
X150790000Y-158489000D02*
X152646000Y-158489000D01*
X150790000Y-158529000D02*
X152666000Y-158529000D01*
X150790000Y-158569000D02*
X152684000Y-158569000D01*
X150790000Y-158609000D02*
X152702000Y-158609000D01*
X150790000Y-158649000D02*
X152720000Y-158649000D01*
X150790000Y-158689000D02*
X152736000Y-158689000D01*
X150790000Y-158729000D02*
X152752000Y-158729000D01*
X150790000Y-158769000D02*
X152768000Y-158769000D01*
X150790000Y-158809000D02*
X152783000Y-158809000D01*
X150790000Y-158849000D02*
X152797000Y-158849000D01*
X150790000Y-158889000D02*
X152811000Y-158889000D01*
X150790000Y-158929000D02*
X152824000Y-158929000D01*
X150790000Y-158969000D02*
X152836000Y-158969000D01*
X150790000Y-159009000D02*
X152848000Y-159009000D01*
X150790000Y-159049000D02*
X152860000Y-159049000D01*
X150790000Y-159089000D02*
X152871000Y-159089000D01*
X150790000Y-159129000D02*
X152881000Y-159129000D01*
X150790000Y-159169000D02*
X152891000Y-159169000D01*
X150790000Y-159209000D02*
X152900000Y-159209000D01*
X150790000Y-159250000D02*
X152909000Y-159250000D01*
X150790000Y-159290000D02*
X152917000Y-159290000D01*
X150790000Y-159330000D02*
X152925000Y-159330000D01*
X150790000Y-159370000D02*
X152932000Y-159370000D01*
X150790000Y-159410000D02*
X152939000Y-159410000D01*
X150790000Y-159450000D02*
X152945000Y-159450000D01*
X150790000Y-159490000D02*
X152951000Y-159490000D01*
X150790000Y-159530000D02*
X152956000Y-159530000D01*
X150790000Y-159570000D02*
X152961000Y-159570000D01*
X150790000Y-159610000D02*
X152965000Y-159610000D01*
X150790000Y-159650000D02*
X152968000Y-159650000D01*
X150790000Y-159690000D02*
X152972000Y-159690000D01*
X153020000Y-159930000D02*
G75*
G02*
X146480000Y-159930000I-3270000J0D01*
G01*
X146480000Y-159930000D02*
G75*
G02*
X153020000Y-159930000I3270000J0D01*
G01*
%TO.C,DA2*%
X131930000Y-157950000D02*
X131930000Y-162591000D01*
X131930000Y-157950000D02*
X142170000Y-157950000D01*
X131930000Y-159460000D02*
X142170000Y-159460000D01*
X131930000Y-162591000D02*
X142170000Y-162591000D01*
X135200000Y-157950000D02*
X135200000Y-159460000D01*
X138901000Y-157950000D02*
X138901000Y-159460000D01*
X142170000Y-157950000D02*
X142170000Y-162591000D01*
%TO.C,D6*%
X183760000Y-117857144D02*
X184780000Y-117857144D01*
X184780000Y-116387144D02*
X184780000Y-119327144D01*
X184780000Y-119327144D02*
X190220000Y-119327144D01*
X185560000Y-116387144D02*
X185560000Y-119327144D01*
X185680000Y-116387144D02*
X185680000Y-119327144D01*
X185800000Y-116387144D02*
X185800000Y-119327144D01*
X190220000Y-116387144D02*
X184780000Y-116387144D01*
X190220000Y-119327144D02*
X190220000Y-116387144D01*
X191240000Y-117857144D02*
X190220000Y-117857144D01*
%TO.C,DA1*%
X204729000Y-95590000D02*
X204729000Y-100231000D01*
X204729000Y-95590000D02*
X214970000Y-95590000D01*
X204729000Y-97099000D02*
X214970000Y-97099000D01*
X204729000Y-100231000D02*
X207085000Y-100231000D01*
X206450000Y-100231000D02*
X206450000Y-102861000D01*
X208000000Y-95590000D02*
X208000000Y-97099000D01*
X209215000Y-100231000D02*
X210485000Y-100231000D01*
X209850000Y-100231000D02*
X209850000Y-102845000D01*
X211700000Y-95590000D02*
X211700000Y-97099000D01*
X212615000Y-100231000D02*
X214970000Y-100231000D01*
X213250000Y-100231000D02*
X213250000Y-102845000D01*
X214970000Y-95590000D02*
X214970000Y-100231000D01*
%TO.C,C8*%
X121710000Y-151170000D02*
X121710000Y-156110000D01*
X122025000Y-151170000D02*
X121710000Y-151170000D01*
X122025000Y-156110000D02*
X121710000Y-156110000D01*
X124450000Y-151170000D02*
X124135000Y-151170000D01*
X124450000Y-151170000D02*
X124450000Y-156110000D01*
X124450000Y-156110000D02*
X124135000Y-156110000D01*
%TO.C,R4*%
X101390000Y-152870000D02*
X101390000Y-159410000D01*
X101390000Y-159410000D02*
X104130000Y-159410000D01*
X102760000Y-152100000D02*
X102760000Y-152870000D01*
X102760000Y-160180000D02*
X102760000Y-159410000D01*
X104130000Y-152870000D02*
X101390000Y-152870000D01*
X104130000Y-159410000D02*
X104130000Y-152870000D01*
%TO.C,X7*%
X93810000Y-107940000D02*
X93810000Y-106610000D01*
X95140000Y-107940000D02*
X93810000Y-107940000D01*
X96410000Y-105280000D02*
X142190000Y-105280000D01*
X96410000Y-107940000D02*
X96410000Y-105280000D01*
X96410000Y-107940000D02*
X142190000Y-107940000D01*
X142190000Y-107940000D02*
X142190000Y-105280000D01*
%TO.C,X3*%
X103970000Y-176520000D02*
X103970000Y-175190000D01*
X105300000Y-176520000D02*
X103970000Y-176520000D01*
X106570000Y-173860000D02*
X121870000Y-173860000D01*
X106570000Y-176520000D02*
X106570000Y-173860000D01*
X106570000Y-176520000D02*
X121870000Y-176520000D01*
X121870000Y-176520000D02*
X121870000Y-173860000D01*
%TO.C,DA3*%
X156020000Y-95640000D02*
X156020000Y-100881000D01*
X156020000Y-95640000D02*
X176460000Y-95640000D01*
X156020000Y-97480000D02*
X176460000Y-97480000D01*
X156020000Y-100881000D02*
X157696000Y-100881000D01*
X157350000Y-100881000D02*
X157350000Y-104290000D01*
X159545000Y-100881000D02*
X160236000Y-100881000D01*
X159890000Y-100881000D02*
X159890000Y-104275000D01*
X162085000Y-100881000D02*
X162776000Y-100881000D01*
X162430000Y-100881000D02*
X162430000Y-104275000D01*
X164391000Y-95640000D02*
X164391000Y-97480000D01*
X164625000Y-100881000D02*
X165316000Y-100881000D01*
X164970000Y-100881000D02*
X164970000Y-104275000D01*
X167165000Y-100881000D02*
X167856000Y-100881000D01*
X167510000Y-100881000D02*
X167510000Y-104275000D01*
X168090000Y-95640000D02*
X168090000Y-97480000D01*
X169705000Y-100881000D02*
X170396000Y-100881000D01*
X170050000Y-100881000D02*
X170050000Y-104275000D01*
X172245000Y-100881000D02*
X172936000Y-100881000D01*
X172590000Y-100881000D02*
X172590000Y-104275000D01*
X174785000Y-100881000D02*
X176460000Y-100881000D01*
X175130000Y-100881000D02*
X175130000Y-104275000D01*
X176460000Y-95640000D02*
X176460000Y-100881000D01*
%TO.C,R3*%
X96310000Y-152870000D02*
X96310000Y-159410000D01*
X96310000Y-159410000D02*
X99050000Y-159410000D01*
X97680000Y-152100000D02*
X97680000Y-152870000D01*
X97680000Y-160180000D02*
X97680000Y-159410000D01*
X99050000Y-152870000D02*
X96310000Y-152870000D01*
X99050000Y-159410000D02*
X99050000Y-152870000D01*
%TO.C,L1*%
X213910000Y-114230000D02*
G75*
G02*
X204970000Y-114230000I-4470000J0D01*
G01*
X204970000Y-114230000D02*
G75*
G02*
X213910000Y-114230000I4470000J0D01*
G01*
D14*
%TO.C,HS1*%
X150250000Y-83100000D02*
X150250000Y-81100000D01*
X150250000Y-87100000D02*
X150250000Y-85100000D01*
X150250000Y-91100000D02*
X150250000Y-89100000D01*
X150250000Y-95100000D02*
X150250000Y-93350000D01*
X155750000Y-83100000D02*
X150250000Y-83100000D01*
X155750000Y-85100000D02*
X150250000Y-85100000D01*
X155750000Y-85100000D02*
X155750000Y-83100000D01*
X155750000Y-87100000D02*
X150250000Y-87100000D01*
X155750000Y-89100000D02*
X150250000Y-89100000D01*
X155750000Y-89100000D02*
X155750000Y-87100000D01*
X155750000Y-91100000D02*
X150250000Y-91100000D01*
X155750000Y-93350000D02*
X150250000Y-93350000D01*
X155750000Y-93350000D02*
X155750000Y-91100000D01*
X158750000Y-81100000D02*
X150250000Y-81100000D01*
X158750000Y-89100000D02*
X158750000Y-81100000D01*
X158750000Y-92100000D02*
X158750000Y-91100000D01*
X164500000Y-92350000D02*
X164500000Y-92100000D01*
X164500000Y-93350000D02*
X164500000Y-92850000D01*
X164500000Y-94350000D02*
X164500000Y-93850000D01*
X164500000Y-94850000D02*
X164500000Y-95100000D01*
X168000000Y-92350000D02*
X168000000Y-92100000D01*
X168000000Y-93350000D02*
X168000000Y-92850000D01*
X168000000Y-94350000D02*
X168000000Y-93850000D01*
X168000000Y-94850000D02*
X168000000Y-95100000D01*
X173750000Y-81100000D02*
X182250000Y-81100000D01*
X173750000Y-89100000D02*
X173750000Y-81100000D01*
X173750000Y-92100000D02*
X158750000Y-92100000D01*
X173750000Y-92100000D02*
X173750000Y-91100000D01*
X176750000Y-83100000D02*
X182250000Y-83100000D01*
X176750000Y-85100000D02*
X176750000Y-83100000D01*
X176750000Y-87100000D02*
X182250000Y-87100000D01*
X176750000Y-89100000D02*
X176750000Y-87100000D01*
X176750000Y-91100000D02*
X182250000Y-91100000D01*
X176750000Y-93350000D02*
X176750000Y-91100000D01*
X176750000Y-93350000D02*
X182250000Y-93350000D01*
X182250000Y-83100000D02*
X182250000Y-81100000D01*
X182250000Y-85100000D02*
X176750000Y-85100000D01*
X182250000Y-87100000D02*
X182250000Y-85100000D01*
X182250000Y-89100000D02*
X176750000Y-89100000D01*
X182250000Y-91100000D02*
X182250000Y-89100000D01*
X182250000Y-93350000D02*
X182250000Y-95100000D01*
X182250000Y-95100000D02*
X150250000Y-95100000D01*
D16*
%TO.C,C3*%
X133140000Y-164425000D02*
X133140000Y-169365000D01*
X133455000Y-164425000D02*
X133140000Y-164425000D01*
X133455000Y-169365000D02*
X133140000Y-169365000D01*
X135880000Y-164425000D02*
X135565000Y-164425000D01*
X135880000Y-164425000D02*
X135880000Y-169365000D01*
X135880000Y-169365000D02*
X135565000Y-169365000D01*
%TO.C,C2*%
X222792677Y-117945000D02*
X223792677Y-117945000D01*
X223292677Y-117445000D02*
X223292677Y-118445000D01*
X228272323Y-115740000D02*
X228272323Y-125900000D01*
X228312323Y-115740000D02*
X228312323Y-125900000D01*
X228352323Y-115740000D02*
X228352323Y-125900000D01*
X228392323Y-115741000D02*
X228392323Y-125899000D01*
X228432323Y-115742000D02*
X228432323Y-125898000D01*
X228472323Y-115743000D02*
X228472323Y-125897000D01*
X228512323Y-115745000D02*
X228512323Y-125895000D01*
X228552323Y-115747000D02*
X228552323Y-125893000D01*
X228592323Y-115750000D02*
X228592323Y-125890000D01*
X228632323Y-115752000D02*
X228632323Y-125888000D01*
X228672323Y-115755000D02*
X228672323Y-125885000D01*
X228712323Y-115758000D02*
X228712323Y-125882000D01*
X228752323Y-115762000D02*
X228752323Y-125878000D01*
X228792323Y-115766000D02*
X228792323Y-119579000D01*
X228792323Y-122061000D02*
X228792323Y-125874000D01*
X228832323Y-115770000D02*
X228832323Y-119579000D01*
X228832323Y-122061000D02*
X228832323Y-125870000D01*
X228872323Y-115775000D02*
X228872323Y-119579000D01*
X228872323Y-122061000D02*
X228872323Y-125865000D01*
X228912323Y-115780000D02*
X228912323Y-119579000D01*
X228912323Y-122061000D02*
X228912323Y-125860000D01*
X228952323Y-115785000D02*
X228952323Y-119579000D01*
X228952323Y-122061000D02*
X228952323Y-125855000D01*
X228993323Y-115790000D02*
X228993323Y-119579000D01*
X228993323Y-122061000D02*
X228993323Y-125850000D01*
X229033323Y-115796000D02*
X229033323Y-119579000D01*
X229033323Y-122061000D02*
X229033323Y-125844000D01*
X229073323Y-115802000D02*
X229073323Y-119579000D01*
X229073323Y-122061000D02*
X229073323Y-125838000D01*
X229113323Y-115809000D02*
X229113323Y-119579000D01*
X229113323Y-122061000D02*
X229113323Y-125831000D01*
X229153323Y-115816000D02*
X229153323Y-119579000D01*
X229153323Y-122061000D02*
X229153323Y-125824000D01*
X229193323Y-115823000D02*
X229193323Y-119579000D01*
X229193323Y-122061000D02*
X229193323Y-125817000D01*
X229233323Y-115830000D02*
X229233323Y-119579000D01*
X229233323Y-122061000D02*
X229233323Y-125810000D01*
X229273323Y-115838000D02*
X229273323Y-119579000D01*
X229273323Y-122061000D02*
X229273323Y-125802000D01*
X229313323Y-115846000D02*
X229313323Y-119579000D01*
X229313323Y-122061000D02*
X229313323Y-125794000D01*
X229353323Y-115855000D02*
X229353323Y-119579000D01*
X229353323Y-122061000D02*
X229353323Y-125785000D01*
X229393323Y-115864000D02*
X229393323Y-119579000D01*
X229393323Y-122061000D02*
X229393323Y-125776000D01*
X229433323Y-115873000D02*
X229433323Y-119579000D01*
X229433323Y-122061000D02*
X229433323Y-125767000D01*
X229473323Y-115882000D02*
X229473323Y-119579000D01*
X229473323Y-122061000D02*
X229473323Y-125758000D01*
X229513323Y-115892000D02*
X229513323Y-119579000D01*
X229513323Y-122061000D02*
X229513323Y-125748000D01*
X229553323Y-115902000D02*
X229553323Y-119579000D01*
X229553323Y-122061000D02*
X229553323Y-125738000D01*
X229593323Y-115913000D02*
X229593323Y-119579000D01*
X229593323Y-122061000D02*
X229593323Y-125727000D01*
X229633323Y-115923000D02*
X229633323Y-119579000D01*
X229633323Y-122061000D02*
X229633323Y-125717000D01*
X229673323Y-115935000D02*
X229673323Y-119579000D01*
X229673323Y-122061000D02*
X229673323Y-125705000D01*
X229713323Y-115946000D02*
X229713323Y-119579000D01*
X229713323Y-122061000D02*
X229713323Y-125694000D01*
X229753323Y-115958000D02*
X229753323Y-119579000D01*
X229753323Y-122061000D02*
X229753323Y-125682000D01*
X229793323Y-115970000D02*
X229793323Y-119579000D01*
X229793323Y-122061000D02*
X229793323Y-125670000D01*
X229833323Y-115983000D02*
X229833323Y-119579000D01*
X229833323Y-122061000D02*
X229833323Y-125657000D01*
X229873323Y-115996000D02*
X229873323Y-119579000D01*
X229873323Y-122061000D02*
X229873323Y-125644000D01*
X229913323Y-116009000D02*
X229913323Y-119579000D01*
X229913323Y-122061000D02*
X229913323Y-125631000D01*
X229953323Y-116023000D02*
X229953323Y-119579000D01*
X229953323Y-122061000D02*
X229953323Y-125617000D01*
X229993323Y-116037000D02*
X229993323Y-119579000D01*
X229993323Y-122061000D02*
X229993323Y-125603000D01*
X230033323Y-116052000D02*
X230033323Y-119579000D01*
X230033323Y-122061000D02*
X230033323Y-125588000D01*
X230073323Y-116066000D02*
X230073323Y-119579000D01*
X230073323Y-122061000D02*
X230073323Y-125574000D01*
X230113323Y-116082000D02*
X230113323Y-119579000D01*
X230113323Y-122061000D02*
X230113323Y-125558000D01*
X230153323Y-116097000D02*
X230153323Y-119579000D01*
X230153323Y-122061000D02*
X230153323Y-125543000D01*
X230193323Y-116113000D02*
X230193323Y-119579000D01*
X230193323Y-122061000D02*
X230193323Y-125527000D01*
X230233323Y-116130000D02*
X230233323Y-119579000D01*
X230233323Y-122061000D02*
X230233323Y-125510000D01*
X230273323Y-116146000D02*
X230273323Y-119579000D01*
X230273323Y-122061000D02*
X230273323Y-125494000D01*
X230313323Y-116163000D02*
X230313323Y-119579000D01*
X230313323Y-122061000D02*
X230313323Y-125477000D01*
X230353323Y-116181000D02*
X230353323Y-119579000D01*
X230353323Y-122061000D02*
X230353323Y-125459000D01*
X230393323Y-116199000D02*
X230393323Y-119579000D01*
X230393323Y-122061000D02*
X230393323Y-125441000D01*
X230433323Y-116217000D02*
X230433323Y-119579000D01*
X230433323Y-122061000D02*
X230433323Y-125423000D01*
X230473323Y-116236000D02*
X230473323Y-119579000D01*
X230473323Y-122061000D02*
X230473323Y-125404000D01*
X230513323Y-116256000D02*
X230513323Y-119579000D01*
X230513323Y-122061000D02*
X230513323Y-125384000D01*
X230553323Y-116275000D02*
X230553323Y-119579000D01*
X230553323Y-122061000D02*
X230553323Y-125365000D01*
X230593323Y-116295000D02*
X230593323Y-119579000D01*
X230593323Y-122061000D02*
X230593323Y-125345000D01*
X230633323Y-116316000D02*
X230633323Y-119579000D01*
X230633323Y-122061000D02*
X230633323Y-125324000D01*
X230673323Y-116337000D02*
X230673323Y-119579000D01*
X230673323Y-122061000D02*
X230673323Y-125303000D01*
X230713323Y-116358000D02*
X230713323Y-119579000D01*
X230713323Y-122061000D02*
X230713323Y-125282000D01*
X230753323Y-116380000D02*
X230753323Y-119579000D01*
X230753323Y-122061000D02*
X230753323Y-125260000D01*
X230793323Y-116403000D02*
X230793323Y-119579000D01*
X230793323Y-122061000D02*
X230793323Y-125237000D01*
X230833323Y-116425000D02*
X230833323Y-119579000D01*
X230833323Y-122061000D02*
X230833323Y-125215000D01*
X230873323Y-116449000D02*
X230873323Y-119579000D01*
X230873323Y-122061000D02*
X230873323Y-125191000D01*
X230913323Y-116473000D02*
X230913323Y-119579000D01*
X230913323Y-122061000D02*
X230913323Y-125167000D01*
X230953323Y-116497000D02*
X230953323Y-119579000D01*
X230953323Y-122061000D02*
X230953323Y-125143000D01*
X230993323Y-116522000D02*
X230993323Y-119579000D01*
X230993323Y-122061000D02*
X230993323Y-125118000D01*
X231033323Y-116547000D02*
X231033323Y-119579000D01*
X231033323Y-122061000D02*
X231033323Y-125093000D01*
X231073323Y-116573000D02*
X231073323Y-119579000D01*
X231073323Y-122061000D02*
X231073323Y-125067000D01*
X231113323Y-116599000D02*
X231113323Y-119579000D01*
X231113323Y-122061000D02*
X231113323Y-125041000D01*
X231153323Y-116626000D02*
X231153323Y-119579000D01*
X231153323Y-122061000D02*
X231153323Y-125014000D01*
X231193323Y-116654000D02*
X231193323Y-119579000D01*
X231193323Y-122061000D02*
X231193323Y-124986000D01*
X231233323Y-116682000D02*
X231233323Y-119579000D01*
X231233323Y-122061000D02*
X231233323Y-124958000D01*
X231273323Y-116710000D02*
X231273323Y-124930000D01*
X231313323Y-116740000D02*
X231313323Y-124900000D01*
X231353323Y-116770000D02*
X231353323Y-124870000D01*
X231393323Y-116800000D02*
X231393323Y-124840000D01*
X231433323Y-116831000D02*
X231433323Y-124809000D01*
X231473323Y-116863000D02*
X231473323Y-124777000D01*
X231513323Y-116895000D02*
X231513323Y-124745000D01*
X231553323Y-116928000D02*
X231553323Y-124712000D01*
X231593323Y-116962000D02*
X231593323Y-124678000D01*
X231633323Y-116996000D02*
X231633323Y-124644000D01*
X231673323Y-117031000D02*
X231673323Y-124609000D01*
X231713323Y-117067000D02*
X231713323Y-124573000D01*
X231753323Y-117104000D02*
X231753323Y-124536000D01*
X231793323Y-117141000D02*
X231793323Y-124499000D01*
X231833323Y-117180000D02*
X231833323Y-124460000D01*
X231873323Y-117219000D02*
X231873323Y-124421000D01*
X231913323Y-117259000D02*
X231913323Y-124381000D01*
X231953323Y-117300000D02*
X231953323Y-124340000D01*
X231993323Y-117342000D02*
X231993323Y-124298000D01*
X232033323Y-117384000D02*
X232033323Y-124256000D01*
X232073323Y-117428000D02*
X232073323Y-124212000D01*
X232113323Y-117473000D02*
X232113323Y-124167000D01*
X232153323Y-117519000D02*
X232153323Y-124121000D01*
X232193323Y-117566000D02*
X232193323Y-124074000D01*
X232233323Y-117614000D02*
X232233323Y-124026000D01*
X232273323Y-117664000D02*
X232273323Y-123976000D01*
X232313323Y-117714000D02*
X232313323Y-123926000D01*
X232353323Y-117766000D02*
X232353323Y-123874000D01*
X232393323Y-117820000D02*
X232393323Y-123820000D01*
X232433323Y-117875000D02*
X232433323Y-123765000D01*
X232473323Y-117931000D02*
X232473323Y-123709000D01*
X232513323Y-117990000D02*
X232513323Y-123650000D01*
X232553323Y-118050000D02*
X232553323Y-123590000D01*
X232593323Y-118111000D02*
X232593323Y-123529000D01*
X232633323Y-118175000D02*
X232633323Y-123465000D01*
X232673323Y-118241000D02*
X232673323Y-123399000D01*
X232713323Y-118310000D02*
X232713323Y-123330000D01*
X232753323Y-118381000D02*
X232753323Y-123259000D01*
X232793323Y-118455000D02*
X232793323Y-123185000D01*
X232833323Y-118531000D02*
X232833323Y-123109000D01*
X232873323Y-118611000D02*
X232873323Y-123029000D01*
X232913323Y-118695000D02*
X232913323Y-122945000D01*
X232953323Y-118783000D02*
X232953323Y-122857000D01*
X232993323Y-118876000D02*
X232993323Y-122764000D01*
X233033323Y-118974000D02*
X233033323Y-122666000D01*
X233073323Y-119078000D02*
X233073323Y-122562000D01*
X233113323Y-119190000D02*
X233113323Y-122450000D01*
X233153323Y-119310000D02*
X233153323Y-122330000D01*
X233193323Y-119442000D02*
X233193323Y-122198000D01*
X233233323Y-119590000D02*
X233233323Y-122050000D01*
X233273323Y-119758000D02*
X233273323Y-121882000D01*
X233313323Y-119958000D02*
X233313323Y-121682000D01*
X233353323Y-120221000D02*
X233353323Y-121419000D01*
X233392323Y-120820000D02*
G75*
G02*
X223152323Y-120820000I-5120000J0D01*
G01*
X223152323Y-120820000D02*
G75*
G02*
X233392323Y-120820000I5120000J0D01*
G01*
%TO.C,C6*%
X151770000Y-100350000D02*
X151770000Y-105290000D01*
X152085000Y-100350000D02*
X151770000Y-100350000D01*
X152085000Y-105290000D02*
X151770000Y-105290000D01*
X154510000Y-100350000D02*
X154195000Y-100350000D01*
X154510000Y-100350000D02*
X154510000Y-105290000D01*
X154510000Y-105290000D02*
X154195000Y-105290000D01*
%TO.C,X2*%
X128100000Y-176520000D02*
X128100000Y-175190000D01*
X129430000Y-176520000D02*
X128100000Y-176520000D01*
X130700000Y-173860000D02*
X146000000Y-173860000D01*
X130700000Y-176520000D02*
X130700000Y-173860000D01*
X130700000Y-176520000D02*
X146000000Y-176520000D01*
X146000000Y-176520000D02*
X146000000Y-173860000D01*
%TO.C,D5*%
X183760000Y-113035716D02*
X184780000Y-113035716D01*
X184780000Y-111565716D02*
X184780000Y-114505716D01*
X184780000Y-114505716D02*
X190220000Y-114505716D01*
X185560000Y-111565716D02*
X185560000Y-114505716D01*
X185680000Y-111565716D02*
X185680000Y-114505716D01*
X185800000Y-111565716D02*
X185800000Y-114505716D01*
X190220000Y-111565716D02*
X184780000Y-111565716D01*
X190220000Y-114505716D02*
X190220000Y-111565716D01*
X191240000Y-113035716D02*
X190220000Y-113035716D01*
%TO.C,VD1*%
X176240000Y-161490000D02*
X172230000Y-161490000D01*
X176240000Y-163490000D02*
X172230000Y-163490000D01*
X176240000Y-163490000D02*
X176240000Y-161490000D01*
%TO.C,VD2*%
X208270000Y-122940000D02*
X218010000Y-122940000D01*
X208270000Y-123820000D02*
X208270000Y-122940000D01*
X208270000Y-127500000D02*
X208270000Y-128380000D01*
X208270000Y-128380000D02*
X218010000Y-128380000D01*
X209695000Y-122940000D02*
X209695000Y-128380000D01*
X209815000Y-122940000D02*
X209815000Y-128380000D01*
X209935000Y-122940000D02*
X209935000Y-128380000D01*
X218010000Y-122940000D02*
X218010000Y-123820000D01*
X218010000Y-128380000D02*
X218010000Y-127500000D01*
%TO.C,X5*%
X110720000Y-81640000D02*
X110720000Y-82890000D01*
X111020000Y-81940000D02*
X111020000Y-86660000D01*
X111020000Y-83250000D02*
X111630000Y-83250000D01*
X111020000Y-84550000D02*
X111630000Y-84550000D01*
X111020000Y-86660000D02*
X125140000Y-86660000D01*
X111630000Y-82550000D02*
X111630000Y-86050000D01*
X111630000Y-86050000D02*
X124530000Y-86050000D01*
X111970000Y-81640000D02*
X110720000Y-81640000D01*
X112480000Y-81740000D02*
X112480000Y-81940000D01*
X112780000Y-81740000D02*
X112480000Y-81740000D01*
X112780000Y-81840000D02*
X112480000Y-81840000D01*
X112780000Y-81940000D02*
X112780000Y-81740000D01*
X113580000Y-81940000D02*
X113580000Y-82550000D01*
X113580000Y-82550000D02*
X111630000Y-82550000D01*
X113980000Y-85550000D02*
X114180000Y-85550000D01*
X113980000Y-86050000D02*
X113980000Y-85550000D01*
X114080000Y-86050000D02*
X114080000Y-85550000D01*
X114180000Y-85550000D02*
X114180000Y-86050000D01*
X115980000Y-85550000D02*
X116180000Y-85550000D01*
X115980000Y-86050000D02*
X115980000Y-85550000D01*
X116080000Y-86050000D02*
X116080000Y-85550000D01*
X116180000Y-85550000D02*
X116180000Y-86050000D01*
X117980000Y-85550000D02*
X118180000Y-85550000D01*
X117980000Y-86050000D02*
X117980000Y-85550000D01*
X118080000Y-86050000D02*
X118080000Y-85550000D01*
X118180000Y-85550000D02*
X118180000Y-86050000D01*
X119980000Y-85550000D02*
X120180000Y-85550000D01*
X119980000Y-86050000D02*
X119980000Y-85550000D01*
X120080000Y-86050000D02*
X120080000Y-85550000D01*
X120180000Y-85550000D02*
X120180000Y-86050000D01*
X121980000Y-85550000D02*
X122180000Y-85550000D01*
X121980000Y-86050000D02*
X121980000Y-85550000D01*
X122080000Y-86050000D02*
X122080000Y-85550000D01*
X122180000Y-85550000D02*
X122180000Y-86050000D01*
X122580000Y-82550000D02*
X122580000Y-81940000D01*
X124530000Y-82550000D02*
X122580000Y-82550000D01*
X124530000Y-86050000D02*
X124530000Y-82550000D01*
X125140000Y-81940000D02*
X111020000Y-81940000D01*
X125140000Y-83250000D02*
X124530000Y-83250000D01*
X125140000Y-84550000D02*
X124530000Y-84550000D01*
X125140000Y-86660000D02*
X125140000Y-81940000D01*
%TO.C,D3*%
X183760000Y-103392860D02*
X184780000Y-103392860D01*
X184780000Y-101922860D02*
X184780000Y-104862860D01*
X184780000Y-104862860D02*
X190220000Y-104862860D01*
X185560000Y-101922860D02*
X185560000Y-104862860D01*
X185680000Y-101922860D02*
X185680000Y-104862860D01*
X185800000Y-101922860D02*
X185800000Y-104862860D01*
X190220000Y-101922860D02*
X184780000Y-101922860D01*
X190220000Y-104862860D02*
X190220000Y-101922860D01*
X191240000Y-103392860D02*
X190220000Y-103392860D01*
%TO.C,D9*%
X183760000Y-132321428D02*
X184780000Y-132321428D01*
X184780000Y-130851428D02*
X184780000Y-133791428D01*
X184780000Y-133791428D02*
X190220000Y-133791428D01*
X185560000Y-130851428D02*
X185560000Y-133791428D01*
X185680000Y-130851428D02*
X185680000Y-133791428D01*
X185800000Y-130851428D02*
X185800000Y-133791428D01*
X190220000Y-130851428D02*
X184780000Y-130851428D01*
X190220000Y-133791428D02*
X190220000Y-130851428D01*
X191240000Y-132321428D02*
X190220000Y-132321428D01*
%TO.C,D7*%
X183760000Y-122678572D02*
X184780000Y-122678572D01*
X184780000Y-121208572D02*
X184780000Y-124148572D01*
X184780000Y-124148572D02*
X190220000Y-124148572D01*
X185560000Y-121208572D02*
X185560000Y-124148572D01*
X185680000Y-121208572D02*
X185680000Y-124148572D01*
X185800000Y-121208572D02*
X185800000Y-124148572D01*
X190220000Y-121208572D02*
X184780000Y-121208572D01*
X190220000Y-124148572D02*
X190220000Y-121208572D01*
X191240000Y-122678572D02*
X190220000Y-122678572D01*
%TO.C,R1*%
X111550000Y-152870000D02*
X111550000Y-159410000D01*
X111550000Y-159410000D02*
X114290000Y-159410000D01*
X112920000Y-152100000D02*
X112920000Y-152870000D01*
X112920000Y-160180000D02*
X112920000Y-159410000D01*
X114290000Y-152870000D02*
X111550000Y-152870000D01*
X114290000Y-159410000D02*
X114290000Y-152870000D01*
D14*
%TO.C,HS2*%
X193420000Y-83100000D02*
X193420000Y-81100000D01*
X193420000Y-87100000D02*
X193420000Y-85100000D01*
X193420000Y-91100000D02*
X193420000Y-89100000D01*
X193420000Y-95100000D02*
X193420000Y-93350000D01*
X198920000Y-83100000D02*
X193420000Y-83100000D01*
X198920000Y-85100000D02*
X193420000Y-85100000D01*
X198920000Y-85100000D02*
X198920000Y-83100000D01*
X198920000Y-87100000D02*
X193420000Y-87100000D01*
X198920000Y-89100000D02*
X193420000Y-89100000D01*
X198920000Y-89100000D02*
X198920000Y-87100000D01*
X198920000Y-91100000D02*
X193420000Y-91100000D01*
X198920000Y-93350000D02*
X193420000Y-93350000D01*
X198920000Y-93350000D02*
X198920000Y-91100000D01*
X201920000Y-81100000D02*
X193420000Y-81100000D01*
X201920000Y-89100000D02*
X201920000Y-81100000D01*
X201920000Y-92100000D02*
X201920000Y-91100000D01*
X207670000Y-92350000D02*
X207670000Y-92100000D01*
X207670000Y-93350000D02*
X207670000Y-92850000D01*
X207670000Y-94350000D02*
X207670000Y-93850000D01*
X207670000Y-94850000D02*
X207670000Y-95100000D01*
X211170000Y-92350000D02*
X211170000Y-92100000D01*
X211170000Y-93350000D02*
X211170000Y-92850000D01*
X211170000Y-94350000D02*
X211170000Y-93850000D01*
X211170000Y-94850000D02*
X211170000Y-95100000D01*
X216920000Y-81100000D02*
X225420000Y-81100000D01*
X216920000Y-89100000D02*
X216920000Y-81100000D01*
X216920000Y-92100000D02*
X201920000Y-92100000D01*
X216920000Y-92100000D02*
X216920000Y-91100000D01*
X219920000Y-83100000D02*
X225420000Y-83100000D01*
X219920000Y-85100000D02*
X219920000Y-83100000D01*
X219920000Y-87100000D02*
X225420000Y-87100000D01*
X219920000Y-89100000D02*
X219920000Y-87100000D01*
X219920000Y-91100000D02*
X225420000Y-91100000D01*
X219920000Y-93350000D02*
X219920000Y-91100000D01*
X219920000Y-93350000D02*
X225420000Y-93350000D01*
X225420000Y-83100000D02*
X225420000Y-81100000D01*
X225420000Y-85100000D02*
X219920000Y-85100000D01*
X225420000Y-87100000D02*
X225420000Y-85100000D01*
X225420000Y-89100000D02*
X219920000Y-89100000D01*
X225420000Y-91100000D02*
X225420000Y-89100000D01*
X225420000Y-93350000D02*
X225420000Y-95100000D01*
X225420000Y-95100000D02*
X193420000Y-95100000D01*
D16*
%TO.C,X4*%
X130500000Y-81640000D02*
X130500000Y-82890000D01*
X130800000Y-81940000D02*
X130800000Y-86660000D01*
X130800000Y-83250000D02*
X131410000Y-83250000D01*
X130800000Y-84550000D02*
X131410000Y-84550000D01*
X130800000Y-86660000D02*
X144920000Y-86660000D01*
X131410000Y-82550000D02*
X131410000Y-86050000D01*
X131410000Y-86050000D02*
X144310000Y-86050000D01*
X131750000Y-81640000D02*
X130500000Y-81640000D01*
X132260000Y-81740000D02*
X132260000Y-81940000D01*
X132560000Y-81740000D02*
X132260000Y-81740000D01*
X132560000Y-81840000D02*
X132260000Y-81840000D01*
X132560000Y-81940000D02*
X132560000Y-81740000D01*
X133360000Y-81940000D02*
X133360000Y-82550000D01*
X133360000Y-82550000D02*
X131410000Y-82550000D01*
X133760000Y-85550000D02*
X133960000Y-85550000D01*
X133760000Y-86050000D02*
X133760000Y-85550000D01*
X133860000Y-86050000D02*
X133860000Y-85550000D01*
X133960000Y-85550000D02*
X133960000Y-86050000D01*
X135760000Y-85550000D02*
X135960000Y-85550000D01*
X135760000Y-86050000D02*
X135760000Y-85550000D01*
X135860000Y-86050000D02*
X135860000Y-85550000D01*
X135960000Y-85550000D02*
X135960000Y-86050000D01*
X137760000Y-85550000D02*
X137960000Y-85550000D01*
X137760000Y-86050000D02*
X137760000Y-85550000D01*
X137860000Y-86050000D02*
X137860000Y-85550000D01*
X137960000Y-85550000D02*
X137960000Y-86050000D01*
X139760000Y-85550000D02*
X139960000Y-85550000D01*
X139760000Y-86050000D02*
X139760000Y-85550000D01*
X139860000Y-86050000D02*
X139860000Y-85550000D01*
X139960000Y-85550000D02*
X139960000Y-86050000D01*
X141760000Y-85550000D02*
X141960000Y-85550000D01*
X141760000Y-86050000D02*
X141760000Y-85550000D01*
X141860000Y-86050000D02*
X141860000Y-85550000D01*
X141960000Y-85550000D02*
X141960000Y-86050000D01*
X142360000Y-82550000D02*
X142360000Y-81940000D01*
X144310000Y-82550000D02*
X142360000Y-82550000D01*
X144310000Y-86050000D02*
X144310000Y-82550000D01*
X144920000Y-81940000D02*
X130800000Y-81940000D01*
X144920000Y-83250000D02*
X144310000Y-83250000D01*
X144920000Y-84550000D02*
X144310000Y-84550000D01*
X144920000Y-86660000D02*
X144920000Y-81940000D01*
%TD*%
M02*
