<?xml version="1.0"?>
<!DOCTYPE svg PUBLIC "-//W3C//DTD SVG 1.1//EN" "http://www.w3.org/Graphics/SVG/1.1/DTD/svg11.dtd">
<svg width="306.0mm" height="176.0mm" viewBox="0 0 306.0 176.0" xmlns="http://www.w3.org/2000/svg" version="1.1">
<g id="Sketch" transform="translate(153.000000,88.000000) scale(1,-1)">
<path id="Sketch_w0000"  d="M -150.0 85.0 L -150.0 -85.0 L 150.0 -85.0 L 150.0 85.0 L -150.0 85.0 " stroke="#212529" stroke-width="0.7 px" style="stroke-width:0.7;stroke-miterlimit:4;stroke-dasharray:none;stroke-linecap:square;fill:none;fill-opacity:1;fill-rule: evenodd"/>
<circle cx="140.0" cy="75.0" r="1.5" stroke="#212529" stroke-width="0.7 px" style="stroke-width:0.7;stroke-miterlimit:4;stroke-dasharray:none;stroke-linecap:square;fill:none"/>
<circle cx="-140.0" cy="75.0" r="1.5" stroke="#212529" stroke-width="0.7 px" style="stroke-width:0.7;stroke-miterlimit:4;stroke-dasharray:none;stroke-linecap:square;fill:none"/>
<circle cx="-140.0" cy="-75.0" r="1.5" stroke="#212529" stroke-width="0.7 px" style="stroke-width:0.7;stroke-miterlimit:4;stroke-dasharray:none;stroke-linecap:square;fill:none"/>
<circle cx="140.0" cy="-75.0" r="1.5" stroke="#212529" stroke-width="0.7 px" style="stroke-width:0.7;stroke-miterlimit:4;stroke-dasharray:none;stroke-linecap:square;fill:none"/>
<circle cx="-75.0" cy="-39.0" r="2.5" stroke="#212529" stroke-width="0.7 px" style="stroke-width:0.7;stroke-miterlimit:4;stroke-dasharray:none;stroke-linecap:square;fill:none"/>
<circle cx="75.0" cy="-39.0" r="2.5" stroke="#212529" stroke-width="0.7 px" style="stroke-width:0.7;stroke-miterlimit:4;stroke-dasharray:none;stroke-linecap:square;fill:none"/>
<path id="Sketch_w0007"  d="M 137.0 55.0 L 137.0 -55.0 L 140.0 -55.0 L 140.0 55.0 L 137.0 55.0 " stroke="#212529" stroke-width="0.7 px" style="stroke-width:0.7;stroke-miterlimit:4;stroke-dasharray:none;stroke-linecap:square;fill:none;fill-opacity:1;fill-rule: evenodd"/>
<path id="Sketch_w0008"  d="M -137.0 55.0 L -140.0 55.0 L -140.0 -55.0 L -137.0 -55.0 L -137.0 55.0 " stroke="#212529" stroke-width="0.7 px" style="stroke-width:0.7;stroke-miterlimit:4;stroke-dasharray:none;stroke-linecap:square;fill:none;fill-opacity:1;fill-rule: evenodd"/>
<circle cx="-75.0" cy="21.0" r="2.5" stroke="#212529" stroke-width="0.7 px" style="stroke-width:0.7;stroke-miterlimit:4;stroke-dasharray:none;stroke-linecap:square;fill:none"/>
<circle cx="75.0" cy="21.0" r="2.5" stroke="#212529" stroke-width="0.7 px" style="stroke-width:0.7;stroke-miterlimit:4;stroke-dasharray:none;stroke-linecap:square;fill:none"/>
<path id="Sketch_w0011"  d="M -75.0 70.0 L -75.0 67.0 L 75.0 67.0 L 75.0 70.0 L -75.0 70.0 " stroke="#212529" stroke-width="0.7 px" style="stroke-width:0.7;stroke-miterlimit:4;stroke-dasharray:none;stroke-linecap:square;fill:none;fill-opacity:1;fill-rule: evenodd"/>
<path id="Sketch_w0012"  d="M -75.0 -67.0 L -75.0 -70.0 L 75.0 -70.0 L 75.0 -67.0 L -75.0 -67.0 " stroke="#212529" stroke-width="0.7 px" style="stroke-width:0.7;stroke-miterlimit:4;stroke-dasharray:none;stroke-linecap:square;fill:none;fill-opacity:1;fill-rule: evenodd"/>
<title>b'Sketch'</title>
</g>
</svg>