M48
; DRILL file {KiCad 8.0.3} date 2024-08-26T14:09:24+0300
; FORMAT={-:-/ absolute / metric / decimal}
; #@! TF.CreationDate,2024-08-26T14:09:24+03:00
; #@! TF.GenerationSoftware,Kicad,Pcbnew,8.0.3
; #@! TF.FileFunction,Plated,1,2,PTH
FMAT,2
METRIC
; #@! TA.AperFunction,Plated,PTH,ViaDrill
T1C0.250
; #@! TA.AperFunction,Plated,PTH,ViaDrill
T2C0.450
; #@! TA.AperFunction,Plated,PTH,ComponentDrill
T3C0.750
; #@! TA.AperFunction,Plated,PTH,ViaDrill
T4C0.800
; #@! TA.AperFunction,Plated,PTH,ComponentDrill
T5C0.800
; #@! TA.AperFunction,Plated,PTH,ComponentDrill
T6C0.900
; #@! TA.AperFunction,Plated,PTH,ComponentDrill
T7C1.000
; #@! TA.AperFunction,Plated,PTH,ComponentDrill
T8C1.100
; #@! TA.AperFunction,Plated,PTH,ComponentDrill
T9C1.200
; #@! TA.AperFunction,Plated,PTH,ComponentDrill
T10C1.300
; #@! TA.AperFunction,Plated,PTH,ComponentDrill
T11C1.500
; #@! TA.AperFunction,Plated,PTH,ComponentDrill
T12C1.600
%
G90
G05
T1
X104.08Y-149.33
X105.3Y-154.87
X110.46Y-154.825
X111.685Y-154.87
X112.955Y-86.925
X114.86Y-154.825
X116.13Y-154.87
X119.305Y-148.52
X119.305Y-154.87
X125.655Y-154.235
X126.29Y-102.8
X126.29Y-153.6
X130.735Y-170.11
X131.37Y-154.235
X132.005Y-153.6
X171.375Y-154.235
X171.46Y-156.775
X181.535Y-153.6
X181.535Y-156.775
T2
X118.08Y-81.845
X132.86Y-93.91
X132.875Y-97.72
X137.72Y-81.845
X140.895Y-98.99
X140.895Y-156.775
X140.94Y-152.33
X142.8Y-98.99
X147.245Y-107.88
X150.525Y-97.72
X172.59Y-127.365
X175.82Y-101.53
X192.525Y-95.22
T3
X113.08Y-83.75
X115.08Y-83.75
X117.08Y-83.75
X119.08Y-83.75
X121.08Y-83.75
X123.08Y-83.75
X132.86Y-83.75
X134.86Y-83.75
X136.86Y-83.75
X138.86Y-83.75
X140.86Y-83.75
X142.86Y-83.75
T4
X159.89Y-117.83
X201.22Y-155.505
X205.03Y-155.505
T5
X97.68Y-151.06
X97.68Y-161.22
X102.76Y-151.06
X102.76Y-161.22
X107.84Y-151.1
X107.84Y-156.1
X112.92Y-151.06
X112.92Y-161.22
X118.0Y-151.06
X118.0Y-161.22
X123.08Y-151.14
X123.08Y-156.14
X134.51Y-164.395
X134.51Y-169.395
X139.59Y-164.395
X139.59Y-169.395
X149.75Y-158.68
X149.75Y-161.18
X153.14Y-100.32
X153.14Y-105.32
X167.53Y-108.32
X167.53Y-113.32
T6
X95.14Y-111.69
X95.14Y-137.09
X97.68Y-111.69
X97.68Y-137.09
X100.22Y-111.69
X100.22Y-137.09
X102.76Y-111.69
X102.76Y-137.09
X105.3Y-111.69
X105.3Y-137.09
X107.84Y-111.69
X107.84Y-137.09
X110.38Y-111.69
X110.38Y-137.09
X112.92Y-111.69
X112.92Y-137.09
X115.46Y-111.69
X115.46Y-137.09
X118.0Y-111.69
X118.0Y-137.09
X120.54Y-111.69
X120.54Y-137.09
X123.08Y-111.69
X123.08Y-137.09
X125.62Y-111.69
X125.62Y-137.09
X128.16Y-111.69
X128.16Y-137.09
X130.7Y-111.69
X130.7Y-137.09
X133.24Y-111.69
X133.24Y-137.09
X135.78Y-111.69
X135.78Y-137.09
X138.32Y-111.69
X138.32Y-137.09
X140.86Y-111.69
X140.86Y-137.09
T7
X95.14Y-106.61
X95.22Y-142.17
X97.68Y-106.61
X97.76Y-142.17
X100.22Y-106.61
X100.3Y-142.17
X102.76Y-106.61
X102.84Y-142.17
X105.3Y-106.61
X105.3Y-175.19
X105.38Y-142.17
X107.84Y-106.61
X107.84Y-175.19
X107.92Y-142.17
X110.38Y-106.61
X110.38Y-175.19
X110.46Y-142.17
X112.92Y-106.61
X112.92Y-175.19
X113.0Y-142.17
X115.46Y-106.61
X115.46Y-175.19
X115.54Y-142.17
X118.0Y-106.61
X118.0Y-175.19
X118.08Y-142.17
X120.54Y-106.61
X120.54Y-175.19
X120.62Y-142.17
X123.08Y-106.61
X123.16Y-142.17
X125.62Y-106.61
X125.7Y-142.17
X128.16Y-106.61
X128.24Y-142.17
X129.43Y-175.19
X130.7Y-106.61
X130.78Y-142.17
X131.97Y-175.19
X133.24Y-106.61
X133.32Y-142.17
X134.51Y-175.19
X135.78Y-106.61
X135.86Y-142.17
X137.05Y-175.19
X138.32Y-106.61
X138.4Y-142.17
X139.59Y-175.19
X140.86Y-106.61
X140.94Y-142.17
X142.13Y-175.19
X144.67Y-175.19
X157.35Y-105.34
X158.62Y-100.26
X159.89Y-105.34
X161.16Y-100.26
X162.43Y-105.34
X163.7Y-100.26
X164.97Y-105.34
X166.24Y-100.26
X167.51Y-105.34
X168.78Y-100.26
X170.05Y-105.34
X171.32Y-100.26
X172.59Y-105.34
X173.86Y-100.26
X175.13Y-105.34
X226.522Y-120.82
X230.022Y-120.82
T8
X134.51Y-161.22
X137.05Y-161.22
X139.59Y-161.22
X182.42Y-103.393
X182.42Y-108.214
X182.42Y-113.036
X182.42Y-117.857
X182.42Y-122.679
X182.42Y-127.5
X182.42Y-132.321
X182.42Y-137.143
X192.58Y-103.393
X192.58Y-108.214
X192.58Y-113.036
X192.58Y-117.857
X192.58Y-122.679
X192.58Y-127.5
X192.58Y-132.321
X192.58Y-137.143
X206.45Y-103.91
X208.15Y-100.21
X209.85Y-103.91
X211.55Y-100.21
X213.25Y-103.91
T9
X224.825Y-106.61
X229.825Y-106.61
T10
X171.46Y-171.685
X176.46Y-171.685
X181.46Y-171.685
X186.46Y-171.685
X206.94Y-114.23
X211.94Y-114.23
T11
X157.35Y-90.1
X175.15Y-90.1
X200.52Y-90.1
X218.32Y-90.1
T12
X206.79Y-125.66
X219.49Y-125.66
M30
